STARTFONT 2.1
COMMENT
COMMENT Converted from OpenType font "NanumGothic.ttf" by "otf2bdf 3.0".
COMMENT
FONT -FreeType-NanumGothic-Medium-R-Normal--11-80-100-100-P-90-ISO10646-1
SIZE 8 100 100
FONTBOUNDINGBOX 11 13 0 -3
STARTPROPERTIES 19
FOUNDRY "FreeType"
FAMILY_NAME "NanumGothic"
WEIGHT_NAME "Medium"
SLANT "R"
SETWIDTH_NAME "Normal"
ADD_STYLE_NAME ""
PIXEL_SIZE 11
POINT_SIZE 80
RESOLUTION_X 100
RESOLUTION_Y 100
SPACING "P"
AVERAGE_WIDTH 90
CHARSET_REGISTRY "ISO10646"
CHARSET_ENCODING "1"
FONT_ASCENT 10
FONT_DESCENT 2
COPYRIGHT "Copyright © 2011 NHN Corporation. All rights reserved. Font designed by Sandoll Communications Inc."
_OTF_FONTFILE "NanumGothic.ttf"
_OTF_PSNAME "NanumGothic"
ENDPROPERTIES
CHARS 17666
STARTCHAR 0000
ENCODING 0
SWIDTH 270 0
DWIDTH 3 0
BBX 0 0 0 0
BITMAP
ENDCHAR
STARTCHAR 0001
ENCODING 1
SWIDTH 270 0
DWIDTH 3 0
BBX 0 0 0 0
BITMAP
ENDCHAR
STARTCHAR 0002
ENCODING 2
SWIDTH 270 0
DWIDTH 3 0
BBX 0 0 0 0
BITMAP
ENDCHAR
STARTCHAR 0003
ENCODING 3
SWIDTH 270 0
DWIDTH 3 0
BBX 0 0 0 0
BITMAP
ENDCHAR
STARTCHAR 0004
ENCODING 4
SWIDTH 270 0
DWIDTH 3 0
BBX 0 0 0 0
BITMAP
ENDCHAR
STARTCHAR 0005
ENCODING 5
SWIDTH 270 0
DWIDTH 3 0
BBX 0 0 0 0
BITMAP
ENDCHAR
STARTCHAR 0006
ENCODING 6
SWIDTH 270 0
DWIDTH 3 0
BBX 0 0 0 0
BITMAP
ENDCHAR
STARTCHAR 0007
ENCODING 7
SWIDTH 270 0
DWIDTH 3 0
BBX 0 0 0 0
BITMAP
ENDCHAR
STARTCHAR 0008
ENCODING 8
SWIDTH 270 0
DWIDTH 3 0
BBX 0 0 0 0
BITMAP
ENDCHAR
STARTCHAR 0009
ENCODING 9
SWIDTH 270 0
DWIDTH 3 0
BBX 0 0 0 0
BITMAP
ENDCHAR
STARTCHAR 000A
ENCODING 10
SWIDTH 270 0
DWIDTH 3 0
BBX 0 0 0 0
BITMAP
ENDCHAR
STARTCHAR 000B
ENCODING 11
SWIDTH 270 0
DWIDTH 3 0
BBX 0 0 0 0
BITMAP
ENDCHAR
STARTCHAR 000C
ENCODING 12
SWIDTH 270 0
DWIDTH 3 0
BBX 0 0 0 0
BITMAP
ENDCHAR
STARTCHAR 000D
ENCODING 13
SWIDTH 270 0
DWIDTH 3 0
BBX 0 0 0 0
BITMAP
ENDCHAR
STARTCHAR 000E
ENCODING 14
SWIDTH 270 0
DWIDTH 3 0
BBX 0 0 0 0
BITMAP
ENDCHAR
STARTCHAR 000F
ENCODING 15
SWIDTH 270 0
DWIDTH 3 0
BBX 0 0 0 0
BITMAP
ENDCHAR
STARTCHAR 0010
ENCODING 16
SWIDTH 270 0
DWIDTH 3 0
BBX 0 0 0 0
BITMAP
ENDCHAR
STARTCHAR 0011
ENCODING 17
SWIDTH 270 0
DWIDTH 3 0
BBX 0 0 0 0
BITMAP
ENDCHAR
STARTCHAR 0012
ENCODING 18
SWIDTH 270 0
DWIDTH 3 0
BBX 0 0 0 0
BITMAP
ENDCHAR
STARTCHAR 0013
ENCODING 19
SWIDTH 270 0
DWIDTH 3 0
BBX 0 0 0 0
BITMAP
ENDCHAR
STARTCHAR 0014
ENCODING 20
SWIDTH 270 0
DWIDTH 3 0
BBX 0 0 0 0
BITMAP
ENDCHAR
STARTCHAR 0015
ENCODING 21
SWIDTH 270 0
DWIDTH 3 0
BBX 0 0 0 0
BITMAP
ENDCHAR
STARTCHAR 0016
ENCODING 22
SWIDTH 270 0
DWIDTH 3 0
BBX 0 0 0 0
BITMAP
ENDCHAR
STARTCHAR 0017
ENCODING 23
SWIDTH 270 0
DWIDTH 3 0
BBX 0 0 0 0
BITMAP
ENDCHAR
STARTCHAR 0018
ENCODING 24
SWIDTH 270 0
DWIDTH 3 0
BBX 0 0 0 0
BITMAP
ENDCHAR
STARTCHAR 0019
ENCODING 25
SWIDTH 270 0
DWIDTH 3 0
BBX 0 0 0 0
BITMAP
ENDCHAR
STARTCHAR 001A
ENCODING 26
SWIDTH 270 0
DWIDTH 3 0
BBX 0 0 0 0
BITMAP
ENDCHAR
STARTCHAR 001B
ENCODING 27
SWIDTH 270 0
DWIDTH 3 0
BBX 0 0 0 0
BITMAP
ENDCHAR
STARTCHAR 001C
ENCODING 28
SWIDTH 270 0
DWIDTH 3 0
BBX 0 0 0 0
BITMAP
ENDCHAR
STARTCHAR 001D
ENCODING 29
SWIDTH 270 0
DWIDTH 3 0
BBX 0 0 0 0
BITMAP
ENDCHAR
STARTCHAR 001E
ENCODING 30
SWIDTH 270 0
DWIDTH 3 0
BBX 0 0 0 0
BITMAP
ENDCHAR
STARTCHAR 001F
ENCODING 31
SWIDTH 270 0
DWIDTH 3 0
BBX 0 0 0 0
BITMAP
ENDCHAR
STARTCHAR 0020
ENCODING 32
SWIDTH 270 0
DWIDTH 3 0
BBX 0 0 0 0
BITMAP
ENDCHAR
STARTCHAR 0021
ENCODING 33
SWIDTH 450 0
DWIDTH 5 0
BBX 1 9 2 -1
BITMAP
80
80
80
80
80
80
00
80
80
ENDCHAR
STARTCHAR 0022
ENCODING 34
SWIDTH 450 0
DWIDTH 5 0
BBX 3 3 1 5
BITMAP
A0
A0
A0
ENDCHAR
STARTCHAR 0023
ENCODING 35
SWIDTH 630 0
DWIDTH 7 0
BBX 5 9 1 -1
BITMAP
48
50
F8
50
50
F8
50
90
90
ENDCHAR
STARTCHAR 0024
ENCODING 36
SWIDTH 630 0
DWIDTH 7 0
BBX 5 11 1 -2
BITMAP
20
70
A0
A0
60
20
30
28
28
F0
20
ENDCHAR
STARTCHAR 0025
ENCODING 37
SWIDTH 1080 0
DWIDTH 12 0
BBX 10 9 1 -1
BITMAP
6100
9200
9200
9400
6980
0A40
1240
1240
2180
ENDCHAR
STARTCHAR 0026
ENCODING 38
SWIDTH 720 0
DWIDTH 8 0
BBX 6 9 1 -1
BITMAP
70
48
48
50
64
94
8C
8C
74
ENDCHAR
STARTCHAR 0027
ENCODING 39
SWIDTH 270 0
DWIDTH 3 0
BBX 1 3 1 5
BITMAP
80
80
80
ENDCHAR
STARTCHAR 0028
ENCODING 40
SWIDTH 360 0
DWIDTH 4 0
BBX 3 11 1 -2
BITMAP
20
40
40
80
80
80
80
80
40
40
20
ENDCHAR
STARTCHAR 0029
ENCODING 41
SWIDTH 360 0
DWIDTH 4 0
BBX 3 11 0 -2
BITMAP
80
40
20
20
20
20
20
20
20
40
80
ENDCHAR
STARTCHAR 002A
ENCODING 42
SWIDTH 630 0
DWIDTH 7 0
BBX 5 4 1 2
BITMAP
20
F8
20
50
ENDCHAR
STARTCHAR 002B
ENCODING 43
SWIDTH 630 0
DWIDTH 7 0
BBX 6 6 1 1
BITMAP
20
20
FC
20
20
20
ENDCHAR
STARTCHAR 002C
ENCODING 44
SWIDTH 270 0
DWIDTH 3 0
BBX 1 2 1 -2
BITMAP
80
80
ENDCHAR
STARTCHAR 002D
ENCODING 45
SWIDTH 360 0
DWIDTH 4 0
BBX 3 1 1 4
BITMAP
E0
ENDCHAR
STARTCHAR 002E
ENCODING 46
SWIDTH 270 0
DWIDTH 3 0
BBX 1 1 1 -1
BITMAP
80
ENDCHAR
STARTCHAR 002F
ENCODING 47
SWIDTH 360 0
DWIDTH 4 0
BBX 4 9 0 -1
BITMAP
10
10
20
20
20
40
40
40
80
ENDCHAR
STARTCHAR 0030
ENCODING 48
SWIDTH 630 0
DWIDTH 7 0
BBX 5 9 1 -1
BITMAP
70
88
88
88
88
88
88
98
70
ENDCHAR
STARTCHAR 0031
ENCODING 49
SWIDTH 630 0
DWIDTH 7 0
BBX 2 9 2 -1
BITMAP
40
C0
40
40
40
40
40
40
40
ENDCHAR
STARTCHAR 0032
ENCODING 50
SWIDTH 630 0
DWIDTH 7 0
BBX 5 9 1 -1
BITMAP
70
90
08
10
10
20
40
80
F8
ENDCHAR
STARTCHAR 0033
ENCODING 51
SWIDTH 630 0
DWIDTH 7 0
BBX 5 9 1 -1
BITMAP
F0
18
08
10
60
10
08
18
F0
ENDCHAR
STARTCHAR 0034
ENCODING 52
SWIDTH 630 0
DWIDTH 7 0
BBX 6 9 0 -1
BITMAP
08
18
28
28
48
88
FC
08
08
ENDCHAR
STARTCHAR 0035
ENCODING 53
SWIDTH 630 0
DWIDTH 7 0
BBX 5 9 1 -1
BITMAP
F8
80
80
F0
08
08
08
18
F0
ENDCHAR
STARTCHAR 0036
ENCODING 54
SWIDTH 630 0
DWIDTH 7 0
BBX 5 9 1 -1
BITMAP
78
C0
80
F0
88
88
88
88
70
ENDCHAR
STARTCHAR 0037
ENCODING 55
SWIDTH 630 0
DWIDTH 7 0
BBX 5 9 1 -1
BITMAP
F8
08
10
10
20
20
20
40
40
ENDCHAR
STARTCHAR 0038
ENCODING 56
SWIDTH 630 0
DWIDTH 7 0
BBX 5 9 1 -1
BITMAP
70
88
88
90
70
88
88
88
70
ENDCHAR
STARTCHAR 0039
ENCODING 57
SWIDTH 630 0
DWIDTH 7 0
BBX 5 9 1 -1
BITMAP
70
88
88
88
78
08
08
10
E0
ENDCHAR
STARTCHAR 003A
ENCODING 58
SWIDTH 270 0
DWIDTH 3 0
BBX 1 6 1 1
BITMAP
80
00
00
00
00
80
ENDCHAR
STARTCHAR 003B
ENCODING 59
SWIDTH 270 0
DWIDTH 3 0
BBX 1 8 1 -1
BITMAP
80
00
00
00
00
00
80
80
ENDCHAR
STARTCHAR 003C
ENCODING 60
SWIDTH 540 0
DWIDTH 6 0
BBX 4 11 1 -2
BITMAP
10
10
20
40
80
80
80
40
20
10
10
ENDCHAR
STARTCHAR 003D
ENCODING 61
SWIDTH 630 0
DWIDTH 7 0
BBX 6 4 1 2
BITMAP
FC
00
00
FC
ENDCHAR
STARTCHAR 003E
ENCODING 62
SWIDTH 540 0
DWIDTH 6 0
BBX 4 11 1 -2
BITMAP
80
80
40
20
10
10
10
20
40
80
80
ENDCHAR
STARTCHAR 003F
ENCODING 63
SWIDTH 540 0
DWIDTH 6 0
BBX 4 9 1 -1
BITMAP
E0
10
10
10
20
20
40
00
40
ENDCHAR
STARTCHAR 0040
ENCODING 64
SWIDTH 900 0
DWIDTH 10 0
BBX 8 9 1 -1
BITMAP
3C
42
9D
A5
C5
C9
BE
42
3C
ENDCHAR
STARTCHAR 0041
ENCODING 65
SWIDTH 720 0
DWIDTH 8 0
BBX 8 9 0 -1
BITMAP
18
18
24
24
24
3E
42
42
81
ENDCHAR
STARTCHAR 0042
ENCODING 66
SWIDTH 630 0
DWIDTH 7 0
BBX 5 9 1 -1
BITMAP
F0
90
88
90
E0
98
88
88
F0
ENDCHAR
STARTCHAR 0043
ENCODING 67
SWIDTH 630 0
DWIDTH 7 0
BBX 6 9 1 -1
BITMAP
3C
40
80
80
80
80
80
40
3C
ENDCHAR
STARTCHAR 0044
ENCODING 68
SWIDTH 720 0
DWIDTH 8 0
BBX 6 9 1 -1
BITMAP
F0
88
84
84
84
84
84
88
F0
ENDCHAR
STARTCHAR 0045
ENCODING 69
SWIDTH 540 0
DWIDTH 6 0
BBX 5 9 1 -1
BITMAP
F0
80
80
80
F0
80
80
80
F8
ENDCHAR
STARTCHAR 0046
ENCODING 70
SWIDTH 540 0
DWIDTH 6 0
BBX 4 9 1 -1
BITMAP
F0
80
80
80
F0
80
80
80
80
ENDCHAR
STARTCHAR 0047
ENCODING 71
SWIDTH 810 0
DWIDTH 9 0
BBX 7 9 1 -1
BITMAP
3C
40
80
80
9E
82
82
42
3E
ENDCHAR
STARTCHAR 0048
ENCODING 72
SWIDTH 720 0
DWIDTH 8 0
BBX 6 9 1 -1
BITMAP
84
84
84
84
FC
84
84
84
84
ENDCHAR
STARTCHAR 0049
ENCODING 73
SWIDTH 270 0
DWIDTH 3 0
BBX 1 9 1 -1
BITMAP
80
80
80
80
80
80
80
80
80
ENDCHAR
STARTCHAR 004A
ENCODING 74
SWIDTH 360 0
DWIDTH 4 0
BBX 3 9 0 -1
BITMAP
20
20
20
20
20
20
20
20
C0
ENDCHAR
STARTCHAR 004B
ENCODING 75
SWIDTH 630 0
DWIDTH 7 0
BBX 6 9 1 -1
BITMAP
88
90
90
A0
E0
90
90
88
84
ENDCHAR
STARTCHAR 004C
ENCODING 76
SWIDTH 450 0
DWIDTH 5 0
BBX 4 9 1 -1
BITMAP
80
80
80
80
80
80
80
80
F0
ENDCHAR
STARTCHAR 004D
ENCODING 77
SWIDTH 990 0
DWIDTH 11 0
BBX 9 9 1 -1
BITMAP
C180
C180
C280
A280
A480
9480
9480
9880
8880
ENDCHAR
STARTCHAR 004E
ENCODING 78
SWIDTH 720 0
DWIDTH 8 0
BBX 6 9 1 -1
BITMAP
84
C4
C4
A4
94
94
8C
8C
84
ENDCHAR
STARTCHAR 004F
ENCODING 79
SWIDTH 810 0
DWIDTH 9 0
BBX 7 9 1 -1
BITMAP
38
44
82
82
82
82
82
C4
78
ENDCHAR
STARTCHAR 0050
ENCODING 80
SWIDTH 540 0
DWIDTH 6 0
BBX 5 9 1 -1
BITMAP
F0
88
88
88
F0
80
80
80
80
ENDCHAR
STARTCHAR 0051
ENCODING 81
SWIDTH 810 0
DWIDTH 9 0
BBX 7 10 1 -2
BITMAP
38
44
82
82
82
82
82
C4
78
04
ENDCHAR
STARTCHAR 0052
ENCODING 82
SWIDTH 630 0
DWIDTH 7 0
BBX 5 9 1 -1
BITMAP
F0
88
88
88
F0
90
90
88
88
ENDCHAR
STARTCHAR 0053
ENCODING 83
SWIDTH 540 0
DWIDTH 6 0
BBX 4 9 1 -1
BITMAP
70
80
80
80
60
10
10
10
E0
ENDCHAR
STARTCHAR 0054
ENCODING 84
SWIDTH 540 0
DWIDTH 6 0
BBX 6 9 0 -1
BITMAP
FC
10
10
10
10
10
10
10
10
ENDCHAR
STARTCHAR 0055
ENCODING 85
SWIDTH 720 0
DWIDTH 8 0
BBX 6 9 1 -1
BITMAP
84
84
84
84
84
84
84
C4
78
ENDCHAR
STARTCHAR 0056
ENCODING 86
SWIDTH 630 0
DWIDTH 7 0
BBX 7 9 0 -1
BITMAP
82
42
44
44
24
28
28
18
10
ENDCHAR
STARTCHAR 0057
ENCODING 87
SWIDTH 990 0
DWIDTH 11 0
BBX 11 9 0 -1
BITMAP
8420
4620
4A20
4A40
4A40
2940
3180
3180
3080
ENDCHAR
STARTCHAR 0058
ENCODING 88
SWIDTH 630 0
DWIDTH 7 0
BBX 7 9 0 -1
BITMAP
42
44
24
18
10
28
24
44
82
ENDCHAR
STARTCHAR 0059
ENCODING 89
SWIDTH 630 0
DWIDTH 7 0
BBX 6 9 1 -1
BITMAP
84
88
48
50
30
20
20
20
20
ENDCHAR
STARTCHAR 005A
ENCODING 90
SWIDTH 540 0
DWIDTH 6 0
BBX 6 9 0 -1
BITMAP
FC
08
08
10
20
20
40
40
FC
ENDCHAR
STARTCHAR 005B
ENCODING 91
SWIDTH 360 0
DWIDTH 4 0
BBX 1 11 2 -2
BITMAP
80
80
80
80
80
80
80
80
80
80
80
ENDCHAR
STARTCHAR 005C
ENCODING 92
SWIDTH 990 0
DWIDTH 11 0
BBX 9 9 1 -1
BITMAP
8900
8900
5900
FF80
5500
5600
6600
2200
2200
ENDCHAR
STARTCHAR 005D
ENCODING 93
SWIDTH 360 0
DWIDTH 4 0
BBX 2 11 1 -2
BITMAP
C0
40
40
40
40
40
40
40
40
40
C0
ENDCHAR
STARTCHAR 005E
ENCODING 94
SWIDTH 630 0
DWIDTH 7 0
BBX 5 5 1 3
BITMAP
20
50
50
88
88
ENDCHAR
STARTCHAR 005F
ENCODING 95
SWIDTH 540 0
DWIDTH 6 0
BBX 6 1 0 -2
BITMAP
FC
ENDCHAR
STARTCHAR 0060
ENCODING 96
SWIDTH 270 0
DWIDTH 3 0
BBX 2 2 0 7
BITMAP
80
40
ENDCHAR
STARTCHAR 0061
ENCODING 97
SWIDTH 540 0
DWIDTH 6 0
BBX 4 7 1 -1
BITMAP
F0
10
10
F0
90
90
F0
ENDCHAR
STARTCHAR 0062
ENCODING 98
SWIDTH 630 0
DWIDTH 7 0
BBX 5 10 1 -1
BITMAP
80
80
80
F0
88
88
88
88
88
F0
ENDCHAR
STARTCHAR 0063
ENCODING 99
SWIDTH 450 0
DWIDTH 5 0
BBX 4 7 1 -1
BITMAP
70
80
80
80
80
80
70
ENDCHAR
STARTCHAR 0064
ENCODING 100
SWIDTH 630 0
DWIDTH 7 0
BBX 5 10 1 -1
BITMAP
08
08
08
78
98
88
88
88
98
78
ENDCHAR
STARTCHAR 0065
ENCODING 101
SWIDTH 540 0
DWIDTH 6 0
BBX 5 7 1 -1
BITMAP
60
90
88
F8
80
80
70
ENDCHAR
STARTCHAR 0066
ENCODING 102
SWIDTH 360 0
DWIDTH 4 0
BBX 4 10 0 -1
BITMAP
30
40
40
F0
40
40
40
40
40
40
ENDCHAR
STARTCHAR 0067
ENCODING 103
SWIDTH 630 0
DWIDTH 7 0
BBX 5 8 1 -2
BITMAP
78
88
88
88
88
78
10
F0
ENDCHAR
STARTCHAR 0068
ENCODING 104
SWIDTH 630 0
DWIDTH 7 0
BBX 5 10 1 -1
BITMAP
80
80
80
F0
88
88
88
88
88
88
ENDCHAR
STARTCHAR 0069
ENCODING 105
SWIDTH 270 0
DWIDTH 3 0
BBX 1 10 1 -1
BITMAP
80
00
00
80
80
80
80
80
80
80
ENDCHAR
STARTCHAR 006A
ENCODING 106
SWIDTH 270 0
DWIDTH 3 0
BBX 2 11 0 -2
BITMAP
40
00
00
40
40
40
40
40
40
40
C0
ENDCHAR
STARTCHAR 006B
ENCODING 107
SWIDTH 540 0
DWIDTH 6 0
BBX 4 10 1 -1
BITMAP
80
80
80
90
A0
A0
C0
A0
A0
90
ENDCHAR
STARTCHAR 006C
ENCODING 108
SWIDTH 270 0
DWIDTH 3 0
BBX 1 10 1 -1
BITMAP
80
80
80
80
80
80
80
80
80
80
ENDCHAR
STARTCHAR 006D
ENCODING 109
SWIDTH 900 0
DWIDTH 10 0
BBX 8 7 1 -1
BITMAP
F6
99
89
89
89
89
89
ENDCHAR
STARTCHAR 006E
ENCODING 110
SWIDTH 630 0
DWIDTH 7 0
BBX 5 7 1 -1
BITMAP
F0
88
88
88
88
88
88
ENDCHAR
STARTCHAR 006F
ENCODING 111
SWIDTH 630 0
DWIDTH 7 0
BBX 5 7 1 -1
BITMAP
70
88
88
88
88
88
70
ENDCHAR
STARTCHAR 0070
ENCODING 112
SWIDTH 630 0
DWIDTH 7 0
BBX 5 8 1 -2
BITMAP
F0
88
88
88
88
F0
80
80
ENDCHAR
STARTCHAR 0071
ENCODING 113
SWIDTH 630 0
DWIDTH 7 0
BBX 5 8 1 -2
BITMAP
78
88
88
88
88
78
08
08
ENDCHAR
STARTCHAR 0072
ENCODING 114
SWIDTH 360 0
DWIDTH 4 0
BBX 3 7 1 -1
BITMAP
E0
80
80
80
80
80
80
ENDCHAR
STARTCHAR 0073
ENCODING 115
SWIDTH 450 0
DWIDTH 5 0
BBX 3 7 1 -1
BITMAP
E0
80
80
40
20
20
E0
ENDCHAR
STARTCHAR 0074
ENCODING 116
SWIDTH 360 0
DWIDTH 4 0
BBX 4 9 0 -1
BITMAP
40
40
F0
40
40
40
40
40
30
ENDCHAR
STARTCHAR 0075
ENCODING 117
SWIDTH 630 0
DWIDTH 7 0
BBX 5 7 1 -1
BITMAP
88
88
88
88
88
98
68
ENDCHAR
STARTCHAR 0076
ENCODING 118
SWIDTH 450 0
DWIDTH 5 0
BBX 5 7 0 -1
BITMAP
88
48
48
50
50
30
20
ENDCHAR
STARTCHAR 0077
ENCODING 119
SWIDTH 810 0
DWIDTH 9 0
BBX 9 7 0 -1
BITMAP
8880
8C80
5480
5500
5500
2300
2200
ENDCHAR
STARTCHAR 0078
ENCODING 120
SWIDTH 540 0
DWIDTH 6 0
BBX 5 7 0 -1
BITMAP
48
50
30
20
30
48
88
ENDCHAR
STARTCHAR 0079
ENCODING 121
SWIDTH 450 0
DWIDTH 5 0
BBX 5 8 0 -2
BITMAP
88
48
50
50
20
20
20
C0
ENDCHAR
STARTCHAR 007A
ENCODING 122
SWIDTH 450 0
DWIDTH 5 0
BBX 5 7 0 -1
BITMAP
78
08
10
20
40
40
F8
ENDCHAR
STARTCHAR 007B
ENCODING 123
SWIDTH 270 0
DWIDTH 3 0
BBX 2 11 1 -2
BITMAP
40
80
80
80
80
80
80
80
80
80
40
ENDCHAR
STARTCHAR 007C
ENCODING 124
SWIDTH 270 0
DWIDTH 3 0
BBX 1 11 1 -2
BITMAP
80
80
80
80
80
80
80
80
80
80
80
ENDCHAR
STARTCHAR 007D
ENCODING 125
SWIDTH 270 0
DWIDTH 3 0
BBX 3 11 0 -2
BITMAP
C0
40
40
40
40
20
40
40
40
40
C0
ENDCHAR
STARTCHAR 007E
ENCODING 126
SWIDTH 630 0
DWIDTH 7 0
BBX 5 2 1 3
BITMAP
E0
98
ENDCHAR
STARTCHAR 00A0
ENCODING 160
SWIDTH 270 0
DWIDTH 3 0
BBX 0 0 0 0
BITMAP
ENDCHAR
STARTCHAR 00A1
ENCODING 161
SWIDTH 270 0
DWIDTH 3 0
BBX 1 8 1 0
BITMAP
80
00
80
80
80
80
80
80
ENDCHAR
STARTCHAR 00A2
ENCODING 162
SWIDTH 900 0
DWIDTH 10 0
BBX 6 8 2 0
BITMAP
38
4C
90
90
94
64
38
40
ENDCHAR
STARTCHAR 00A3
ENCODING 163
SWIDTH 900 0
DWIDTH 10 0
BBX 6 8 2 -1
BITMAP
38
44
40
FC
20
E4
B4
CC
ENDCHAR
STARTCHAR 00A4
ENCODING 164
SWIDTH 810 0
DWIDTH 9 0
BBX 9 8 0 -1
BITMAP
9C80
6300
4100
4100
4100
4100
7F00
0080
ENDCHAR
STARTCHAR 00A5
ENCODING 165
SWIDTH 900 0
DWIDTH 10 0
BBX 6 8 2 -1
BITMAP
84
48
FC
30
FC
10
10
10
ENDCHAR
STARTCHAR 00A7
ENCODING 167
SWIDTH 360 0
DWIDTH 4 0
BBX 3 9 0 -1
BITMAP
60
80
40
E0
A0
60
20
20
E0
ENDCHAR
STARTCHAR 00A8
ENCODING 168
SWIDTH 540 0
DWIDTH 6 0
BBX 4 1 1 7
BITMAP
90
ENDCHAR
STARTCHAR 00A9
ENCODING 169
SWIDTH 810 0
DWIDTH 9 0
BBX 9 9 0 -1
BITMAP
1E00
6100
5C80
A280
A080
A280
5C80
6100
1E00
ENDCHAR
STARTCHAR 00AA
ENCODING 170
SWIDTH 540 0
DWIDTH 6 0
BBX 4 5 1 3
BITMAP
60
60
A0
50
F0
ENDCHAR
STARTCHAR 00AB
ENCODING 171
SWIDTH 900 0
DWIDTH 10 0
BBX 8 7 1 0
BITMAP
0D
16
68
B0
78
16
0D
ENDCHAR
STARTCHAR 00AC
ENCODING 172
SWIDTH 900 0
DWIDTH 10 0
BBX 9 4 1 -2
BITMAP
FF80
0080
0080
0080
ENDCHAR
STARTCHAR 00AD
ENCODING 173
SWIDTH 450 0
DWIDTH 5 0
BBX 3 1 1 3
BITMAP
E0
ENDCHAR
STARTCHAR 00AE
ENCODING 174
SWIDTH 900 0
DWIDTH 10 0
BBX 9 9 1 -1
BITMAP
3E00
5900
A500
A480
B880
A480
A500
4200
3C00
ENDCHAR
STARTCHAR 00B0
ENCODING 176
SWIDTH 450 0
DWIDTH 5 0
BBX 3 3 1 5
BITMAP
E0
A0
E0
ENDCHAR
STARTCHAR 00B1
ENCODING 177
SWIDTH 540 0
DWIDTH 6 0
BBX 6 7 0 0
BITMAP
10
10
FC
10
10
00
FC
ENDCHAR
STARTCHAR 00B2
ENCODING 178
SWIDTH 450 0
DWIDTH 5 0
BBX 2 3 1 5
BITMAP
40
40
C0
ENDCHAR
STARTCHAR 00B3
ENCODING 179
SWIDTH 450 0
DWIDTH 5 0
BBX 1 3 2 5
BITMAP
80
80
80
ENDCHAR
STARTCHAR 00B4
ENCODING 180
SWIDTH 360 0
DWIDTH 4 0
BBX 1 2 1 6
BITMAP
80
80
ENDCHAR
STARTCHAR 00B6
ENCODING 182
SWIDTH 630 0
DWIDTH 7 0
BBX 5 9 1 -1
BITMAP
78
E8
E8
E8
28
28
28
28
28
ENDCHAR
STARTCHAR 00B7
ENCODING 183
SWIDTH 270 0
DWIDTH 3 0
BBX 1 1 1 3
BITMAP
80
ENDCHAR
STARTCHAR 00B8
ENCODING 184
SWIDTH 270 0
DWIDTH 3 0
BBX 2 2 1 -2
BITMAP
80
40
ENDCHAR
STARTCHAR 00B9
ENCODING 185
SWIDTH 360 0
DWIDTH 4 0
BBX 1 3 2 5
BITMAP
80
80
80
ENDCHAR
STARTCHAR 00BA
ENCODING 186
SWIDTH 540 0
DWIDTH 6 0
BBX 4 5 1 3
BITMAP
60
90
90
60
F0
ENDCHAR
STARTCHAR 00BB
ENCODING 187
SWIDTH 900 0
DWIDTH 10 0
BBX 8 7 1 0
BITMAP
D0
2C
1A
05
1A
2C
D0
ENDCHAR
STARTCHAR 00BC
ENCODING 188
SWIDTH 720 0
DWIDTH 8 0
BBX 6 8 1 0
BITMAP
40
44
08
10
24
4C
9C
04
ENDCHAR
STARTCHAR 00BD
ENCODING 189
SWIDTH 720 0
DWIDTH 8 0
BBX 6 8 1 0
BITMAP
40
48
10
10
2C
54
88
18
ENDCHAR
STARTCHAR 00BE
ENCODING 190
SWIDTH 720 0
DWIDTH 8 0
BBX 6 9 1 -1
BITMAP
C0
20
64
E8
10
24
4C
9C
04
ENDCHAR
STARTCHAR 00BF
ENCODING 191
SWIDTH 540 0
DWIDTH 6 0
BBX 3 9 1 -1
BITMAP
20
00
20
20
40
80
80
80
60
ENDCHAR
STARTCHAR 00C0
ENCODING 192
SWIDTH 630 0
DWIDTH 7 0
BBX 7 9 0 0
BITMAP
20
10
10
28
28
24
7C
44
82
ENDCHAR
STARTCHAR 00C1
ENCODING 193
SWIDTH 630 0
DWIDTH 7 0
BBX 7 9 0 0
BITMAP
08
10
10
28
28
24
7C
44
82
ENDCHAR
STARTCHAR 00C2
ENCODING 194
SWIDTH 630 0
DWIDTH 7 0
BBX 7 9 0 0
BITMAP
10
28
10
28
28
24
7C
44
82
ENDCHAR
STARTCHAR 00C6
ENCODING 198
SWIDTH 810 0
DWIDTH 9 0
BBX 8 7 1 0
BITMAP
7F
50
50
9E
F0
90
9F
ENDCHAR
STARTCHAR 00C7
ENCODING 199
SWIDTH 540 0
DWIDTH 6 0
BBX 6 9 0 -2
BITMAP
3C
40
40
80
80
40
2C
10
18
ENDCHAR
STARTCHAR 00C8
ENCODING 200
SWIDTH 540 0
DWIDTH 6 0
BBX 4 9 1 0
BITMAP
40
00
F0
80
80
F0
80
80
F0
ENDCHAR
STARTCHAR 00C9
ENCODING 201
SWIDTH 540 0
DWIDTH 6 0
BBX 4 9 1 0
BITMAP
20
40
F0
80
80
F0
80
80
E0
ENDCHAR
STARTCHAR 00CA
ENCODING 202
SWIDTH 540 0
DWIDTH 6 0
BBX 4 9 1 0
BITMAP
60
00
F0
80
80
F0
80
80
F0
ENDCHAR
STARTCHAR 00CB
ENCODING 203
SWIDTH 540 0
DWIDTH 6 0
BBX 4 9 1 0
BITMAP
A0
00
F0
80
F0
80
80
80
F0
ENDCHAR
STARTCHAR 00CD
ENCODING 205
SWIDTH 360 0
DWIDTH 4 0
BBX 2 9 2 0
BITMAP
C0
80
80
80
80
80
80
80
80
ENDCHAR
STARTCHAR 00CE
ENCODING 206
SWIDTH 360 0
DWIDTH 4 0
BBX 3 9 1 0
BITMAP
C0
20
00
40
40
40
40
40
40
ENDCHAR
STARTCHAR 00CF
ENCODING 207
SWIDTH 360 0
DWIDTH 4 0
BBX 1 7 2 2
BITMAP
80
80
80
80
80
80
80
ENDCHAR
STARTCHAR 00D0
ENCODING 208
SWIDTH 810 0
DWIDTH 9 0
BBX 7 7 1 0
BITMAP
7C
42
42
E2
42
42
7C
ENDCHAR
STARTCHAR 00D1
ENCODING 209
SWIDTH 720 0
DWIDTH 8 0
BBX 6 9 1 0
BITMAP
28
10
84
C4
A4
A4
94
8C
8C
ENDCHAR
STARTCHAR 00D3
ENCODING 211
SWIDTH 720 0
DWIDTH 8 0
BBX 6 10 1 -1
BITMAP
10
20
78
84
84
84
84
84
C8
30
ENDCHAR
STARTCHAR 00D4
ENCODING 212
SWIDTH 720 0
DWIDTH 8 0
BBX 6 10 1 -1
BITMAP
30
50
78
84
84
84
84
84
C8
30
ENDCHAR
STARTCHAR 00D7
ENCODING 215
SWIDTH 630 0
DWIDTH 7 0
BBX 5 5 1 1
BITMAP
88
90
60
50
88
ENDCHAR
STARTCHAR 00D8
ENCODING 216
SWIDTH 810 0
DWIDTH 9 0
BBX 7 10 1 -2
BITMAP
3C
44
8A
92
92
A2
A2
44
78
80
ENDCHAR
STARTCHAR 00D9
ENCODING 217
SWIDTH 630 0
DWIDTH 7 0
BBX 6 10 1 -1
BITMAP
40
20
04
84
84
84
84
88
88
70
ENDCHAR
STARTCHAR 00DA
ENCODING 218
SWIDTH 630 0
DWIDTH 7 0
BBX 6 10 1 -1
BITMAP
10
20
04
84
84
84
84
88
88
70
ENDCHAR
STARTCHAR 00DB
ENCODING 219
SWIDTH 630 0
DWIDTH 7 0
BBX 6 10 1 -1
BITMAP
20
50
04
84
84
84
84
88
88
70
ENDCHAR
STARTCHAR 00DC
ENCODING 220
SWIDTH 630 0
DWIDTH 7 0
BBX 6 10 1 -1
BITMAP
50
00
04
84
84
84
84
88
88
70
ENDCHAR
STARTCHAR 00DE
ENCODING 222
SWIDTH 540 0
DWIDTH 6 0
BBX 4 7 1 0
BITMAP
80
E0
90
90
90
E0
80
ENDCHAR
STARTCHAR 00DF
ENCODING 223
SWIDTH 630 0
DWIDTH 7 0
BBX 6 9 1 -1
BITMAP
70
88
88
88
B0
88
84
88
38
ENDCHAR
STARTCHAR 00E0
ENCODING 224
SWIDTH 540 0
DWIDTH 6 0
BBX 4 9 1 -1
BITMAP
40
20
60
10
10
F0
90
90
60
ENDCHAR
STARTCHAR 00E1
ENCODING 225
SWIDTH 540 0
DWIDTH 6 0
BBX 4 9 1 -1
BITMAP
20
20
60
10
10
F0
90
90
60
ENDCHAR
STARTCHAR 00E2
ENCODING 226
SWIDTH 540 0
DWIDTH 6 0
BBX 4 9 1 -1
BITMAP
60
60
60
10
10
F0
90
90
60
ENDCHAR
STARTCHAR 00E4
ENCODING 228
SWIDTH 540 0
DWIDTH 6 0
BBX 4 8 1 -1
BITMAP
10
60
10
10
F0
90
90
60
ENDCHAR
STARTCHAR 00E6
ENCODING 230
SWIDTH 900 0
DWIDTH 10 0
BBX 8 7 1 -1
BITMAP
66
19
11
FF
90
98
66
ENDCHAR
STARTCHAR 00E7
ENCODING 231
SWIDTH 540 0
DWIDTH 6 0
BBX 4 8 1 -2
BITMAP
70
80
80
80
80
C0
20
30
ENDCHAR
STARTCHAR 00E8
ENCODING 232
SWIDTH 540 0
DWIDTH 6 0
BBX 4 9 1 -1
BITMAP
40
20
60
90
90
F0
80
80
70
ENDCHAR
STARTCHAR 00E9
ENCODING 233
SWIDTH 540 0
DWIDTH 6 0
BBX 4 9 1 -1
BITMAP
20
20
60
90
90
F0
80
80
70
ENDCHAR
STARTCHAR 00EA
ENCODING 234
SWIDTH 540 0
DWIDTH 6 0
BBX 4 9 1 -1
BITMAP
60
40
60
90
90
F0
80
80
70
ENDCHAR
STARTCHAR 00EB
ENCODING 235
SWIDTH 540 0
DWIDTH 6 0
BBX 4 8 1 -1
BITMAP
10
60
90
90
F0
80
80
70
ENDCHAR
STARTCHAR 00ED
ENCODING 237
SWIDTH 360 0
DWIDTH 4 0
BBX 2 8 2 0
BITMAP
40
80
00
80
80
80
80
80
ENDCHAR
STARTCHAR 00EE
ENCODING 238
SWIDTH 360 0
DWIDTH 4 0
BBX 2 8 1 0
BITMAP
C0
80
00
40
40
40
40
40
ENDCHAR
STARTCHAR 00EF
ENCODING 239
SWIDTH 360 0
DWIDTH 4 0
BBX 3 7 1 0
BITMAP
A0
00
40
40
40
40
40
ENDCHAR
STARTCHAR 00F0
ENCODING 240
SWIDTH 630 0
DWIDTH 7 0
BBX 5 9 1 -1
BITMAP
10
20
30
D8
88
88
88
90
60
ENDCHAR
STARTCHAR 00F1
ENCODING 241
SWIDTH 630 0
DWIDTH 7 0
BBX 5 8 1 0
BITMAP
40
30
70
88
88
88
88
88
ENDCHAR
STARTCHAR 00F3
ENCODING 243
SWIDTH 630 0
DWIDTH 7 0
BBX 5 9 1 -1
BITMAP
10
20
70
88
88
88
88
88
70
ENDCHAR
STARTCHAR 00F4
ENCODING 244
SWIDTH 630 0
DWIDTH 7 0
BBX 5 9 1 -1
BITMAP
20
50
70
88
88
88
88
88
70
ENDCHAR
STARTCHAR 00F6
ENCODING 246
SWIDTH 630 0
DWIDTH 7 0
BBX 5 8 1 -1
BITMAP
50
70
88
88
88
88
88
70
ENDCHAR
STARTCHAR 00F7
ENCODING 247
SWIDTH 630 0
DWIDTH 7 0
BBX 7 5 0 1
BITMAP
10
00
FE
00
10
ENDCHAR
STARTCHAR 00F8
ENCODING 248
SWIDTH 630 0
DWIDTH 7 0
BBX 5 7 1 -1
BITMAP
30
D0
A8
A8
C8
D8
60
ENDCHAR
STARTCHAR 00F9
ENCODING 249
SWIDTH 540 0
DWIDTH 6 0
BBX 4 9 1 -1
BITMAP
40
40
00
90
90
90
90
90
60
ENDCHAR
STARTCHAR 00FA
ENCODING 250
SWIDTH 540 0
DWIDTH 6 0
BBX 4 9 1 -1
BITMAP
20
40
00
90
90
90
90
90
60
ENDCHAR
STARTCHAR 00FB
ENCODING 251
SWIDTH 540 0
DWIDTH 6 0
BBX 4 9 1 -1
BITMAP
60
60
00
90
90
90
90
90
60
ENDCHAR
STARTCHAR 00FC
ENCODING 252
SWIDTH 540 0
DWIDTH 6 0
BBX 4 8 1 -1
BITMAP
10
00
90
90
90
90
90
60
ENDCHAR
STARTCHAR 00FE
ENCODING 254
SWIDTH 630 0
DWIDTH 7 0
BBX 5 9 1 -2
BITMAP
80
E0
90
88
88
88
90
E0
80
ENDCHAR
STARTCHAR 0111
ENCODING 273
SWIDTH 630 0
DWIDTH 7 0
BBX 6 8 1 -1
BITMAP
1C
68
98
88
88
88
98
60
ENDCHAR
STARTCHAR 0126
ENCODING 294
SWIDTH 810 0
DWIDTH 9 0
BBX 7 7 1 0
BITMAP
84
FE
84
FC
84
84
84
ENDCHAR
STARTCHAR 0127
ENCODING 295
SWIDTH 630 0
DWIDTH 7 0
BBX 6 7 0 0
BITMAP
F0
58
64
44
44
44
44
ENDCHAR
STARTCHAR 0131
ENCODING 305
SWIDTH 270 0
DWIDTH 3 0
BBX 1 5 1 0
BITMAP
80
80
80
80
80
ENDCHAR
STARTCHAR 0132
ENCODING 306
SWIDTH 720 0
DWIDTH 8 0
BBX 6 8 1 -1
BITMAP
84
84
84
84
84
C4
C4
38
ENDCHAR
STARTCHAR 0133
ENCODING 307
SWIDTH 450 0
DWIDTH 5 0
BBX 3 9 1 -2
BITMAP
A0
00
A0
A0
A0
A0
A0
20
20
ENDCHAR
STARTCHAR 0138
ENCODING 312
SWIDTH 540 0
DWIDTH 6 0
BBX 4 5 1 0
BITMAP
90
E0
A0
A0
90
ENDCHAR
STARTCHAR 013F
ENCODING 319
SWIDTH 540 0
DWIDTH 6 0
BBX 4 7 1 0
BITMAP
80
80
80
B0
80
80
F0
ENDCHAR
STARTCHAR 0140
ENCODING 320
SWIDTH 450 0
DWIDTH 5 0
BBX 3 7 1 0
BITMAP
80
80
80
A0
80
80
80
ENDCHAR
STARTCHAR 0141
ENCODING 321
SWIDTH 720 0
DWIDTH 8 0
BBX 6 7 1 0
BITMAP
20
30
20
40
A0
20
3C
ENDCHAR
STARTCHAR 0142
ENCODING 322
SWIDTH 450 0
DWIDTH 5 0
BBX 3 7 1 0
BITMAP
40
40
60
40
C0
40
40
ENDCHAR
STARTCHAR 0149
ENCODING 329
SWIDTH 720 0
DWIDTH 8 0
BBX 6 7 1 0
BITMAP
80
98
A4
44
44
44
44
ENDCHAR
STARTCHAR 014A
ENCODING 330
SWIDTH 720 0
DWIDTH 8 0
BBX 6 9 1 -2
BITMAP
84
C4
A4
A4
94
8C
8C
24
1C
ENDCHAR
STARTCHAR 014B
ENCODING 331
SWIDTH 630 0
DWIDTH 7 0
BBX 5 7 1 -2
BITMAP
F0
88
88
88
88
08
30
ENDCHAR
STARTCHAR 0152
ENCODING 338
SWIDTH 900 0
DWIDTH 10 0
BBX 8 7 1 0
BITMAP
7F
90
90
8F
90
90
7F
ENDCHAR
STARTCHAR 0153
ENCODING 339
SWIDTH 900 0
DWIDTH 10 0
BBX 10 7 0 -1
BITMAP
3B80
4640
8440
87C0
8400
4400
3BC0
ENDCHAR
STARTCHAR 0166
ENCODING 358
SWIDTH 630 0
DWIDTH 7 0
BBX 5 7 1 0
BITMAP
F8
20
20
70
20
20
20
ENDCHAR
STARTCHAR 0167
ENCODING 359
SWIDTH 450 0
DWIDTH 5 0
BBX 3 8 1 -1
BITMAP
40
40
40
E0
40
40
40
20
ENDCHAR
STARTCHAR 02BC
ENCODING 700
SWIDTH 180 0
DWIDTH 2 0
BBX 2 2 0 5
BITMAP
C0
40
ENDCHAR
STARTCHAR 02C7
ENCODING 711
SWIDTH 540 0
DWIDTH 6 0
BBX 4 2 1 6
BITMAP
B0
40
ENDCHAR
STARTCHAR 02D0
ENCODING 720
SWIDTH 900 0
DWIDTH 10 0
BBX 1 4 5 1
BITMAP
80
00
00
80
ENDCHAR
STARTCHAR 02D8
ENCODING 728
SWIDTH 540 0
DWIDTH 6 0
BBX 3 2 2 6
BITMAP
20
C0
ENDCHAR
STARTCHAR 02D9
ENCODING 729
SWIDTH 270 0
DWIDTH 3 0
BBX 1 2 1 6
BITMAP
80
80
ENDCHAR
STARTCHAR 02DA
ENCODING 730
SWIDTH 360 0
DWIDTH 4 0
BBX 2 2 1 6
BITMAP
C0
C0
ENDCHAR
STARTCHAR 02DB
ENCODING 731
SWIDTH 270 0
DWIDTH 3 0
BBX 1 2 1 -2
BITMAP
80
80
ENDCHAR
STARTCHAR 02DC
ENCODING 732
SWIDTH 900 0
DWIDTH 10 0
BBX 5 1 3 7
BITMAP
F8
ENDCHAR
STARTCHAR 02DD
ENCODING 733
SWIDTH 450 0
DWIDTH 5 0
BBX 3 2 1 6
BITMAP
A0
A0
ENDCHAR
STARTCHAR 0391
ENCODING 913
SWIDTH 720 0
DWIDTH 8 0
BBX 6 7 1 0
BITMAP
30
30
48
48
78
84
84
ENDCHAR
STARTCHAR 0392
ENCODING 914
SWIDTH 630 0
DWIDTH 7 0
BBX 6 7 1 0
BITMAP
F8
84
88
F8
84
84
F8
ENDCHAR
STARTCHAR 0393
ENCODING 915
SWIDTH 630 0
DWIDTH 7 0
BBX 5 7 1 0
BITMAP
F8
80
80
80
80
80
80
ENDCHAR
STARTCHAR 0394
ENCODING 916
SWIDTH 720 0
DWIDTH 8 0
BBX 6 7 1 0
BITMAP
30
30
48
48
48
84
FC
ENDCHAR
STARTCHAR 0395
ENCODING 917
SWIDTH 630 0
DWIDTH 7 0
BBX 5 7 1 0
BITMAP
F0
80
80
F8
80
80
F0
ENDCHAR
STARTCHAR 0396
ENCODING 918
SWIDTH 630 0
DWIDTH 7 0
BBX 5 7 1 0
BITMAP
F8
08
10
20
40
40
F8
ENDCHAR
STARTCHAR 0397
ENCODING 919
SWIDTH 630 0
DWIDTH 7 0
BBX 6 7 1 0
BITMAP
84
84
84
FC
84
84
84
ENDCHAR
STARTCHAR 0398
ENCODING 920
SWIDTH 720 0
DWIDTH 8 0
BBX 7 9 1 -1
BITMAP
30
4C
84
82
FA
82
84
4C
30
ENDCHAR
STARTCHAR 0399
ENCODING 921
SWIDTH 270 0
DWIDTH 3 0
BBX 1 7 1 0
BITMAP
80
80
80
80
80
80
80
ENDCHAR
STARTCHAR 039A
ENCODING 922
SWIDTH 630 0
DWIDTH 7 0
BBX 5 7 1 0
BITMAP
88
90
A0
E0
90
90
88
ENDCHAR
STARTCHAR 039B
ENCODING 923
SWIDTH 720 0
DWIDTH 8 0
BBX 6 7 1 0
BITMAP
30
30
48
48
48
84
84
ENDCHAR
STARTCHAR 039C
ENCODING 924
SWIDTH 810 0
DWIDTH 9 0
BBX 7 7 1 0
BITMAP
82
C6
C6
CA
AA
AA
92
ENDCHAR
STARTCHAR 039D
ENCODING 925
SWIDTH 720 0
DWIDTH 8 0
BBX 6 7 1 0
BITMAP
84
C4
A4
A4
94
8C
8C
ENDCHAR
STARTCHAR 039E
ENCODING 926
SWIDTH 630 0
DWIDTH 7 0
BBX 5 7 1 0
BITMAP
F8
00
00
78
00
00
F8
ENDCHAR
STARTCHAR 039F
ENCODING 927
SWIDTH 720 0
DWIDTH 8 0
BBX 7 9 1 -1
BITMAP
30
4C
84
82
82
82
84
4C
30
ENDCHAR
STARTCHAR 03A0
ENCODING 928
SWIDTH 630 0
DWIDTH 7 0
BBX 5 7 1 0
BITMAP
F8
88
88
88
88
88
88
ENDCHAR
STARTCHAR 03A1
ENCODING 929
SWIDTH 630 0
DWIDTH 7 0
BBX 5 7 1 0
BITMAP
F8
88
88
F8
80
80
80
ENDCHAR
STARTCHAR 03A3
ENCODING 931
SWIDTH 630 0
DWIDTH 7 0
BBX 5 7 1 0
BITMAP
F8
40
40
20
40
80
F8
ENDCHAR
STARTCHAR 03A4
ENCODING 932
SWIDTH 630 0
DWIDTH 7 0
BBX 5 7 1 0
BITMAP
F8
20
20
20
20
20
20
ENDCHAR
STARTCHAR 03A5
ENCODING 933
SWIDTH 720 0
DWIDTH 8 0
BBX 6 7 1 0
BITMAP
84
48
50
30
20
20
20
ENDCHAR
STARTCHAR 03A6
ENCODING 934
SWIDTH 720 0
DWIDTH 8 0
BBX 7 7 1 0
BITMAP
10
7C
92
92
92
6C
10
ENDCHAR
STARTCHAR 03A7
ENCODING 935
SWIDTH 630 0
DWIDTH 7 0
BBX 5 7 1 0
BITMAP
88
48
30
20
50
48
88
ENDCHAR
STARTCHAR 03A8
ENCODING 936
SWIDTH 810 0
DWIDTH 9 0
BBX 7 7 1 0
BITMAP
92
94
94
94
7C
10
10
ENDCHAR
STARTCHAR 03A9
ENCODING 937
SWIDTH 720 0
DWIDTH 8 0
BBX 6 8 1 0
BITMAP
30
C8
84
84
84
C8
30
FC
ENDCHAR
STARTCHAR 03B1
ENCODING 945
SWIDTH 450 0
DWIDTH 5 0
BBX 5 6 0 -1
BITMAP
78
90
90
90
90
68
ENDCHAR
STARTCHAR 03B2
ENCODING 946
SWIDTH 450 0
DWIDTH 5 0
BBX 5 10 0 -2
BITMAP
20
D0
88
90
B0
88
88
88
F0
80
ENDCHAR
STARTCHAR 03B3
ENCODING 947
SWIDTH 450 0
DWIDTH 5 0
BBX 4 7 0 -2
BITMAP
90
50
20
60
50
50
70
ENDCHAR
STARTCHAR 03B4
ENCODING 948
SWIDTH 450 0
DWIDTH 5 0
BBX 5 9 0 -1
BITMAP
20
50
40
20
D0
88
88
90
60
ENDCHAR
STARTCHAR 03B5
ENCODING 949
SWIDTH 450 0
DWIDTH 5 0
BBX 5 6 0 -1
BITMAP
70
80
60
80
98
60
ENDCHAR
STARTCHAR 03B6
ENCODING 950
SWIDTH 450 0
DWIDTH 5 0
BBX 5 9 0 -2
BITMAP
70
20
40
40
80
80
70
08
30
ENDCHAR
STARTCHAR 03B7
ENCODING 951
SWIDTH 450 0
DWIDTH 5 0
BBX 4 6 0 -1
BITMAP
F0
90
90
90
90
10
ENDCHAR
STARTCHAR 03B8
ENCODING 952
SWIDTH 450 0
DWIDTH 5 0
BBX 5 9 0 -1
BITMAP
20
50
88
88
F8
88
88
50
20
ENDCHAR
STARTCHAR 03B9
ENCODING 953
SWIDTH 450 0
DWIDTH 5 0
BBX 3 6 1 -1
BITMAP
80
80
80
80
A0
40
ENDCHAR
STARTCHAR 03BA
ENCODING 954
SWIDTH 450 0
DWIDTH 5 0
BBX 4 5 0 0
BITMAP
90
A0
E0
90
90
ENDCHAR
STARTCHAR 03BB
ENCODING 955
SWIDTH 450 0
DWIDTH 5 0
BBX 5 9 0 -1
BITMAP
80
40
40
40
40
60
60
A0
18
ENDCHAR
STARTCHAR 03BC
ENCODING 956
SWIDTH 450 0
DWIDTH 5 0
BBX 5 7 0 -2
BITMAP
88
88
88
88
98
E0
80
ENDCHAR
STARTCHAR 03BD
ENCODING 957
SWIDTH 450 0
DWIDTH 5 0
BBX 4 5 1 0
BITMAP
90
A0
A0
A0
40
ENDCHAR
STARTCHAR 03BE
ENCODING 958
SWIDTH 450 0
DWIDTH 5 0
BBX 4 9 0 -2
BITMAP
60
40
20
40
80
80
60
10
30
ENDCHAR
STARTCHAR 03BF
ENCODING 959
SWIDTH 450 0
DWIDTH 5 0
BBX 5 6 0 -1
BITMAP
70
88
88
88
50
20
ENDCHAR
STARTCHAR 03C0
ENCODING 960
SWIDTH 450 0
DWIDTH 5 0
BBX 5 6 0 -1
BITMAP
70
50
50
50
58
90
ENDCHAR
STARTCHAR 03C1
ENCODING 961
SWIDTH 450 0
DWIDTH 5 0
BBX 5 7 0 -2
BITMAP
70
88
88
88
D0
A0
80
ENDCHAR
STARTCHAR 03C3
ENCODING 963
SWIDTH 450 0
DWIDTH 5 0
BBX 5 7 0 -1
BITMAP
38
50
88
88
88
50
20
ENDCHAR
STARTCHAR 03C4
ENCODING 964
SWIDTH 450 0
DWIDTH 5 0
BBX 3 6 1 -1
BITMAP
E0
40
40
40
60
40
ENDCHAR
STARTCHAR 03C5
ENCODING 965
SWIDTH 450 0
DWIDTH 5 0
BBX 5 6 0 -1
BITMAP
90
88
88
88
90
60
ENDCHAR
STARTCHAR 03C6
ENCODING 966
SWIDTH 450 0
DWIDTH 5 0
BBX 5 9 0 -2
BITMAP
20
20
70
A8
A8
A8
B0
60
20
ENDCHAR
STARTCHAR 03C7
ENCODING 967
SWIDTH 450 0
DWIDTH 5 0
BBX 5 7 0 -2
BITMAP
50
30
20
20
60
50
98
ENDCHAR
STARTCHAR 03C8
ENCODING 968
SWIDTH 450 0
DWIDTH 5 0
BBX 5 7 0 -2
BITMAP
A8
A8
A8
A8
A8
70
20
ENDCHAR
STARTCHAR 03C9
ENCODING 969
SWIDTH 450 0
DWIDTH 5 0
BBX 5 6 0 -1
BITMAP
90
A8
A8
A8
A8
50
ENDCHAR
STARTCHAR 0401
ENCODING 1025
SWIDTH 630 0
DWIDTH 7 0
BBX 5 9 1 0
BITMAP
50
78
80
80
80
F8
80
80
F8
ENDCHAR
STARTCHAR 0410
ENCODING 1040
SWIDTH 720 0
DWIDTH 8 0
BBX 6 7 1 0
BITMAP
30
30
48
48
78
84
84
ENDCHAR
STARTCHAR 0411
ENCODING 1041
SWIDTH 720 0
DWIDTH 8 0
BBX 6 7 1 0
BITMAP
F8
80
80
F8
84
84
FC
ENDCHAR
STARTCHAR 0412
ENCODING 1042
SWIDTH 720 0
DWIDTH 8 0
BBX 6 7 1 0
BITMAP
F8
84
88
F8
84
84
FC
ENDCHAR
STARTCHAR 0413
ENCODING 1043
SWIDTH 630 0
DWIDTH 7 0
BBX 4 7 1 0
BITMAP
F0
80
80
80
80
80
80
ENDCHAR
STARTCHAR 0414
ENCODING 1044
SWIDTH 810 0
DWIDTH 9 0
BBX 7 8 1 -2
BITMAP
3C
24
24
24
44
44
44
BA
ENDCHAR
STARTCHAR 0415
ENCODING 1045
SWIDTH 630 0
DWIDTH 7 0
BBX 5 7 1 0
BITMAP
F0
80
80
F8
80
80
F8
ENDCHAR
STARTCHAR 0416
ENCODING 1046
SWIDTH 900 0
DWIDTH 10 0
BBX 9 9 0 -1
BITMAP
C080
2900
2A00
1A00
1E00
1A00
1A00
2900
C080
ENDCHAR
STARTCHAR 0417
ENCODING 1047
SWIDTH 630 0
DWIDTH 7 0
BBX 5 9 1 -1
BITMAP
60
90
88
10
30
08
88
98
60
ENDCHAR
STARTCHAR 0418
ENCODING 1048
SWIDTH 720 0
DWIDTH 8 0
BBX 6 7 1 0
BITMAP
84
8C
94
A4
A4
C4
84
ENDCHAR
STARTCHAR 0419
ENCODING 1049
SWIDTH 720 0
DWIDTH 8 0
BBX 6 9 1 0
BITMAP
48
20
84
8C
94
A4
A4
C4
84
ENDCHAR
STARTCHAR 041A
ENCODING 1050
SWIDTH 630 0
DWIDTH 7 0
BBX 5 7 1 0
BITMAP
88
90
A0
E0
90
90
88
ENDCHAR
STARTCHAR 041B
ENCODING 1051
SWIDTH 720 0
DWIDTH 8 0
BBX 6 8 1 -1
BITMAP
7C
44
44
44
44
44
44
80
ENDCHAR
STARTCHAR 041C
ENCODING 1052
SWIDTH 810 0
DWIDTH 9 0
BBX 7 7 1 0
BITMAP
82
C6
C6
AA
AA
AA
92
ENDCHAR
STARTCHAR 041D
ENCODING 1053
SWIDTH 630 0
DWIDTH 7 0
BBX 5 7 1 0
BITMAP
88
88
88
F8
88
88
88
ENDCHAR
STARTCHAR 041E
ENCODING 1054
SWIDTH 720 0
DWIDTH 8 0
BBX 7 9 1 -1
BITMAP
30
4C
84
82
82
82
84
4C
30
ENDCHAR
STARTCHAR 041F
ENCODING 1055
SWIDTH 630 0
DWIDTH 7 0
BBX 5 7 1 0
BITMAP
F8
88
88
88
88
88
88
ENDCHAR
STARTCHAR 0420
ENCODING 1056
SWIDTH 630 0
DWIDTH 7 0
BBX 5 7 1 0
BITMAP
F8
88
88
F8
80
80
80
ENDCHAR
STARTCHAR 0421
ENCODING 1057
SWIDTH 720 0
DWIDTH 8 0
BBX 6 9 1 -1
BITMAP
30
4C
84
80
80
80
84
4C
30
ENDCHAR
STARTCHAR 0422
ENCODING 1058
SWIDTH 630 0
DWIDTH 7 0
BBX 5 7 1 0
BITMAP
F8
20
20
20
20
20
20
ENDCHAR
STARTCHAR 0423
ENCODING 1059
SWIDTH 540 0
DWIDTH 6 0
BBX 4 7 1 0
BITMAP
90
90
50
60
20
20
40
ENDCHAR
STARTCHAR 0424
ENCODING 1060
SWIDTH 720 0
DWIDTH 8 0
BBX 6 7 1 0
BITMAP
30
5C
94
94
94
5C
30
ENDCHAR
STARTCHAR 0425
ENCODING 1061
SWIDTH 720 0
DWIDTH 8 0
BBX 6 7 1 0
BITMAP
88
48
30
20
30
48
8C
ENDCHAR
STARTCHAR 0426
ENCODING 1062
SWIDTH 810 0
DWIDTH 9 0
BBX 7 9 1 -2
BITMAP
84
84
84
84
84
84
84
7C
02
ENDCHAR
STARTCHAR 0427
ENCODING 1063
SWIDTH 540 0
DWIDTH 6 0
BBX 4 7 1 0
BITMAP
90
90
90
90
90
70
10
ENDCHAR
STARTCHAR 0428
ENCODING 1064
SWIDTH 810 0
DWIDTH 9 0
BBX 7 7 1 0
BITMAP
92
92
92
92
92
92
FE
ENDCHAR
STARTCHAR 0429
ENCODING 1065
SWIDTH 810 0
DWIDTH 9 0
BBX 7 8 1 -2
BITMAP
92
92
92
92
92
92
92
6E
ENDCHAR
STARTCHAR 042A
ENCODING 1066
SWIDTH 720 0
DWIDTH 8 0
BBX 7 7 1 0
BITMAP
C0
40
40
7C
42
42
7C
ENDCHAR
STARTCHAR 042B
ENCODING 1067
SWIDTH 810 0
DWIDTH 9 0
BBX 7 7 1 0
BITMAP
82
82
82
F2
8A
8A
FA
ENDCHAR
STARTCHAR 042C
ENCODING 1068
SWIDTH 720 0
DWIDTH 8 0
BBX 6 7 1 0
BITMAP
80
80
80
F8
84
84
F8
ENDCHAR
STARTCHAR 042D
ENCODING 1069
SWIDTH 720 0
DWIDTH 8 0
BBX 6 9 1 -1
BITMAP
30
C8
84
04
3C
04
84
C8
30
ENDCHAR
STARTCHAR 042E
ENCODING 1070
SWIDTH 810 0
DWIDTH 9 0
BBX 8 9 1 -1
BITMAP
0C
92
A2
A1
E1
A1
A2
92
0C
ENDCHAR
STARTCHAR 042F
ENCODING 1071
SWIDTH 630 0
DWIDTH 7 0
BBX 6 7 1 0
BITMAP
FC
84
84
7C
84
84
84
ENDCHAR
STARTCHAR 0430
ENCODING 1072
SWIDTH 630 0
DWIDTH 7 0
BBX 5 6 1 -1
BITMAP
F0
88
78
88
98
60
ENDCHAR
STARTCHAR 0431
ENCODING 1073
SWIDTH 630 0
DWIDTH 7 0
BBX 5 8 1 0
BITMAP
30
60
90
88
88
88
98
60
ENDCHAR
STARTCHAR 0432
ENCODING 1074
SWIDTH 630 0
DWIDTH 7 0
BBX 5 5 1 0
BITMAP
F8
88
F0
88
F8
ENDCHAR
STARTCHAR 0433
ENCODING 1075
SWIDTH 540 0
DWIDTH 6 0
BBX 4 5 1 0
BITMAP
F0
80
80
80
80
ENDCHAR
STARTCHAR 0434
ENCODING 1076
SWIDTH 720 0
DWIDTH 8 0
BBX 8 7 0 -2
BITMAP
3E
22
22
22
42
FE
81
ENDCHAR
STARTCHAR 0435
ENCODING 1077
SWIDTH 540 0
DWIDTH 6 0
BBX 5 6 1 -1
BITMAP
F0
88
F8
80
90
60
ENDCHAR
STARTCHAR 0436
ENCODING 1078
SWIDTH 810 0
DWIDTH 9 0
BBX 7 6 1 -1
BITMAP
D4
58
38
58
54
82
ENDCHAR
STARTCHAR 0437
ENCODING 1079
SWIDTH 630 0
DWIDTH 7 0
BBX 5 6 1 -1
BITMAP
F0
88
30
08
88
70
ENDCHAR
STARTCHAR 0438
ENCODING 1080
SWIDTH 540 0
DWIDTH 6 0
BBX 5 5 1 0
BITMAP
88
98
A8
C8
88
ENDCHAR
STARTCHAR 0439
ENCODING 1081
SWIDTH 540 0
DWIDTH 6 0
BBX 5 7 1 0
BITMAP
F0
00
88
98
A8
C8
88
ENDCHAR
STARTCHAR 043A
ENCODING 1082
SWIDTH 540 0
DWIDTH 6 0
BBX 4 5 1 0
BITMAP
B0
C0
A0
A0
90
ENDCHAR
STARTCHAR 043B
ENCODING 1083
SWIDTH 630 0
DWIDTH 7 0
BBX 6 5 1 -1
BITMAP
7C
44
44
44
84
ENDCHAR
STARTCHAR 043C
ENCODING 1084
SWIDTH 810 0
DWIDTH 9 0
BBX 7 5 1 0
BITMAP
86
C6
CA
AA
B2
ENDCHAR
STARTCHAR 043D
ENCODING 1085
SWIDTH 630 0
DWIDTH 7 0
BBX 5 5 1 0
BITMAP
88
88
F8
88
88
ENDCHAR
STARTCHAR 043E
ENCODING 1086
SWIDTH 630 0
DWIDTH 7 0
BBX 5 6 1 -1
BITMAP
F0
88
88
88
90
60
ENDCHAR
STARTCHAR 043F
ENCODING 1087
SWIDTH 630 0
DWIDTH 7 0
BBX 5 5 1 0
BITMAP
F8
88
88
88
88
ENDCHAR
STARTCHAR 0440
ENCODING 1088
SWIDTH 630 0
DWIDTH 7 0
BBX 5 7 1 -2
BITMAP
F0
88
88
88
90
E0
80
ENDCHAR
STARTCHAR 0441
ENCODING 1089
SWIDTH 540 0
DWIDTH 6 0
BBX 4 6 1 -1
BITMAP
F0
80
80
80
90
60
ENDCHAR
STARTCHAR 0442
ENCODING 1090
SWIDTH 630 0
DWIDTH 7 0
BBX 4 5 1 0
BITMAP
F0
20
20
20
20
ENDCHAR
STARTCHAR 0443
ENCODING 1091
SWIDTH 540 0
DWIDTH 6 0
BBX 4 7 1 -2
BITMAP
90
90
50
60
20
20
40
ENDCHAR
STARTCHAR 0444
ENCODING 1092
SWIDTH 810 0
DWIDTH 9 0
BBX 7 9 1 -2
BITMAP
10
38
D4
92
92
92
94
78
10
ENDCHAR
STARTCHAR 0445
ENCODING 1093
SWIDTH 630 0
DWIDTH 7 0
BBX 4 5 1 0
BITMAP
90
60
20
50
90
ENDCHAR
STARTCHAR 0446
ENCODING 1094
SWIDTH 630 0
DWIDTH 7 0
BBX 6 7 1 -2
BITMAP
88
88
88
88
88
78
04
ENDCHAR
STARTCHAR 0447
ENCODING 1095
SWIDTH 540 0
DWIDTH 6 0
BBX 4 5 1 0
BITMAP
90
90
90
F0
10
ENDCHAR
STARTCHAR 0448
ENCODING 1096
SWIDTH 720 0
DWIDTH 8 0
BBX 6 5 1 0
BITMAP
94
94
94
94
FC
ENDCHAR
STARTCHAR 0449
ENCODING 1097
SWIDTH 810 0
DWIDTH 9 0
BBX 7 6 1 -2
BITMAP
A4
A4
A4
A4
A4
5A
ENDCHAR
STARTCHAR 044A
ENCODING 1098
SWIDTH 630 0
DWIDTH 7 0
BBX 6 5 1 0
BITMAP
C0
40
78
44
7C
ENDCHAR
STARTCHAR 044B
ENCODING 1099
SWIDTH 720 0
DWIDTH 8 0
BBX 6 5 1 0
BITMAP
84
84
F4
94
F4
ENDCHAR
STARTCHAR 044C
ENCODING 1100
SWIDTH 540 0
DWIDTH 6 0
BBX 4 5 1 0
BITMAP
80
80
F0
90
F0
ENDCHAR
STARTCHAR 044D
ENCODING 1101
SWIDTH 540 0
DWIDTH 6 0
BBX 5 6 1 -1
BITMAP
F0
08
78
08
90
60
ENDCHAR
STARTCHAR 044E
ENCODING 1102
SWIDTH 810 0
DWIDTH 9 0
BBX 7 6 1 -1
BITMAP
BC
A2
E2
A2
A2
1C
ENDCHAR
STARTCHAR 044F
ENCODING 1103
SWIDTH 540 0
DWIDTH 6 0
BBX 5 5 1 0
BITMAP
F8
88
F8
88
88
ENDCHAR
STARTCHAR 0451
ENCODING 1105
SWIDTH 540 0
DWIDTH 6 0
BBX 5 8 1 -1
BITMAP
40
20
D0
88
F8
80
90
60
ENDCHAR
STARTCHAR 1100
ENCODING 4352
SWIDTH 900 0
DWIDTH 10 0
BBX 5 5 3 1
BITMAP
F8
08
08
08
08
ENDCHAR
STARTCHAR 1101
ENCODING 4353
SWIDTH 900 0
DWIDTH 10 0
BBX 6 5 2 1
BITMAP
FC
24
24
24
24
ENDCHAR
STARTCHAR 1102
ENCODING 4354
SWIDTH 900 0
DWIDTH 10 0
BBX 5 4 3 2
BITMAP
80
80
80
F8
ENDCHAR
STARTCHAR 1103
ENCODING 4355
SWIDTH 900 0
DWIDTH 10 0
BBX 6 5 2 1
BITMAP
7C
80
80
80
7C
ENDCHAR
STARTCHAR 1104
ENCODING 4356
SWIDTH 900 0
DWIDTH 10 0
BBX 7 5 2 1
BITMAP
FC
90
90
90
FE
ENDCHAR
STARTCHAR 1105
ENCODING 4357
SWIDTH 900 0
DWIDTH 10 0
BBX 6 5 2 1
BITMAP
FC
04
7C
80
FC
ENDCHAR
STARTCHAR 1106
ENCODING 4358
SWIDTH 900 0
DWIDTH 10 0
BBX 5 5 3 1
BITMAP
F0
88
88
88
F8
ENDCHAR
STARTCHAR 1107
ENCODING 4359
SWIDTH 900 0
DWIDTH 10 0
BBX 5 5 3 1
BITMAP
08
88
F8
88
F8
ENDCHAR
STARTCHAR 1108
ENCODING 4360
SWIDTH 900 0
DWIDTH 10 0
BBX 6 5 2 1
BITMAP
B0
B4
FC
B4
EC
ENDCHAR
STARTCHAR 1109
ENCODING 4361
SWIDTH 900 0
DWIDTH 10 0
BBX 6 5 2 1
BITMAP
10
10
30
28
C4
ENDCHAR
STARTCHAR 110A
ENCODING 4362
SWIDTH 900 0
DWIDTH 10 0
BBX 7 5 2 1
BITMAP
08
48
68
96
20
ENDCHAR
STARTCHAR 110B
ENCODING 4363
SWIDTH 900 0
DWIDTH 10 0
BBX 6 5 2 1
BITMAP
78
44
84
84
78
ENDCHAR
STARTCHAR 110C
ENCODING 4364
SWIDTH 900 0
DWIDTH 10 0
BBX 7 5 2 1
BITMAP
FC
08
10
38
C6
ENDCHAR
STARTCHAR 110D
ENCODING 4365
SWIDTH 900 0
DWIDTH 10 0
BBX 8 5 1 1
BITMAP
7E
12
24
5E
89
ENDCHAR
STARTCHAR 110E
ENCODING 4366
SWIDTH 900 0
DWIDTH 10 0
BBX 6 5 2 1
BITMAP
30
FC
08
30
CC
ENDCHAR
STARTCHAR 110F
ENCODING 4367
SWIDTH 900 0
DWIDTH 10 0
BBX 5 5 3 1
BITMAP
F8
08
F8
08
08
ENDCHAR
STARTCHAR 1110
ENCODING 4368
SWIDTH 900 0
DWIDTH 10 0
BBX 6 5 2 1
BITMAP
7C
80
FC
80
FC
ENDCHAR
STARTCHAR 1111
ENCODING 4369
SWIDTH 900 0
DWIDTH 10 0
BBX 6 5 2 1
BITMAP
FC
48
48
48
FC
ENDCHAR
STARTCHAR 1112
ENCODING 4370
SWIDTH 900 0
DWIDTH 10 0
BBX 6 6 2 0
BITMAP
38
FC
78
44
48
30
ENDCHAR
STARTCHAR 115F
ENCODING 4447
SWIDTH 0 0
DWIDTH 0 0
BBX 0 0 0 0
BITMAP
ENDCHAR
STARTCHAR 1160
ENCODING 4448
SWIDTH 0 0
DWIDTH 0 0
BBX 0 0 0 0
BITMAP
ENDCHAR
STARTCHAR 1161
ENCODING 4449
SWIDTH 900 0
DWIDTH 10 0
BBX 2 11 4 -2
BITMAP
80
80
80
80
80
C0
80
80
80
80
80
ENDCHAR
STARTCHAR 1162
ENCODING 4450
SWIDTH 900 0
DWIDTH 10 0
BBX 4 11 3 -2
BITMAP
10
90
90
90
90
F0
90
90
90
90
10
ENDCHAR
STARTCHAR 1163
ENCODING 4451
SWIDTH 900 0
DWIDTH 10 0
BBX 2 11 4 -2
BITMAP
80
80
80
C0
80
80
C0
80
80
80
80
ENDCHAR
STARTCHAR 1164
ENCODING 4452
SWIDTH 900 0
DWIDTH 10 0
BBX 4 11 3 -2
BITMAP
10
90
90
F0
90
90
F0
90
90
90
10
ENDCHAR
STARTCHAR 1165
ENCODING 4453
SWIDTH 900 0
DWIDTH 10 0
BBX 3 11 4 -2
BITMAP
20
20
20
20
20
E0
20
20
20
20
20
ENDCHAR
STARTCHAR 1166
ENCODING 4454
SWIDTH 900 0
DWIDTH 10 0
BBX 4 9 3 -1
BITMAP
30
30
30
B0
30
30
30
30
30
ENDCHAR
STARTCHAR 1167
ENCODING 4455
SWIDTH 900 0
DWIDTH 10 0
BBX 3 11 4 -2
BITMAP
20
20
20
E0
20
20
E0
20
20
20
20
ENDCHAR
STARTCHAR 1168
ENCODING 4456
SWIDTH 900 0
DWIDTH 10 0
BBX 4 9 3 -1
BITMAP
30
30
F0
30
30
D0
30
30
30
ENDCHAR
STARTCHAR 1169
ENCODING 4457
SWIDTH 900 0
DWIDTH 10 0
BBX 8 4 1 1
BITMAP
08
08
08
FF
ENDCHAR
STARTCHAR 116A
ENCODING 4458
SWIDTH 900 0
DWIDTH 10 0
BBX 8 11 2 -2
BITMAP
04
04
04
04
44
47
44
7C
84
04
04
ENDCHAR
STARTCHAR 116B
ENCODING 4459
SWIDTH 900 0
DWIDTH 10 0
BBX 9 11 1 -2
BITMAP
0080
0280
0280
0280
2280
2380
2280
FA80
0280
0280
0080
ENDCHAR
STARTCHAR 116C
ENCODING 4460
SWIDTH 900 0
DWIDTH 10 0
BBX 7 10 2 -2
BITMAP
02
02
02
02
22
22
22
3E
C2
02
ENDCHAR
STARTCHAR 116D
ENCODING 4461
SWIDTH 900 0
DWIDTH 10 0
BBX 8 4 1 1
BITMAP
24
24
24
FF
ENDCHAR
STARTCHAR 116E
ENCODING 4462
SWIDTH 900 0
DWIDTH 10 0
BBX 10 5 0 0
BITMAP
FFC0
0400
0400
0400
0400
ENDCHAR
STARTCHAR 116F
ENCODING 4463
SWIDTH 900 0
DWIDTH 10 0
BBX 8 9 1 -1
BITMAP
01
01
01
01
FF
11
17
11
11
ENDCHAR
STARTCHAR 1170
ENCODING 4464
SWIDTH 900 0
DWIDTH 10 0
BBX 9 11 1 -2
BITMAP
0080
0280
0280
0280
0280
FA80
2280
2E80
2280
2280
0080
ENDCHAR
STARTCHAR 1171
ENCODING 4465
SWIDTH 900 0
DWIDTH 10 0
BBX 8 9 1 -1
BITMAP
01
01
01
01
FF
11
11
11
11
ENDCHAR
STARTCHAR 1172
ENCODING 4466
SWIDTH 900 0
DWIDTH 10 0
BBX 10 5 0 0
BITMAP
FFC0
1200
1200
1200
1200
ENDCHAR
STARTCHAR 1173
ENCODING 4467
SWIDTH 900 0
DWIDTH 10 0
BBX 8 1 1 2
BITMAP
FF
ENDCHAR
STARTCHAR 1174
ENCODING 4468
SWIDTH 900 0
DWIDTH 10 0
BBX 8 9 1 -1
BITMAP
01
01
01
01
01
01
FD
01
01
ENDCHAR
STARTCHAR 1175
ENCODING 4469
SWIDTH 900 0
DWIDTH 10 0
BBX 1 11 5 -2
BITMAP
80
80
80
80
80
80
80
80
80
80
80
ENDCHAR
STARTCHAR 11A8
ENCODING 4520
SWIDTH 900 0
DWIDTH 10 0
BBX 5 5 3 1
BITMAP
F8
08
08
08
08
ENDCHAR
STARTCHAR 11A9
ENCODING 4521
SWIDTH 900 0
DWIDTH 10 0
BBX 6 5 2 1
BITMAP
FC
24
24
24
24
ENDCHAR
STARTCHAR 11AA
ENCODING 4522
SWIDTH 900 0
DWIDTH 10 0
BBX 8 5 1 1
BITMAP
E4
14
14
16
19
ENDCHAR
STARTCHAR 11AB
ENCODING 4523
SWIDTH 900 0
DWIDTH 10 0
BBX 5 4 3 2
BITMAP
80
80
80
F8
ENDCHAR
STARTCHAR 11AC
ENCODING 4524
SWIDTH 900 0
DWIDTH 10 0
BBX 8 5 1 1
BITMAP
8E
82
82
86
E9
ENDCHAR
STARTCHAR 11AD
ENCODING 4525
SWIDTH 900 0
DWIDTH 10 0
BBX 7 5 2 1
BITMAP
1C
BE
9C
92
FC
ENDCHAR
STARTCHAR 11AE
ENCODING 4526
SWIDTH 900 0
DWIDTH 10 0
BBX 6 5 2 1
BITMAP
7C
80
80
80
7C
ENDCHAR
STARTCHAR 11AF
ENCODING 4527
SWIDTH 900 0
DWIDTH 10 0
BBX 6 5 2 1
BITMAP
FC
04
7C
80
FC
ENDCHAR
STARTCHAR 11B0
ENCODING 4528
SWIDTH 900 0
DWIDTH 10 0
BBX 6 5 2 1
BITMAP
FC
24
E4
84
E4
ENDCHAR
STARTCHAR 11B1
ENCODING 4529
SWIDTH 900 0
DWIDTH 10 0
BBX 6 5 2 1
BITMAP
EC
34
F4
94
EC
ENDCHAR
STARTCHAR 11B2
ENCODING 4530
SWIDTH 900 0
DWIDTH 10 0
BBX 6 5 2 1
BITMAP
F0
34
FC
94
FC
ENDCHAR
STARTCHAR 11B3
ENCODING 4531
SWIDTH 900 0
DWIDTH 10 0
BBX 8 5 1 1
BITMAP
E4
14
64
86
E9
ENDCHAR
STARTCHAR 11B4
ENCODING 4532
SWIDTH 900 0
DWIDTH 10 0
BBX 6 5 2 1
BITMAP
EC
30
FC
90
FC
ENDCHAR
STARTCHAR 11B5
ENCODING 4533
SWIDTH 900 0
DWIDTH 10 0
BBX 7 5 2 1
BITMAP
FE
2C
EC
8C
FE
ENDCHAR
STARTCHAR 11B6
ENCODING 4534
SWIDTH 900 0
DWIDTH 10 0
BBX 7 5 2 1
BITMAP
EC
3E
EC
12
FC
ENDCHAR
STARTCHAR 11B7
ENCODING 4535
SWIDTH 900 0
DWIDTH 10 0
BBX 5 5 3 1
BITMAP
F0
88
88
88
F8
ENDCHAR
STARTCHAR 11B8
ENCODING 4536
SWIDTH 900 0
DWIDTH 10 0
BBX 5 5 3 1
BITMAP
08
88
F8
88
F8
ENDCHAR
STARTCHAR 11B9
ENCODING 4537
SWIDTH 900 0
DWIDTH 10 0
BBX 7 5 2 1
BITMAP
08
28
C8
34
D2
ENDCHAR
STARTCHAR 11BA
ENCODING 4538
SWIDTH 900 0
DWIDTH 10 0
BBX 6 5 2 1
BITMAP
10
10
30
28
C4
ENDCHAR
STARTCHAR 11BB
ENCODING 4539
SWIDTH 900 0
DWIDTH 10 0
BBX 7 5 2 1
BITMAP
08
48
68
96
20
ENDCHAR
STARTCHAR 11BC
ENCODING 4540
SWIDTH 900 0
DWIDTH 10 0
BBX 6 5 2 1
BITMAP
78
44
84
84
78
ENDCHAR
STARTCHAR 11BD
ENCODING 4541
SWIDTH 900 0
DWIDTH 10 0
BBX 7 5 2 1
BITMAP
FC
08
10
38
C6
ENDCHAR
STARTCHAR 11BE
ENCODING 4542
SWIDTH 900 0
DWIDTH 10 0
BBX 6 5 2 1
BITMAP
30
FC
08
30
CC
ENDCHAR
STARTCHAR 11BF
ENCODING 4543
SWIDTH 900 0
DWIDTH 10 0
BBX 5 5 3 1
BITMAP
F8
08
F8
08
08
ENDCHAR
STARTCHAR 11C0
ENCODING 4544
SWIDTH 900 0
DWIDTH 10 0
BBX 6 5 2 1
BITMAP
7C
80
FC
80
FC
ENDCHAR
STARTCHAR 11C1
ENCODING 4545
SWIDTH 900 0
DWIDTH 10 0
BBX 6 5 2 1
BITMAP
FC
48
48
48
FC
ENDCHAR
STARTCHAR 11C2
ENCODING 4546
SWIDTH 900 0
DWIDTH 10 0
BBX 6 6 2 0
BITMAP
38
FC
78
44
48
30
ENDCHAR
STARTCHAR 2010
ENCODING 8208
SWIDTH 450 0
DWIDTH 5 0
BBX 5 1 0 3
BITMAP
F8
ENDCHAR
STARTCHAR 2013
ENCODING 8211
SWIDTH 450 0
DWIDTH 5 0
BBX 3 1 1 3
BITMAP
E0
ENDCHAR
STARTCHAR 2014
ENCODING 8212
SWIDTH 900 0
DWIDTH 10 0
BBX 9 1 0 3
BITMAP
FF80
ENDCHAR
STARTCHAR 2015
ENCODING 8213
SWIDTH 900 0
DWIDTH 10 0
BBX 9 1 0 3
BITMAP
FF80
ENDCHAR
STARTCHAR 2016
ENCODING 8214
SWIDTH 900 0
DWIDTH 10 0
BBX 2 11 4 -2
BITMAP
C0
C0
C0
C0
C0
C0
C0
C0
C0
C0
C0
ENDCHAR
STARTCHAR 2018
ENCODING 8216
SWIDTH 180 0
DWIDTH 2 0
BBX 2 3 0 5
BITMAP
40
80
40
ENDCHAR
STARTCHAR 2019
ENCODING 8217
SWIDTH 180 0
DWIDTH 2 0
BBX 2 3 0 5
BITMAP
80
40
80
ENDCHAR
STARTCHAR 201B
ENCODING 8219
SWIDTH 180 0
DWIDTH 2 0
BBX 2 3 0 5
BITMAP
C0
80
40
ENDCHAR
STARTCHAR 201C
ENCODING 8220
SWIDTH 360 0
DWIDTH 4 0
BBX 3 3 1 5
BITMAP
A0
C0
E0
ENDCHAR
STARTCHAR 201D
ENCODING 8221
SWIDTH 360 0
DWIDTH 4 0
BBX 3 3 0 5
BITMAP
E0
60
A0
ENDCHAR
STARTCHAR 201F
ENCODING 8223
SWIDTH 360 0
DWIDTH 4 0
BBX 3 3 0 5
BITMAP
E0
A0
40
ENDCHAR
STARTCHAR 2020
ENCODING 8224
SWIDTH 540 0
DWIDTH 6 0
BBX 4 5 1 1
BITMAP
20
F0
20
20
20
ENDCHAR
STARTCHAR 2021
ENCODING 8225
SWIDTH 540 0
DWIDTH 6 0
BBX 4 5 1 1
BITMAP
F0
20
F0
20
20
ENDCHAR
STARTCHAR 2022
ENCODING 8226
SWIDTH 900 0
DWIDTH 10 0
BBX 2 3 4 2
BITMAP
40
C0
C0
ENDCHAR
STARTCHAR 2025
ENCODING 8229
SWIDTH 900 0
DWIDTH 10 0
BBX 6 1 2 3
BITMAP
84
ENDCHAR
STARTCHAR 2026
ENCODING 8230
SWIDTH 900 0
DWIDTH 10 0
BBX 8 1 1 3
BITMAP
89
ENDCHAR
STARTCHAR 2030
ENCODING 8240
SWIDTH 900 0
DWIDTH 10 0
BBX 9 8 1 0
BITMAP
C800
D000
D000
FB00
3680
5680
5B00
8000
ENDCHAR
STARTCHAR 2032
ENCODING 8242
SWIDTH 450 0
DWIDTH 5 0
BBX 1 2 2 5
BITMAP
80
80
ENDCHAR
STARTCHAR 2033
ENCODING 8243
SWIDTH 450 0
DWIDTH 5 0
BBX 3 2 1 5
BITMAP
60
A0
ENDCHAR
STARTCHAR 2034
ENCODING 8244
SWIDTH 900 0
DWIDTH 10 0
BBX 4 3 3 5
BITMAP
B0
D0
40
ENDCHAR
STARTCHAR 2035
ENCODING 8245
SWIDTH 270 0
DWIDTH 3 0
BBX 2 2 0 6
BITMAP
80
40
ENDCHAR
STARTCHAR 2036
ENCODING 8246
SWIDTH 270 0
DWIDTH 3 0
BBX 2 4 0 4
BITMAP
80
40
80
40
ENDCHAR
STARTCHAR 2039
ENCODING 8249
SWIDTH 900 0
DWIDTH 10 0
BBX 8 9 1 -1
BITMAP
01
06
18
20
C0
60
10
0C
02
ENDCHAR
STARTCHAR 203A
ENCODING 8250
SWIDTH 900 0
DWIDTH 10 0
BBX 8 9 1 -1
BITMAP
C0
20
18
06
01
02
0C
30
40
ENDCHAR
STARTCHAR 203B
ENCODING 8251
SWIDTH 900 0
DWIDTH 10 0
BBX 7 7 2 0
BITMAP
B4
48
28
96
30
48
B4
ENDCHAR
STARTCHAR 203C
ENCODING 8252
SWIDTH 900 0
DWIDTH 10 0
BBX 4 9 3 -1
BITMAP
90
90
90
90
90
90
10
00
90
ENDCHAR
STARTCHAR 203E
ENCODING 8254
SWIDTH 900 0
DWIDTH 10 0
BBX 0 0 0 8
BITMAP
ENDCHAR
STARTCHAR 2042
ENCODING 8258
SWIDTH 900 0
DWIDTH 10 0
BBX 8 8 1 -1
BITMAP
04
1C
00
00
02
A7
27
02
ENDCHAR
STARTCHAR 2074
ENCODING 8308
SWIDTH 360 0
DWIDTH 4 0
BBX 2 3 1 5
BITMAP
40
C0
40
ENDCHAR
STARTCHAR 207A
ENCODING 8314
SWIDTH 450 0
DWIDTH 5 0
BBX 1 4 2 4
BITMAP
80
80
80
80
ENDCHAR
STARTCHAR 207B
ENCODING 8315
SWIDTH 450 0
DWIDTH 5 0
BBX 1 1 2 5
BITMAP
80
ENDCHAR
STARTCHAR 207C
ENCODING 8316
SWIDTH 450 0
DWIDTH 5 0
BBX 1 1 2 5
BITMAP
80
ENDCHAR
STARTCHAR 207D
ENCODING 8317
SWIDTH 270 0
DWIDTH 3 0
BBX 1 4 1 3
BITMAP
80
80
80
80
ENDCHAR
STARTCHAR 207E
ENCODING 8318
SWIDTH 270 0
DWIDTH 3 0
BBX 1 3 1 4
BITMAP
80
80
80
ENDCHAR
STARTCHAR 207F
ENCODING 8319
SWIDTH 450 0
DWIDTH 5 0
BBX 2 3 1 5
BITMAP
C0
C0
80
ENDCHAR
STARTCHAR 2081
ENCODING 8321
SWIDTH 360 0
DWIDTH 4 0
BBX 1 2 2 -1
BITMAP
80
80
ENDCHAR
STARTCHAR 2082
ENCODING 8322
SWIDTH 360 0
DWIDTH 4 0
BBX 2 1 1 -1
BITMAP
C0
ENDCHAR
STARTCHAR 2083
ENCODING 8323
SWIDTH 450 0
DWIDTH 5 0
BBX 2 2 1 -1
BITMAP
40
C0
ENDCHAR
STARTCHAR 2084
ENCODING 8324
SWIDTH 360 0
DWIDTH 4 0
BBX 2 2 1 -1
BITMAP
40
C0
ENDCHAR
STARTCHAR 20A9
ENCODING 8361
SWIDTH 990 0
DWIDTH 11 0
BBX 9 9 1 -1
BITMAP
8900
8900
5900
FF80
5500
5600
6600
2200
2200
ENDCHAR
STARTCHAR 20AC
ENCODING 8364
SWIDTH 900 0
DWIDTH 10 0
BBX 6 8 2 -1
BITMAP
3C
40
40
70
F0
40
20
18
ENDCHAR
STARTCHAR 2103
ENCODING 8451
SWIDTH 810 0
DWIDTH 9 0
BBX 7 9 1 -1
BITMAP
C0
DC
22
40
40
42
42
24
1C
ENDCHAR
STARTCHAR 2109
ENCODING 8457
SWIDTH 900 0
DWIDTH 10 0
BBX 7 8 2 0
BITMAP
80
BE
20
20
3C
20
20
20
ENDCHAR
STARTCHAR 2113
ENCODING 8467
SWIDTH 540 0
DWIDTH 6 0
BBX 4 8 1 0
BITMAP
30
50
50
50
60
40
D0
20
ENDCHAR
STARTCHAR 2116
ENCODING 8470
SWIDTH 900 0
DWIDTH 10 0
BBX 9 8 1 -1
BITMAP
9000
9400
DA00
D900
B900
B900
9980
0600
ENDCHAR
STARTCHAR 2121
ENCODING 8481
SWIDTH 900 0
DWIDTH 10 0
BBX 9 8 1 -1
BITMAP
F080
2480
2A80
3280
3E80
3080
3280
0C00
ENDCHAR
STARTCHAR 2122
ENCODING 8482
SWIDTH 900 0
DWIDTH 10 0
BBX 9 4 1 4
BITMAP
F880
4980
4E80
4080
ENDCHAR
STARTCHAR 2126
ENCODING 8486
SWIDTH 720 0
DWIDTH 8 0
BBX 6 8 1 0
BITMAP
70
88
84
84
84
C8
30
FC
ENDCHAR
STARTCHAR 212B
ENCODING 8491
SWIDTH 630 0
DWIDTH 7 0
BBX 5 9 1 -1
BITMAP
70
70
00
20
50
50
78
88
88
ENDCHAR
STARTCHAR 2153
ENCODING 8531
SWIDTH 720 0
DWIDTH 8 0
BBX 6 8 1 0
BITMAP
40
48
10
10
2C
44
84
1C
ENDCHAR
STARTCHAR 2154
ENCODING 8532
SWIDTH 720 0
DWIDTH 8 0
BBX 7 9 1 -1
BITMAP
C0
20
44
C8
10
2C
42
86
0E
ENDCHAR
STARTCHAR 215B
ENCODING 8539
SWIDTH 720 0
DWIDTH 8 0
BBX 6 8 1 0
BITMAP
40
44
08
10
2C
54
9C
1C
ENDCHAR
STARTCHAR 215C
ENCODING 8540
SWIDTH 720 0
DWIDTH 8 0
BBX 7 9 1 -1
BITMAP
C0
20
24
A8
50
2C
4A
8E
0E
ENDCHAR
STARTCHAR 215D
ENCODING 8541
SWIDTH 720 0
DWIDTH 8 0
BBX 7 9 1 -1
BITMAP
C0
C0
24
E8
10
2C
4A
8E
0E
ENDCHAR
STARTCHAR 215E
ENCODING 8542
SWIDTH 720 0
DWIDTH 8 0
BBX 6 9 1 -1
BITMAP
E0
44
48
88
10
2C
54
9C
1C
ENDCHAR
STARTCHAR 2160
ENCODING 8544
SWIDTH 900 0
DWIDTH 10 0
BBX 1 7 5 0
BITMAP
80
80
80
80
80
80
80
ENDCHAR
STARTCHAR 2161
ENCODING 8545
SWIDTH 900 0
DWIDTH 10 0
BBX 4 7 3 0
BITMAP
90
90
90
90
90
90
90
ENDCHAR
STARTCHAR 2162
ENCODING 8546
SWIDTH 900 0
DWIDTH 10 0
BBX 6 7 2 0
BITMAP
94
94
94
94
94
94
94
ENDCHAR
STARTCHAR 2163
ENCODING 8547
SWIDTH 900 0
DWIDTH 10 0
BBX 7 7 2 0
BITMAP
C2
A4
A4
A4
98
98
98
ENDCHAR
STARTCHAR 2164
ENCODING 8548
SWIDTH 900 0
DWIDTH 10 0
BBX 6 7 2 0
BITMAP
84
44
48
48
28
30
30
ENDCHAR
STARTCHAR 2165
ENCODING 8549
SWIDTH 900 0
DWIDTH 10 0
BBX 7 7 2 0
BITMAP
8A
8A
92
52
52
62
22
ENDCHAR
STARTCHAR 2166
ENCODING 8550
SWIDTH 900 0
DWIDTH 10 0
BBX 8 7 1 0
BITMAP
8B
4B
53
53
53
53
23
ENDCHAR
STARTCHAR 2167
ENCODING 8551
SWIDTH 900 0
DWIDTH 10 0
BBX 8 7 1 0
BITMAP
9B
9B
AB
6B
6B
6B
6B
ENDCHAR
STARTCHAR 2168
ENCODING 8552
SWIDTH 900 0
DWIDTH 10 0
BBX 8 7 1 0
BITMAP
92
92
8C
84
8C
92
91
ENDCHAR
STARTCHAR 2169
ENCODING 8553
SWIDTH 900 0
DWIDTH 10 0
BBX 6 7 2 0
BITMAP
44
48
30
10
30
48
C4
ENDCHAR
STARTCHAR 2170
ENCODING 8560
SWIDTH 900 0
DWIDTH 10 0
BBX 1 7 5 0
BITMAP
80
00
80
80
80
80
80
ENDCHAR
STARTCHAR 2171
ENCODING 8561
SWIDTH 900 0
DWIDTH 10 0
BBX 4 7 3 0
BITMAP
90
00
90
90
90
90
90
ENDCHAR
STARTCHAR 2172
ENCODING 8562
SWIDTH 900 0
DWIDTH 10 0
BBX 6 7 2 0
BITMAP
94
00
94
94
94
94
94
ENDCHAR
STARTCHAR 2173
ENCODING 8563
SWIDTH 900 0
DWIDTH 10 0
BBX 6 7 2 0
BITMAP
80
00
A4
A4
A8
98
98
ENDCHAR
STARTCHAR 2174
ENCODING 8564
SWIDTH 900 0
DWIDTH 10 0
BBX 4 5 3 0
BITMAP
90
90
50
60
60
ENDCHAR
STARTCHAR 2175
ENCODING 8565
SWIDTH 900 0
DWIDTH 10 0
BBX 6 7 2 0
BITMAP
04
00
94
54
54
54
24
ENDCHAR
STARTCHAR 2176
ENCODING 8566
SWIDTH 900 0
DWIDTH 10 0
BBX 7 7 2 0
BITMAP
0A
00
9A
AA
AA
AA
4A
ENDCHAR
STARTCHAR 2177
ENCODING 8567
SWIDTH 900 0
DWIDTH 10 0
BBX 8 7 1 0
BITMAP
02
00
97
97
67
67
67
ENDCHAR
STARTCHAR 2178
ENCODING 8568
SWIDTH 900 0
DWIDTH 10 0
BBX 6 7 2 0
BITMAP
80
00
A4
98
88
98
A4
ENDCHAR
STARTCHAR 2179
ENCODING 8569
SWIDTH 900 0
DWIDTH 10 0
BBX 4 5 3 0
BITMAP
90
60
20
60
90
ENDCHAR
STARTCHAR 2190
ENCODING 8592
SWIDTH 900 0
DWIDTH 10 0
BBX 8 3 1 2
BITMAP
80
FF
80
ENDCHAR
STARTCHAR 2191
ENCODING 8593
SWIDTH 450 0
DWIDTH 5 0
BBX 3 11 1 -2
BITMAP
40
40
E0
40
40
40
40
40
40
40
40
ENDCHAR
STARTCHAR 2192
ENCODING 8594
SWIDTH 900 0
DWIDTH 10 0
BBX 9 4 1 1
BITMAP
0100
0080
FF80
0100
ENDCHAR
STARTCHAR 2193
ENCODING 8595
SWIDTH 450 0
DWIDTH 5 0
BBX 3 11 1 -2
BITMAP
40
40
40
40
40
40
40
40
E0
40
40
ENDCHAR
STARTCHAR 2194
ENCODING 8596
SWIDTH 900 0
DWIDTH 10 0
BBX 9 4 1 1
BITMAP
0100
8080
FF80
8100
ENDCHAR
STARTCHAR 2195
ENCODING 8597
SWIDTH 450 0
DWIDTH 5 0
BBX 3 11 1 -2
BITMAP
40
E0
40
40
40
40
40
40
40
C0
40
ENDCHAR
STARTCHAR 2196
ENCODING 8598
SWIDTH 900 0
DWIDTH 10 0
BBX 10 11 0 -2
BITMAP
8000
C000
A000
1000
0800
0800
0400
0200
0100
0080
0040
ENDCHAR
STARTCHAR 2197
ENCODING 8599
SWIDTH 900 0
DWIDTH 10 0
BBX 9 10 1 -2
BITMAP
0180
0080
0100
0200
0400
0800
1000
2000
4000
8000
ENDCHAR
STARTCHAR 2198
ENCODING 8600
SWIDTH 900 0
DWIDTH 10 0
BBX 10 11 0 -2
BITMAP
8000
4000
2000
1000
0800
0400
0400
0200
0100
00C0
00C0
ENDCHAR
STARTCHAR 2199
ENCODING 8601
SWIDTH 900 0
DWIDTH 10 0
BBX 9 10 0 -1
BITMAP
0080
0080
0100
0200
0400
0800
1000
2000
C000
C000
ENDCHAR
STARTCHAR 21B0
ENCODING 8624
SWIDTH 900 0
DWIDTH 10 0
BBX 9 10 1 -2
BITMAP
8000
FF80
0080
0080
0080
0080
0080
0080
0080
0080
ENDCHAR
STARTCHAR 21B1
ENCODING 8625
SWIDTH 900 0
DWIDTH 10 0
BBX 9 9 1 -2
BITMAP
0100
FF80
8100
8000
8000
8000
8000
8000
8000
ENDCHAR
STARTCHAR 21B2
ENCODING 8626
SWIDTH 900 0
DWIDTH 10 0
BBX 9 10 1 -1
BITMAP
0080
0080
0080
0080
0080
0080
0080
0080
FF80
8000
ENDCHAR
STARTCHAR 21B3
ENCODING 8627
SWIDTH 900 0
DWIDTH 10 0
BBX 8 9 1 0
BITMAP
80
80
80
80
80
80
80
FF
01
ENDCHAR
STARTCHAR 21B4
ENCODING 8628
SWIDTH 900 0
DWIDTH 10 0
BBX 8 10 1 -2
BITMAP
FE
01
01
01
01
01
01
01
01
03
ENDCHAR
STARTCHAR 21BC
ENCODING 8636
SWIDTH 900 0
DWIDTH 10 0
BBX 8 2 1 3
BITMAP
40
FF
ENDCHAR
STARTCHAR 21C0
ENCODING 8640
SWIDTH 900 0
DWIDTH 10 0
BBX 9 2 1 3
BITMAP
0200
FF80
ENDCHAR
STARTCHAR 21C4
ENCODING 8644
SWIDTH 900 0
DWIDTH 10 0
BBX 10 7 0 0
BITMAP
0080
7FC0
0040
0000
4000
FFC0
4000
ENDCHAR
STARTCHAR 21C5
ENCODING 8645
SWIDTH 900 0
DWIDTH 10 0
BBX 6 11 2 -2
BITMAP
40
E8
48
48
48
48
48
48
48
58
4C
ENDCHAR
STARTCHAR 21CD
ENCODING 8653
SWIDTH 900 0
DWIDTH 10 0
BBX 9 5 0 0
BITMAP
2000
7F80
8400
7F80
0400
ENDCHAR
STARTCHAR 21CF
ENCODING 8655
SWIDTH 900 0
DWIDTH 10 0
BBX 9 5 1 0
BITMAP
0A00
EF00
1080
FE80
1100
ENDCHAR
STARTCHAR 21D0
ENCODING 8656
SWIDTH 900 0
DWIDTH 10 0
BBX 9 4 0 1
BITMAP
2000
7F80
8000
7F80
ENDCHAR
STARTCHAR 21D1
ENCODING 8657
SWIDTH 900 0
DWIDTH 10 0
BBX 9 9 1 -1
BITMAP
2400
5600
9500
1480
1400
1400
1400
1400
1400
ENDCHAR
STARTCHAR 21D2
ENCODING 8658
SWIDTH 900 0
DWIDTH 10 0
BBX 9 5 1 1
BITMAP
0200
FF00
0080
FE80
0100
ENDCHAR
STARTCHAR 21D3
ENCODING 8659
SWIDTH 900 0
DWIDTH 10 0
BBX 8 10 1 -1
BITMAP
14
14
14
14
14
14
95
55
26
24
ENDCHAR
STARTCHAR 21D4
ENCODING 8660
SWIDTH 900 0
DWIDTH 10 0
BBX 10 5 0 1
BITMAP
2100
7F80
8040
7F40
0080
ENDCHAR
STARTCHAR 21E0
ENCODING 8672
SWIDTH 900 0
DWIDTH 10 0
BBX 9 4 1 1
BITMAP
4000
D580
C000
4000
ENDCHAR
STARTCHAR 21E1
ENCODING 8673
SWIDTH 900 0
DWIDTH 10 0
BBX 3 9 4 -1
BITMAP
40
E0
00
40
00
00
40
00
C0
ENDCHAR
STARTCHAR 21E2
ENCODING 8674
SWIDTH 900 0
DWIDTH 10 0
BBX 9 3 1 1
BITMAP
0100
AD80
0100
ENDCHAR
STARTCHAR 21E3
ENCODING 8675
SWIDTH 900 0
DWIDTH 10 0
BBX 3 9 4 -2
BITMAP
40
40
00
C0
00
40
00
20
C0
ENDCHAR
STARTCHAR 21E6
ENCODING 8678
SWIDTH 900 0
DWIDTH 10 0
BBX 9 7 1 -1
BITMAP
2000
5000
8F80
8080
8080
5F00
2000
ENDCHAR
STARTCHAR 21E7
ENCODING 8679
SWIDTH 900 0
DWIDTH 10 0
BBX 7 10 2 -2
BITMAP
30
48
84
4A
48
48
48
48
48
78
ENDCHAR
STARTCHAR 21E8
ENCODING 8680
SWIDTH 900 0
DWIDTH 10 0
BBX 9 7 1 -1
BITMAP
0400
0600
F900
8080
8100
7E00
0400
ENDCHAR
STARTCHAR 21E9
ENCODING 8681
SWIDTH 900 0
DWIDTH 10 0
BBX 7 10 2 -2
BITMAP
78
48
48
48
48
48
86
44
28
10
ENDCHAR
STARTCHAR 2200
ENCODING 8704
SWIDTH 900 0
DWIDTH 10 0
BBX 6 7 2 0
BITMAP
84
84
78
48
28
30
30
ENDCHAR
STARTCHAR 2202
ENCODING 8706
SWIDTH 450 0
DWIDTH 5 0
BBX 4 5 1 1
BITMAP
60
10
F0
A0
E0
ENDCHAR
STARTCHAR 2203
ENCODING 8707
SWIDTH 900 0
DWIDTH 10 0
BBX 5 7 3 0
BITMAP
F8
08
08
F8
08
08
F8
ENDCHAR
STARTCHAR 2206
ENCODING 8710
SWIDTH 900 0
DWIDTH 10 0
BBX 7 8 2 -1
BITMAP
10
30
30
48
48
84
84
FE
ENDCHAR
STARTCHAR 2207
ENCODING 8711
SWIDTH 900 0
DWIDTH 10 0
BBX 8 7 1 0
BITMAP
FF
41
42
22
24
18
08
ENDCHAR
STARTCHAR 2208
ENCODING 8712
SWIDTH 900 0
DWIDTH 10 0
BBX 7 6 1 0
BITMAP
7E
80
FE
80
40
3E
ENDCHAR
STARTCHAR 2209
ENCODING 8713
SWIDTH 900 0
DWIDTH 10 0
BBX 6 7 2 0
BITMAP
08
7C
90
FC
90
D0
28
ENDCHAR
STARTCHAR 220B
ENCODING 8715
SWIDTH 900 0
DWIDTH 10 0
BBX 7 6 2 0
BITMAP
FC
02
FE
02
02
FC
ENDCHAR
STARTCHAR 220C
ENCODING 8716
SWIDTH 900 0
DWIDTH 10 0
BBX 6 7 2 0
BITMAP
10
F8
14
FC
24
2C
50
ENDCHAR
STARTCHAR 220F
ENCODING 8719
SWIDTH 720 0
DWIDTH 8 0
BBX 6 7 1 0
BITMAP
FC
48
48
48
48
48
48
ENDCHAR
STARTCHAR 2211
ENCODING 8721
SWIDTH 630 0
DWIDTH 7 0
BBX 5 7 1 0
BITMAP
F8
40
20
10
20
40
F8
ENDCHAR
STARTCHAR 2213
ENCODING 8723
SWIDTH 900 0
DWIDTH 10 0
BBX 7 6 2 0
BITMAP
FE
00
10
10
7C
10
ENDCHAR
STARTCHAR 221A
ENCODING 8730
SWIDTH 810 0
DWIDTH 9 0
BBX 8 7 0 -1
BITMAP
0F
10
10
10
20
A0
60
ENDCHAR
STARTCHAR 221D
ENCODING 8733
SWIDTH 720 0
DWIDTH 8 0
BBX 7 4 0 1
BITMAP
76
88
88
76
ENDCHAR
STARTCHAR 221E
ENCODING 8734
SWIDTH 810 0
DWIDTH 9 0
BBX 9 4 0 1
BITMAP
7700
8880
8880
7700
ENDCHAR
STARTCHAR 221F
ENCODING 8735
SWIDTH 900 0
DWIDTH 10 0
BBX 6 6 2 0
BITMAP
80
80
80
80
80
FC
ENDCHAR
STARTCHAR 2220
ENCODING 8736
SWIDTH 900 0
DWIDTH 10 0
BBX 5 6 2 0
BITMAP
08
08
10
20
40
F8
ENDCHAR
STARTCHAR 2222
ENCODING 8738
SWIDTH 900 0
DWIDTH 10 0
BBX 6 6 2 1
BITMAP
0C
38
C4
64
18
10
ENDCHAR
STARTCHAR 2225
ENCODING 8741
SWIDTH 900 0
DWIDTH 10 0
BBX 7 7 2 0
BITMAP
0A
14
28
28
50
90
A0
ENDCHAR
STARTCHAR 2226
ENCODING 8742
SWIDTH 900 0
DWIDTH 10 0
BBX 7 7 2 0
BITMAP
02
54
24
28
50
98
A0
ENDCHAR
STARTCHAR 2227
ENCODING 8743
SWIDTH 900 0
DWIDTH 10 0
BBX 6 5 2 0
BITMAP
10
30
48
44
84
ENDCHAR
STARTCHAR 2228
ENCODING 8744
SWIDTH 900 0
DWIDTH 10 0
BBX 7 6 2 0
BITMAP
02
84
44
48
30
10
ENDCHAR
STARTCHAR 2229
ENCODING 8745
SWIDTH 630 0
DWIDTH 7 0
BBX 6 7 1 0
BITMAP
F8
84
84
84
84
84
04
ENDCHAR
STARTCHAR 222A
ENCODING 8746
SWIDTH 630 0
DWIDTH 7 0
BBX 6 8 1 -1
BITMAP
04
84
84
84
84
84
84
F8
ENDCHAR
STARTCHAR 222B
ENCODING 8747
SWIDTH 540 0
DWIDTH 6 0
BBX 4 9 1 -1
BITMAP
30
20
40
40
40
40
40
40
80
ENDCHAR
STARTCHAR 222C
ENCODING 8748
SWIDTH 900 0
DWIDTH 10 0
BBX 7 9 2 -1
BITMAP
36
28
48
48
48
48
48
48
B0
ENDCHAR
STARTCHAR 222E
ENCODING 8750
SWIDTH 900 0
DWIDTH 10 0
BBX 4 9 3 -1
BITMAP
10
20
20
60
B0
B0
60
40
C0
ENDCHAR
STARTCHAR 2234
ENCODING 8756
SWIDTH 900 0
DWIDTH 10 0
BBX 6 5 2 1
BITMAP
10
00
00
00
84
ENDCHAR
STARTCHAR 2235
ENCODING 8757
SWIDTH 900 0
DWIDTH 10 0
BBX 6 5 2 1
BITMAP
84
00
00
00
10
ENDCHAR
STARTCHAR 2236
ENCODING 8758
SWIDTH 900 0
DWIDTH 10 0
BBX 1 4 5 1
BITMAP
80
00
00
80
ENDCHAR
STARTCHAR 2237
ENCODING 8759
SWIDTH 900 0
DWIDTH 10 0
BBX 4 5 3 1
BITMAP
90
00
00
00
90
ENDCHAR
STARTCHAR 223C
ENCODING 8764
SWIDTH 900 0
DWIDTH 10 0
BBX 6 3 2 2
BITMAP
60
94
08
ENDCHAR
STARTCHAR 223D
ENCODING 8765
SWIDTH 810 0
DWIDTH 9 0
BBX 8 4 0 1
BITMAP
47
89
89
F3
ENDCHAR
STARTCHAR 2243
ENCODING 8771
SWIDTH 900 0
DWIDTH 10 0
BBX 6 3 2 2
BITMAP
7C
00
FC
ENDCHAR
STARTCHAR 2245
ENCODING 8773
SWIDTH 900 0
DWIDTH 10 0
BBX 8 5 1 1
BITMAP
79
06
00
FF
7E
ENDCHAR
STARTCHAR 2248
ENCODING 8776
SWIDTH 900 0
DWIDTH 10 0
BBX 5 4 3 1
BITMAP
F8
00
C0
38
ENDCHAR
STARTCHAR 2250
ENCODING 8784
SWIDTH 900 0
DWIDTH 10 0
BBX 5 5 3 1
BITMAP
20
00
F8
00
F8
ENDCHAR
STARTCHAR 2251
ENCODING 8785
SWIDTH 900 0
DWIDTH 10 0
BBX 7 6 2 1
BITMAP
10
FE
00
FE
00
10
ENDCHAR
STARTCHAR 2252
ENCODING 8786
SWIDTH 720 0
DWIDTH 8 0
BBX 6 7 1 0
BITMAP
C0
00
7C
00
7C
00
04
ENDCHAR
STARTCHAR 2253
ENCODING 8787
SWIDTH 900 0
DWIDTH 10 0
BBX 7 6 2 1
BITMAP
04
FE
00
FE
00
40
ENDCHAR
STARTCHAR 225A
ENCODING 8794
SWIDTH 900 0
DWIDTH 10 0
BBX 7 7 2 0
BITMAP
04
48
48
30
00
FE
7C
ENDCHAR
STARTCHAR 2260
ENCODING 8800
SWIDTH 630 0
DWIDTH 7 0
BBX 7 7 0 0
BITMAP
08
08
FE
10
FE
10
20
ENDCHAR
STARTCHAR 2261
ENCODING 8801
SWIDTH 720 0
DWIDTH 8 0
BBX 5 5 2 1
BITMAP
F8
00
F8
00
F8
ENDCHAR
STARTCHAR 2262
ENCODING 8802
SWIDTH 900 0
DWIDTH 10 0
BBX 7 6 2 1
BITMAP
08
74
FE
20
FE
40
ENDCHAR
STARTCHAR 2264
ENCODING 8804
SWIDTH 630 0
DWIDTH 7 0
BBX 6 7 0 0
BITMAP
0C
30
C0
38
04
00
7C
ENDCHAR
STARTCHAR 2265
ENCODING 8805
SWIDTH 630 0
DWIDTH 7 0
BBX 6 7 1 0
BITMAP
C0
30
0C
30
C0
00
F8
ENDCHAR
STARTCHAR 2266
ENCODING 8806
SWIDTH 900 0
DWIDTH 10 0
BBX 7 7 2 0
BITMAP
0C
30
C0
30
0C
FE
7C
ENDCHAR
STARTCHAR 2267
ENCODING 8807
SWIDTH 900 0
DWIDTH 10 0
BBX 7 7 2 0
BITMAP
60
18
0C
30
C0
FE
7C
ENDCHAR
STARTCHAR 226A
ENCODING 8810
SWIDTH 900 0
DWIDTH 10 0
BBX 8 7 1 0
BITMAP
0D
16
68
B0
78
16
0D
ENDCHAR
STARTCHAR 226B
ENCODING 8811
SWIDTH 900 0
DWIDTH 10 0
BBX 8 7 1 0
BITMAP
D0
2C
1A
05
1A
2C
D0
ENDCHAR
STARTCHAR 226E
ENCODING 8814
SWIDTH 900 0
DWIDTH 10 0
BBX 6 6 2 1
BITMAP
08
30
D0
70
18
24
ENDCHAR
STARTCHAR 226F
ENCODING 8815
SWIDTH 900 0
DWIDTH 10 0
BBX 6 6 2 1
BITMAP
70
18
14
28
30
C0
ENDCHAR
STARTCHAR 2270
ENCODING 8816
SWIDTH 900 0
DWIDTH 10 0
BBX 7 8 2 -1
BITMAP
08
0C
30
D0
38
16
FE
7C
ENDCHAR
STARTCHAR 2271
ENCODING 8817
SWIDTH 900 0
DWIDTH 10 0
BBX 6 7 2 0
BITMAP
F0
10
1C
30
E0
FC
78
ENDCHAR
STARTCHAR 2272
ENCODING 8818
SWIDTH 900 0
DWIDTH 10 0
BBX 7 7 2 0
BITMAP
04
38
C0
60
1C
00
FE
ENDCHAR
STARTCHAR 2273
ENCODING 8819
SWIDTH 900 0
DWIDTH 10 0
BBX 7 7 2 0
BITMAP
C0
30
0C
18
E0
00
FE
ENDCHAR
STARTCHAR 2276
ENCODING 8822
SWIDTH 900 0
DWIDTH 10 0
BBX 6 7 2 0
BITMAP
0C
70
F0
CC
38
1C
60
ENDCHAR
STARTCHAR 2277
ENCODING 8823
SWIDTH 900 0
DWIDTH 10 0
BBX 6 7 2 0
BITMAP
E0
18
1C
EC
30
E0
1C
ENDCHAR
STARTCHAR 2279
ENCODING 8825
SWIDTH 900 0
DWIDTH 10 0
BBX 6 8 2 -1
BITMAP
08
E8
18
1C
FC
20
E0
3C
ENDCHAR
STARTCHAR 227A
ENCODING 8826
SWIDTH 900 0
DWIDTH 10 0
BBX 6 5 2 1
BITMAP
04
18
E0
30
0C
ENDCHAR
STARTCHAR 227B
ENCODING 8827
SWIDTH 900 0
DWIDTH 10 0
BBX 6 5 2 1
BITMAP
C0
30
0C
30
C0
ENDCHAR
STARTCHAR 2280
ENCODING 8832
SWIDTH 900 0
DWIDTH 10 0
BBX 6 7 2 0
BITMAP
10
14
18
F0
30
1C
10
ENDCHAR
STARTCHAR 2281
ENCODING 8833
SWIDTH 900 0
DWIDTH 10 0
BBX 6 5 2 1
BITMAP
D0
20
1C
30
D0
ENDCHAR
STARTCHAR 2282
ENCODING 8834
SWIDTH 900 0
DWIDTH 10 0
BBX 7 6 1 0
BITMAP
7E
80
80
80
80
7E
ENDCHAR
STARTCHAR 2283
ENCODING 8835
SWIDTH 900 0
DWIDTH 10 0
BBX 7 6 2 0
BITMAP
FC
02
02
02
02
FC
ENDCHAR
STARTCHAR 2284
ENCODING 8836
SWIDTH 900 0
DWIDTH 10 0
BBX 6 7 2 0
BITMAP
08
7C
90
90
90
D0
28
ENDCHAR
STARTCHAR 2285
ENCODING 8837
SWIDTH 900 0
DWIDTH 10 0
BBX 6 7 2 0
BITMAP
10
F8
14
24
24
2C
50
ENDCHAR
STARTCHAR 2286
ENCODING 8838
SWIDTH 900 0
DWIDTH 10 0
BBX 8 7 1 0
BITMAP
7F
80
80
80
7F
00
7E
ENDCHAR
STARTCHAR 2287
ENCODING 8839
SWIDTH 900 0
DWIDTH 10 0
BBX 8 7 1 0
BITMAP
7E
01
01
01
FE
00
7E
ENDCHAR
STARTCHAR 228A
ENCODING 8842
SWIDTH 900 0
DWIDTH 10 0
BBX 8 8 1 -1
BITMAP
7E
80
80
80
7F
7E
08
76
ENDCHAR
STARTCHAR 228B
ENCODING 8843
SWIDTH 900 0
DWIDTH 10 0
BBX 8 8 1 -1
BITMAP
7E
01
01
01
FE
7E
08
76
ENDCHAR
STARTCHAR 2295
ENCODING 8853
SWIDTH 900 0
DWIDTH 10 0
BBX 9 9 1 -1
BITMAP
3C00
4200
8900
8880
BE80
8880
8900
4100
3E00
ENDCHAR
STARTCHAR 2296
ENCODING 8854
SWIDTH 900 0
DWIDTH 10 0
BBX 9 9 1 -1
BITMAP
3C00
4200
8100
8080
BE80
8080
8100
4100
3E00
ENDCHAR
STARTCHAR 2297
ENCODING 8855
SWIDTH 900 0
DWIDTH 10 0
BBX 9 9 1 -1
BITMAP
3C00
4200
8300
A480
9880
9880
A500
4100
3E00
ENDCHAR
STARTCHAR 2299
ENCODING 8857
SWIDTH 900 0
DWIDTH 10 0
BBX 8 9 1 -1
BITMAP
3E
41
81
99
BD
99
81
41
3E
ENDCHAR
STARTCHAR 22A3
ENCODING 8867
SWIDTH 900 0
DWIDTH 10 0
BBX 6 5 2 1
BITMAP
04
04
FC
04
04
ENDCHAR
STARTCHAR 22A4
ENCODING 8868
SWIDTH 900 0
DWIDTH 10 0
BBX 5 5 3 0
BITMAP
F8
20
20
20
20
ENDCHAR
STARTCHAR 22A5
ENCODING 8869
SWIDTH 900 0
DWIDTH 10 0
BBX 5 5 3 1
BITMAP
20
20
20
20
F8
ENDCHAR
STARTCHAR 22BB
ENCODING 8891
SWIDTH 900 0
DWIDTH 10 0
BBX 6 7 2 0
BITMAP
80
44
48
28
30
10
7C
ENDCHAR
STARTCHAR 22BC
ENCODING 8892
SWIDTH 900 0
DWIDTH 10 0
BBX 5 6 3 0
BITMAP
F8
20
50
90
88
08
ENDCHAR
STARTCHAR 22CE
ENCODING 8910
SWIDTH 900 0
DWIDTH 10 0
BBX 6 6 2 1
BITMAP
10
30
28
48
44
84
ENDCHAR
STARTCHAR 22CF
ENCODING 8911
SWIDTH 900 0
DWIDTH 10 0
BBX 6 6 2 0
BITMAP
80
44
48
28
30
10
ENDCHAR
STARTCHAR 22DA
ENCODING 8922
SWIDTH 900 0
DWIDTH 10 0
BBX 7 7 2 0
BITMAP
1C
70
0E
FE
C0
3C
70
ENDCHAR
STARTCHAR 22DB
ENCODING 8923
SWIDTH 900 0
DWIDTH 10 0
BBX 7 7 2 0
BITMAP
70
3C
C0
FE
0E
70
1C
ENDCHAR
STARTCHAR 22EE
ENCODING 8942
SWIDTH 900 0
DWIDTH 10 0
BBX 1 8 5 -1
BITMAP
80
00
00
80
00
00
80
80
ENDCHAR
STARTCHAR 22EF
ENCODING 8943
SWIDTH 900 0
DWIDTH 10 0
BBX 8 1 1 3
BITMAP
89
ENDCHAR
STARTCHAR 2306
ENCODING 8966
SWIDTH 900 0
DWIDTH 10 0
BBX 5 5 3 0
BITMAP
F8
00
20
50
90
ENDCHAR
STARTCHAR 2312
ENCODING 8978
SWIDTH 900 0
DWIDTH 10 0
BBX 6 2 2 6
BITMAP
78
84
ENDCHAR
STARTCHAR 2314
ENCODING 8980
SWIDTH 900 0
DWIDTH 10 0
BBX 6 7 2 0
BITMAP
78
84
84
44
48
30
10
ENDCHAR
STARTCHAR 2460
ENCODING 9312
SWIDTH 900 0
DWIDTH 10 0
BBX 10 10 0 -2
BITMAP
3F00
4080
4440
8440
8440
8440
8440
4440
4080
3F00
ENDCHAR
STARTCHAR 2461
ENCODING 9313
SWIDTH 900 0
DWIDTH 10 0
BBX 10 10 0 -2
BITMAP
3F00
4080
4E40
9240
8240
8440
8840
5E40
4080
3F00
ENDCHAR
STARTCHAR 2462
ENCODING 9314
SWIDTH 900 0
DWIDTH 10 0
BBX 10 10 0 -2
BITMAP
3F00
4080
4C40
9240
8640
8240
9240
4E40
4080
3F00
ENDCHAR
STARTCHAR 2463
ENCODING 9315
SWIDTH 900 0
DWIDTH 10 0
BBX 10 10 0 -2
BITMAP
3F00
4080
4440
8C40
8C40
9440
9E40
4440
4080
3F00
ENDCHAR
STARTCHAR 2464
ENCODING 9316
SWIDTH 900 0
DWIDTH 10 0
BBX 10 10 0 -2
BITMAP
3F00
4080
4E40
9040
9E40
8240
9240
4E40
4080
3F00
ENDCHAR
STARTCHAR 2465
ENCODING 9317
SWIDTH 900 0
DWIDTH 10 0
BBX 10 10 0 -2
BITMAP
3F00
4080
4E40
9040
9E40
9240
9240
5E40
4080
3F00
ENDCHAR
STARTCHAR 2466
ENCODING 9318
SWIDTH 900 0
DWIDTH 10 0
BBX 10 10 0 -2
BITMAP
3F00
4080
5E40
8240
8440
8440
8840
4840
4080
3F00
ENDCHAR
STARTCHAR 2467
ENCODING 9319
SWIDTH 900 0
DWIDTH 10 0
BBX 10 10 0 -2
BITMAP
3F00
4080
4E40
9240
8E40
9240
9240
4E40
4080
3F00
ENDCHAR
STARTCHAR 2468
ENCODING 9320
SWIDTH 900 0
DWIDTH 10 0
BBX 10 10 0 -2
BITMAP
3F00
4080
5E40
9240
9240
9E40
8240
4E40
4080
3F00
ENDCHAR
STARTCHAR 2469
ENCODING 9321
SWIDTH 900 0
DWIDTH 10 0
BBX 10 10 0 -2
BITMAP
3F00
4080
5740
9540
9940
9940
9540
5740
4080
3F00
ENDCHAR
STARTCHAR 246A
ENCODING 9322
SWIDTH 900 0
DWIDTH 10 0
BBX 10 10 0 -2
BITMAP
3F00
4080
5240
9240
9240
9240
9240
5240
4080
3F00
ENDCHAR
STARTCHAR 246B
ENCODING 9323
SWIDTH 900 0
DWIDTH 10 0
BBX 10 10 0 -2
BITMAP
3F00
4080
5740
9140
9140
9240
9440
5740
4080
3F00
ENDCHAR
STARTCHAR 246C
ENCODING 9324
SWIDTH 900 0
DWIDTH 10 0
BBX 10 10 0 -2
BITMAP
3F00
4080
5740
9140
9240
9140
9940
5740
4080
3F00
ENDCHAR
STARTCHAR 246D
ENCODING 9325
SWIDTH 900 0
DWIDTH 10 0
BBX 10 10 0 -2
BITMAP
3F00
4080
5240
9240
9540
9940
9F40
5040
4080
3F00
ENDCHAR
STARTCHAR 246E
ENCODING 9326
SWIDTH 900 0
DWIDTH 10 0
BBX 10 10 0 -2
BITMAP
3F00
4080
5640
9440
9740
9140
9940
5740
4080
3F00
ENDCHAR
STARTCHAR 246F
ENCODING 9327
SWIDTH 900 0
DWIDTH 10 0
BBX 10 10 0 -2
BITMAP
3F00
4280
5540
9A40
9D40
9940
9940
5680
2100
1E00
ENDCHAR
STARTCHAR 2470
ENCODING 9328
SWIDTH 900 0
DWIDTH 10 0
BBX 10 10 0 -2
BITMAP
3F00
4080
5740
9240
9240
9240
9440
5480
2100
1E00
ENDCHAR
STARTCHAR 2471
ENCODING 9329
SWIDTH 900 0
DWIDTH 10 0
BBX 10 10 0 -2
BITMAP
3F00
4280
5540
9540
9640
9940
9940
5780
2100
1E00
ENDCHAR
STARTCHAR 2472
ENCODING 9330
SWIDTH 900 0
DWIDTH 10 0
BBX 10 10 0 -2
BITMAP
3F00
4280
5540
98C0
9540
92C0
9140
5680
2100
1E00
ENDCHAR
STARTCHAR 2473
ENCODING 9331
SWIDTH 900 0
DWIDTH 10 0
BBX 10 10 0 -2
BITMAP
3F00
5280
6D40
A4C0
8CC0
94C0
A4C0
7B80
2100
1E00
ENDCHAR
STARTCHAR 2474
ENCODING 9332
SWIDTH 900 0
DWIDTH 10 0
BBX 10 11 0 -2
BITMAP
4080
4040
8440
8C40
8440
8440
8440
8440
8440
4040
4080
ENDCHAR
STARTCHAR 2475
ENCODING 9333
SWIDTH 900 0
DWIDTH 10 0
BBX 10 11 0 -2
BITMAP
4080
4040
8E40
9240
9240
8440
8840
9040
9E40
4040
4080
ENDCHAR
STARTCHAR 2476
ENCODING 9334
SWIDTH 900 0
DWIDTH 10 0
BBX 10 11 0 -2
BITMAP
4080
4040
8E40
9240
8240
8640
8140
9140
8E40
4040
4080
ENDCHAR
STARTCHAR 2477
ENCODING 9335
SWIDTH 900 0
DWIDTH 10 0
BBX 10 11 0 -2
BITMAP
4080
4040
8440
8440
8A40
9240
9E40
8240
8240
4040
4080
ENDCHAR
STARTCHAR 2478
ENCODING 9336
SWIDTH 900 0
DWIDTH 10 0
BBX 10 11 0 -2
BITMAP
4080
4040
8E40
9040
9E40
9240
8140
9240
8E40
4040
4080
ENDCHAR
STARTCHAR 2479
ENCODING 9337
SWIDTH 900 0
DWIDTH 10 0
BBX 10 11 0 -2
BITMAP
4080
4040
8E40
9240
9040
9E40
9140
9140
8E40
4040
4080
ENDCHAR
STARTCHAR 247A
ENCODING 9338
SWIDTH 900 0
DWIDTH 10 0
BBX 10 11 0 -2
BITMAP
4080
4040
9E40
8240
8240
8440
8440
8840
8840
4840
4080
ENDCHAR
STARTCHAR 247B
ENCODING 9339
SWIDTH 900 0
DWIDTH 10 0
BBX 10 11 0 -2
BITMAP
4080
4040
8E40
9240
9240
8C40
9240
9140
8E40
4040
4080
ENDCHAR
STARTCHAR 247C
ENCODING 9340
SWIDTH 900 0
DWIDTH 10 0
BBX 10 11 0 -2
BITMAP
4080
4040
8E40
9240
9140
9340
8D40
9240
8E40
4040
4080
ENDCHAR
STARTCHAR 247D
ENCODING 9341
SWIDTH 900 0
DWIDTH 10 0
BBX 10 11 0 -2
BITMAP
4080
4040
9740
B540
94C0
98C0
98C0
9540
9740
4040
4080
ENDCHAR
STARTCHAR 247E
ENCODING 9342
SWIDTH 900 0
DWIDTH 10 0
BBX 10 11 0 -2
BITMAP
4080
4040
9140
B340
9140
9140
9140
9140
9140
4040
4080
ENDCHAR
STARTCHAR 247F
ENCODING 9343
SWIDTH 900 0
DWIDTH 10 0
BBX 10 11 0 -2
BITMAP
4080
4040
9740
A540
9940
9240
9440
9840
9F40
4040
4080
ENDCHAR
STARTCHAR 2480
ENCODING 9344
SWIDTH 900 0
DWIDTH 10 0
BBX 10 11 0 -2
BITMAP
4080
4040
9740
B940
9140
9340
90C0
98C0
9740
4040
4080
ENDCHAR
STARTCHAR 2481
ENCODING 9345
SWIDTH 900 0
DWIDTH 10 0
BBX 10 11 0 -2
BITMAP
4080
4040
9140
B340
9540
9540
9FC0
9140
9140
4040
4080
ENDCHAR
STARTCHAR 2482
ENCODING 9346
SWIDTH 900 0
DWIDTH 10 0
BBX 10 11 0 -2
BITMAP
4080
4040
9740
B440
9740
9540
90C0
98C0
9740
4040
4080
ENDCHAR
STARTCHAR 2483
ENCODING 9347
SWIDTH 900 0
DWIDTH 10 0
BBX 10 10 0 -2
BITMAP
4080
4340
A540
9A40
9D40
98C0
98C0
9740
4040
4080
ENDCHAR
STARTCHAR 2484
ENCODING 9348
SWIDTH 900 0
DWIDTH 10 0
BBX 10 10 0 -2
BITMAP
4080
4640
B140
9140
9240
9240
9240
9440
4040
4080
ENDCHAR
STARTCHAR 2485
ENCODING 9349
SWIDTH 900 0
DWIDTH 10 0
BBX 10 10 0 -2
BITMAP
4080
5340
B4C0
9540
9740
98C0
98C0
9740
4040
4080
ENDCHAR
STARTCHAR 2486
ENCODING 9350
SWIDTH 900 0
DWIDTH 10 0
BBX 10 10 0 -2
BITMAP
4080
4340
A4C0
98C0
94C0
97C0
90C0
9740
4040
4080
ENDCHAR
STARTCHAR 2487
ENCODING 9351
SWIDTH 900 0
DWIDTH 10 0
BBX 10 10 0 -2
BITMAP
4080
5340
AAC0
8CC0
8CC0
94C0
A4C0
BB40
4040
4080
ENDCHAR
STARTCHAR 249C
ENCODING 9372
SWIDTH 900 0
DWIDTH 10 0
BBX 10 11 0 -2
BITMAP
4080
4040
8E40
9240
8E40
9240
9240
9D40
8040
4040
4080
ENDCHAR
STARTCHAR 249D
ENCODING 9373
SWIDTH 900 0
DWIDTH 10 0
BBX 10 11 0 -2
BITMAP
4080
4040
9040
9040
9E40
9140
9140
9140
9E40
4040
4080
ENDCHAR
STARTCHAR 249E
ENCODING 9374
SWIDTH 900 0
DWIDTH 10 0
BBX 10 11 0 -2
BITMAP
4080
4040
8E40
9240
9040
9040
9040
9240
8E40
4040
4080
ENDCHAR
STARTCHAR 249F
ENCODING 9375
SWIDTH 900 0
DWIDTH 10 0
BBX 10 11 0 -2
BITMAP
4080
4240
8240
9E40
9240
A240
A240
9240
9E40
4040
4080
ENDCHAR
STARTCHAR 24A0
ENCODING 9376
SWIDTH 900 0
DWIDTH 10 0
BBX 10 11 0 -2
BITMAP
4080
4040
8C40
9240
9140
9E40
9040
9240
8E40
4040
4080
ENDCHAR
STARTCHAR 24A1
ENCODING 9377
SWIDTH 900 0
DWIDTH 10 0
BBX 10 11 0 -2
BITMAP
4080
4040
8440
8440
8C40
8440
8440
8440
8440
4440
4080
ENDCHAR
STARTCHAR 24A2
ENCODING 9378
SWIDTH 900 0
DWIDTH 10 0
BBX 10 11 0 -2
BITMAP
4080
4040
8E40
9240
9140
9240
8E40
9240
8E40
4040
4080
ENDCHAR
STARTCHAR 24A3
ENCODING 9379
SWIDTH 900 0
DWIDTH 10 0
BBX 10 11 0 -2
BITMAP
4080
4040
9040
9040
9E40
9240
9140
9140
9140
4040
4080
ENDCHAR
STARTCHAR 24A4
ENCODING 9380
SWIDTH 900 0
DWIDTH 10 0
BBX 10 11 0 -2
BITMAP
4080
4040
8440
8040
8440
8440
8440
8440
8440
4040
4080
ENDCHAR
STARTCHAR 24A5
ENCODING 9381
SWIDTH 900 0
DWIDTH 10 0
BBX 10 11 0 -2
BITMAP
4080
4440
8040
8440
8440
8440
8440
8440
8440
4C40
4080
ENDCHAR
STARTCHAR 24A6
ENCODING 9382
SWIDTH 900 0
DWIDTH 10 0
BBX 10 11 0 -2
BITMAP
4080
4040
9040
9040
9240
9440
9C40
9240
9240
4040
4080
ENDCHAR
STARTCHAR 24A7
ENCODING 9383
SWIDTH 900 0
DWIDTH 10 0
BBX 10 11 0 -2
BITMAP
4080
4040
8440
8440
8440
8440
8440
8440
8440
4040
4080
ENDCHAR
STARTCHAR 24A8
ENCODING 9384
SWIDTH 900 0
DWIDTH 10 0
BBX 10 11 0 -2
BITMAP
4080
4040
8040
BB40
A4C0
A4C0
A4C0
A4C0
8040
4040
4080
ENDCHAR
STARTCHAR 24A9
ENCODING 9385
SWIDTH 900 0
DWIDTH 10 0
BBX 10 11 0 -2
BITMAP
4080
4040
8040
9E40
9240
9240
9240
9240
8040
4040
4080
ENDCHAR
STARTCHAR 24AA
ENCODING 9386
SWIDTH 900 0
DWIDTH 10 0
BBX 10 11 0 -2
BITMAP
4080
4040
8E40
9240
9140
9140
9240
8E40
8040
4040
4080
ENDCHAR
STARTCHAR 24AB
ENCODING 9387
SWIDTH 900 0
DWIDTH 10 0
BBX 10 11 0 -2
BITMAP
4080
4040
9E40
9140
9140
9140
9140
9E40
9040
4040
4080
ENDCHAR
STARTCHAR 24AC
ENCODING 9388
SWIDTH 900 0
DWIDTH 10 0
BBX 10 11 0 -2
BITMAP
4080
4040
8D40
9240
9140
9140
9240
8D40
8140
4040
4080
ENDCHAR
STARTCHAR 24AD
ENCODING 9389
SWIDTH 900 0
DWIDTH 10 0
BBX 10 11 0 -2
BITMAP
4080
4040
8040
8E40
8840
8840
8840
8840
8040
4040
4080
ENDCHAR
STARTCHAR 24AE
ENCODING 9390
SWIDTH 900 0
DWIDTH 10 0
BBX 10 11 0 -2
BITMAP
4080
4040
8E40
9240
8C40
8240
9240
8E40
8040
4040
4080
ENDCHAR
STARTCHAR 24AF
ENCODING 9391
SWIDTH 900 0
DWIDTH 10 0
BBX 10 11 0 -2
BITMAP
4080
4040
8840
8840
8C40
8840
8840
8840
8440
4040
4080
ENDCHAR
STARTCHAR 24B0
ENCODING 9392
SWIDTH 900 0
DWIDTH 10 0
BBX 10 11 0 -2
BITMAP
4080
4040
8040
9240
9240
9240
9240
8E40
8040
4040
4080
ENDCHAR
STARTCHAR 24B1
ENCODING 9393
SWIDTH 900 0
DWIDTH 10 0
BBX 10 11 0 -2
BITMAP
4080
4040
8040
9240
9240
8A40
8C40
8C40
8440
4040
4080
ENDCHAR
STARTCHAR 24B2
ENCODING 9394
SWIDTH 900 0
DWIDTH 10 0
BBX 10 11 0 -2
BITMAP
4080
4040
8040
A4C0
AD40
AB40
9340
9240
8040
4040
4080
ENDCHAR
STARTCHAR 24B3
ENCODING 9395
SWIDTH 900 0
DWIDTH 10 0
BBX 10 11 0 -2
BITMAP
4080
4040
8040
9240
8C40
8440
8A40
9240
8040
4040
4080
ENDCHAR
STARTCHAR 24B4
ENCODING 9396
SWIDTH 900 0
DWIDTH 10 0
BBX 10 11 0 -2
BITMAP
4080
4040
9140
9240
8A40
8A40
8C40
8440
8440
4840
4080
ENDCHAR
STARTCHAR 24B5
ENCODING 9397
SWIDTH 900 0
DWIDTH 10 0
BBX 10 11 0 -2
BITMAP
4080
4040
8040
9E40
8240
8440
8840
9E40
8040
4040
4080
ENDCHAR
STARTCHAR 24B6
ENCODING 9398
SWIDTH 900 0
DWIDTH 10 0
BBX 10 10 0 -2
BITMAP
3F00
4480
4C40
8A40
9240
9E40
9140
6180
2100
1E00
ENDCHAR
STARTCHAR 24B7
ENCODING 9399
SWIDTH 900 0
DWIDTH 10 0
BBX 10 10 0 -2
BITMAP
3F00
5E80
5140
9140
9E40
9140
9140
5E80
2100
1E00
ENDCHAR
STARTCHAR 24B8
ENCODING 9400
SWIDTH 900 0
DWIDTH 10 0
BBX 10 10 0 -2
BITMAP
3F00
4C80
5340
A040
A040
A040
A140
5E80
2100
1E00
ENDCHAR
STARTCHAR 24B9
ENCODING 9401
SWIDTH 900 0
DWIDTH 10 0
BBX 10 10 0 -2
BITMAP
3F00
4C80
5340
9140
9140
9140
9140
5E80
2100
1E00
ENDCHAR
STARTCHAR 24BA
ENCODING 9402
SWIDTH 900 0
DWIDTH 10 0
BBX 10 10 0 -2
BITMAP
3F00
4E80
5040
9040
9E40
9040
9040
5E80
2100
1E00
ENDCHAR
STARTCHAR 24BB
ENCODING 9403
SWIDTH 900 0
DWIDTH 10 0
BBX 10 10 0 -2
BITMAP
3F00
4E80
5040
9040
9E40
9040
9040
5080
2100
1E00
ENDCHAR
STARTCHAR 24BC
ENCODING 9404
SWIDTH 900 0
DWIDTH 10 0
BBX 10 10 0 -2
BITMAP
3F00
4C80
5240
A040
A240
A140
A140
5F80
2100
1E00
ENDCHAR
STARTCHAR 24BD
ENCODING 9405
SWIDTH 900 0
DWIDTH 10 0
BBX 10 10 0 -2
BITMAP
3F00
4180
5140
9140
9F40
9140
9140
4180
2100
1E00
ENDCHAR
STARTCHAR 24BE
ENCODING 9406
SWIDTH 900 0
DWIDTH 10 0
BBX 10 10 0 -2
BITMAP
3F00
4080
4440
8440
8440
8440
8440
4080
2100
1E00
ENDCHAR
STARTCHAR 24BF
ENCODING 9407
SWIDTH 900 0
DWIDTH 10 0
BBX 10 10 0 -2
BITMAP
3F00
4280
4240
8240
8240
8240
9240
4C80
2100
1E00
ENDCHAR
STARTCHAR 24C0
ENCODING 9408
SWIDTH 900 0
DWIDTH 10 0
BBX 10 10 0 -2
BITMAP
3F00
4180
5240
9440
9840
9440
9240
4080
2100
1E00
ENDCHAR
STARTCHAR 24C1
ENCODING 9409
SWIDTH 900 0
DWIDTH 10 0
BBX 10 10 0 -2
BITMAP
3F00
5080
5040
9040
9040
9040
9040
5E80
2100
1E00
ENDCHAR
STARTCHAR 24C2
ENCODING 9410
SWIDTH 900 0
DWIDTH 10 0
BBX 10 10 0 -2
BITMAP
3F00
4080
6140
B340
B340
AB40
AD40
6480
2100
1E00
ENDCHAR
STARTCHAR 24C3
ENCODING 9411
SWIDTH 900 0
DWIDTH 10 0
BBX 10 10 0 -2
BITMAP
3F00
4180
5140
9940
9540
9540
9340
4180
2100
1E00
ENDCHAR
STARTCHAR 24C4
ENCODING 9412
SWIDTH 900 0
DWIDTH 10 0
BBX 10 10 0 -2
BITMAP
3F00
4E80
5140
A140
A140
A140
9140
5E80
2100
1E00
ENDCHAR
STARTCHAR 24C5
ENCODING 9413
SWIDTH 900 0
DWIDTH 10 0
BBX 10 10 0 -2
BITMAP
3F00
4E80
5140
9140
9340
9C40
9040
5080
2100
1E00
ENDCHAR
STARTCHAR 24C6
ENCODING 9414
SWIDTH 900 0
DWIDTH 10 0
BBX 10 10 0 -2
BITMAP
3F00
4E80
5140
A140
A140
A140
A140
5E80
2100
1E00
ENDCHAR
STARTCHAR 24C7
ENCODING 9415
SWIDTH 900 0
DWIDTH 10 0
BBX 10 10 0 -2
BITMAP
3F00
5E80
5140
9140
9E40
9140
9140
5180
2100
1E00
ENDCHAR
STARTCHAR 24C8
ENCODING 9416
SWIDTH 900 0
DWIDTH 10 0
BBX 10 10 0 -2
BITMAP
3F00
4C80
5240
9040
8C40
8340
9140
5E80
2100
1E00
ENDCHAR
STARTCHAR 24C9
ENCODING 9417
SWIDTH 900 0
DWIDTH 10 0
BBX 10 10 0 -2
BITMAP
3F00
4080
5E40
8440
8440
8440
8440
4480
2100
1E00
ENDCHAR
STARTCHAR 24CA
ENCODING 9418
SWIDTH 900 0
DWIDTH 10 0
BBX 10 10 0 -2
BITMAP
3F00
4080
5140
9140
9140
9140
9140
5280
2D00
1E00
ENDCHAR
STARTCHAR 24CB
ENCODING 9419
SWIDTH 900 0
DWIDTH 10 0
BBX 10 10 0 -2
BITMAP
3F00
4080
5140
9240
9240
8A40
8C40
4480
2100
1E00
ENDCHAR
STARTCHAR 24CC
ENCODING 9420
SWIDTH 900 0
DWIDTH 10 0
BBX 10 10 0 -2
BITMAP
3F00
4080
44C0
ACC0
AD40
AB40
B340
5280
2100
1E00
ENDCHAR
STARTCHAR 24CD
ENCODING 9421
SWIDTH 900 0
DWIDTH 10 0
BBX 10 10 0 -2
BITMAP
3F00
4080
5240
8C40
8440
8C40
9240
5080
2100
1E00
ENDCHAR
STARTCHAR 24CE
ENCODING 9422
SWIDTH 900 0
DWIDTH 10 0
BBX 10 10 0 -2
BITMAP
3F00
4080
5140
9240
8C40
8440
8440
4480
2100
1E00
ENDCHAR
STARTCHAR 24CF
ENCODING 9423
SWIDTH 900 0
DWIDTH 10 0
BBX 10 10 0 -2
BITMAP
3F00
5F80
4240
8240
8440
8840
9040
5F80
2100
1E00
ENDCHAR
STARTCHAR 24D0
ENCODING 9424
SWIDTH 900 0
DWIDTH 10 0
BBX 10 10 0 -2
BITMAP
3F00
4080
4E40
9240
8E40
9240
9F40
4040
4080
3F00
ENDCHAR
STARTCHAR 24D1
ENCODING 9425
SWIDTH 900 0
DWIDTH 10 0
BBX 10 10 0 -2
BITMAP
3F00
4080
5040
9E40
9140
9140
9140
5E40
4080
3F00
ENDCHAR
STARTCHAR 24D2
ENCODING 9426
SWIDTH 900 0
DWIDTH 10 0
BBX 10 10 0 -2
BITMAP
3F00
4080
4C40
9240
9040
9040
9240
4E40
4080
3F00
ENDCHAR
STARTCHAR 24D3
ENCODING 9427
SWIDTH 900 0
DWIDTH 10 0
BBX 10 10 0 -2
BITMAP
3F00
4280
4240
8E40
9240
9240
9240
5E40
4080
3F00
ENDCHAR
STARTCHAR 24D4
ENCODING 9428
SWIDTH 900 0
DWIDTH 10 0
BBX 10 10 0 -2
BITMAP
3F00
4080
5E40
9240
9E40
9040
9240
4C40
4080
3F00
ENDCHAR
STARTCHAR 24D5
ENCODING 9429
SWIDTH 900 0
DWIDTH 10 0
BBX 10 10 0 -2
BITMAP
3F00
4080
4440
8840
8840
8840
8840
4840
4880
3F00
ENDCHAR
STARTCHAR 24D6
ENCODING 9430
SWIDTH 900 0
DWIDTH 10 0
BBX 10 10 0 -2
BITMAP
3F00
4080
4E40
9240
9240
8E40
8240
5E40
4080
3F00
ENDCHAR
STARTCHAR 24D7
ENCODING 9431
SWIDTH 900 0
DWIDTH 10 0
BBX 10 10 0 -2
BITMAP
3F00
4080
5040
9040
9E40
9240
9240
5240
4080
3F00
ENDCHAR
STARTCHAR 24D8
ENCODING 9432
SWIDTH 900 0
DWIDTH 10 0
BBX 10 10 0 -2
BITMAP
3F00
4080
4440
8040
8440
8440
8440
4440
4080
3F00
ENDCHAR
STARTCHAR 24D9
ENCODING 9433
SWIDTH 900 0
DWIDTH 10 0
BBX 10 10 0 -2
BITMAP
3F00
4080
4440
8040
8440
8440
8440
4C40
4080
3F00
ENDCHAR
STARTCHAR 24DA
ENCODING 9434
SWIDTH 900 0
DWIDTH 10 0
BBX 10 10 0 -2
BITMAP
3F00
4080
5040
9240
9440
9C40
9240
5240
4080
3F00
ENDCHAR
STARTCHAR 24DB
ENCODING 9435
SWIDTH 900 0
DWIDTH 10 0
BBX 10 10 0 -2
BITMAP
3F00
4080
4440
8440
8440
8440
8440
4440
4080
3F00
ENDCHAR
STARTCHAR 24DC
ENCODING 9436
SWIDTH 900 0
DWIDTH 10 0
BBX 10 10 0 -2
BITMAP
3F00
4080
4040
BB40
A4C0
A4C0
A4C0
4040
4080
3F00
ENDCHAR
STARTCHAR 24DD
ENCODING 9437
SWIDTH 900 0
DWIDTH 10 0
BBX 10 10 0 -2
BITMAP
3F00
4080
5E40
9240
9240
9240
9240
4040
4080
3F00
ENDCHAR
STARTCHAR 24DE
ENCODING 9438
SWIDTH 900 0
DWIDTH 10 0
BBX 10 10 0 -2
BITMAP
3F00
4080
4040
8E40
9140
9140
9240
4C40
4080
3F00
ENDCHAR
STARTCHAR 24DF
ENCODING 9439
SWIDTH 900 0
DWIDTH 10 0
BBX 10 10 0 -2
BITMAP
3F00
4080
5E40
9140
9140
9240
9E40
5040
5080
3F00
ENDCHAR
STARTCHAR 24E0
ENCODING 9440
SWIDTH 900 0
DWIDTH 10 0
BBX 10 10 0 -2
BITMAP
3F00
4080
5E40
9240
9240
9240
8E40
4240
4080
3F00
ENDCHAR
STARTCHAR 24E1
ENCODING 9441
SWIDTH 900 0
DWIDTH 10 0
BBX 10 10 0 -2
BITMAP
3F00
4080
4040
8C40
8840
8840
8840
4840
4080
3F00
ENDCHAR
STARTCHAR 24E2
ENCODING 9442
SWIDTH 900 0
DWIDTH 10 0
BBX 10 10 0 -2
BITMAP
3F00
4080
4E40
9240
8C40
8240
9240
4E40
4080
3F00
ENDCHAR
STARTCHAR 24E3
ENCODING 9443
SWIDTH 900 0
DWIDTH 10 0
BBX 10 10 0 -2
BITMAP
3F00
4080
4840
8840
8840
8840
8840
4440
4080
3F00
ENDCHAR
STARTCHAR 24E4
ENCODING 9444
SWIDTH 900 0
DWIDTH 10 0
BBX 10 10 0 -2
BITMAP
3F00
4080
4040
9240
9240
9240
9240
4E40
4080
3F00
ENDCHAR
STARTCHAR 24E5
ENCODING 9445
SWIDTH 900 0
DWIDTH 10 0
BBX 10 10 0 -2
BITMAP
3F00
4080
4040
9240
9240
8A40
8C40
4440
4080
3F00
ENDCHAR
STARTCHAR 24E6
ENCODING 9446
SWIDTH 900 0
DWIDTH 10 0
BBX 10 10 0 -2
BITMAP
3F00
4080
4040
A4C0
AD40
AD40
9240
5240
4080
3F00
ENDCHAR
STARTCHAR 24E7
ENCODING 9447
SWIDTH 900 0
DWIDTH 10 0
BBX 10 10 0 -2
BITMAP
3F00
4080
4040
9240
8C40
8440
8A40
5240
4080
3F00
ENDCHAR
STARTCHAR 24E8
ENCODING 9448
SWIDTH 900 0
DWIDTH 10 0
BBX 10 10 0 -2
BITMAP
3F00
4080
5240
9240
8A40
8C40
8440
4840
4080
3F00
ENDCHAR
STARTCHAR 24E9
ENCODING 9449
SWIDTH 900 0
DWIDTH 10 0
BBX 10 10 0 -2
BITMAP
3F00
4080
5E40
8240
8440
8840
9E40
4040
4080
3F00
ENDCHAR
STARTCHAR 24EB
ENCODING 9451
SWIDTH 900 0
DWIDTH 10 0
BBX 10 10 0 -2
BITMAP
1F00
7F80
6DC0
FFC0
FFC0
FFC0
7FC0
7F80
3F00
0C00
ENDCHAR
STARTCHAR 24EC
ENCODING 9452
SWIDTH 900 0
DWIDTH 10 0
BBX 10 10 0 -2
BITMAP
1F00
6D80
6FC0
EFC0
EEC0
EDC0
6BC0
6880
3F00
0C00
ENDCHAR
STARTCHAR 24ED
ENCODING 9453
SWIDTH 900 0
DWIDTH 10 0
BBX 10 10 0 -2
BITMAP
1F00
7D80
7EC0
FEC0
FDC0
FFC0
77C0
7A80
3F00
0C00
ENDCHAR
STARTCHAR 24EE
ENCODING 9454
SWIDTH 900 0
DWIDTH 10 0
BBX 10 10 0 -2
BITMAP
1F00
6F80
6DC0
EFC0
EBC0
EFC0
6FC0
6F80
3F00
0C00
ENDCHAR
STARTCHAR 24EF
ENCODING 9455
SWIDTH 900 0
DWIDTH 10 0
BBX 10 10 0 -2
BITMAP
1F00
6880
6FC0
EFC0
EEC0
EFC0
6FC0
6A80
3F00
0C00
ENDCHAR
STARTCHAR 24F0
ENCODING 9456
SWIDTH 900 0
DWIDTH 10 0
BBX 10 10 0 -2
BITMAP
1F00
7D80
7EC0
FFC0
F2C0
F7C0
7FC0
7A80
3F00
0C00
ENDCHAR
STARTCHAR 24F1
ENCODING 9457
SWIDTH 900 0
DWIDTH 10 0
BBX 10 10 0 -2
BITMAP
1F00
7F80
6FC0
EFC0
EDC0
EFC0
6FC0
6B80
3F00
0C00
ENDCHAR
STARTCHAR 24F2
ENCODING 9458
SWIDTH 900 0
DWIDTH 10 0
BBX 10 10 0 -2
BITMAP
1F00
6D80
6FC0
EFC0
E8C0
EFC0
77C0
6A80
3F00
0C00
ENDCHAR
STARTCHAR 24F3
ENCODING 9459
SWIDTH 900 0
DWIDTH 10 0
BBX 10 10 0 -2
BITMAP
1F00
6D80
6FC0
EFC0
EF40
EDC0
6FC0
6880
3F00
0C00
ENDCHAR
STARTCHAR 24F4
ENCODING 9460
SWIDTH 900 0
DWIDTH 10 0
BBX 10 10 0 -2
BITMAP
1F00
6C80
57C0
FB40
FB40
EB40
5FC0
4480
3F00
0C00
ENDCHAR
STARTCHAR 2500
ENCODING 9472
SWIDTH 900 0
DWIDTH 10 0
BBX 0 0 0 3
BITMAP
ENDCHAR
STARTCHAR 2501
ENCODING 9473
SWIDTH 900 0
DWIDTH 10 0
BBX 10 1 0 3
BITMAP
FFC0
ENDCHAR
STARTCHAR 2502
ENCODING 9474
SWIDTH 900 0
DWIDTH 10 0
BBX 1 9 5 -1
BITMAP
80
80
80
80
80
80
80
80
80
ENDCHAR
STARTCHAR 2503
ENCODING 9475
SWIDTH 900 0
DWIDTH 10 0
BBX 1 11 5 -2
BITMAP
80
80
80
80
80
80
80
80
80
80
80
ENDCHAR
STARTCHAR 250C
ENCODING 9484
SWIDTH 900 0
DWIDTH 10 0
BBX 4 5 5 -2
BITMAP
70
80
80
80
80
ENDCHAR
STARTCHAR 250D
ENCODING 9485
SWIDTH 900 0
DWIDTH 10 0
BBX 5 5 5 -2
BITMAP
F8
80
80
80
80
ENDCHAR
STARTCHAR 250E
ENCODING 9486
SWIDTH 900 0
DWIDTH 10 0
BBX 4 6 5 -2
BITMAP
F0
80
80
80
80
80
ENDCHAR
STARTCHAR 250F
ENCODING 9487
SWIDTH 900 0
DWIDTH 10 0
BBX 5 6 5 -2
BITMAP
F8
80
80
80
80
80
ENDCHAR
STARTCHAR 2510
ENCODING 9488
SWIDTH 900 0
DWIDTH 10 0
BBX 4 5 1 -2
BITMAP
E0
10
10
10
10
ENDCHAR
STARTCHAR 2511
ENCODING 9489
SWIDTH 900 0
DWIDTH 10 0
BBX 5 5 0 -2
BITMAP
F8
08
08
08
08
ENDCHAR
STARTCHAR 2512
ENCODING 9490
SWIDTH 900 0
DWIDTH 10 0
BBX 5 6 1 -2
BITMAP
F8
08
08
08
08
08
ENDCHAR
STARTCHAR 2513
ENCODING 9491
SWIDTH 900 0
DWIDTH 10 0
BBX 5 6 0 -2
BITMAP
F8
08
08
08
08
08
ENDCHAR
STARTCHAR 2514
ENCODING 9492
SWIDTH 900 0
DWIDTH 10 0
BBX 4 5 5 4
BITMAP
80
80
80
80
70
ENDCHAR
STARTCHAR 2515
ENCODING 9493
SWIDTH 900 0
DWIDTH 10 0
BBX 5 5 5 4
BITMAP
80
80
80
80
F8
ENDCHAR
STARTCHAR 2516
ENCODING 9494
SWIDTH 900 0
DWIDTH 10 0
BBX 5 6 5 3
BITMAP
80
80
80
80
80
F8
ENDCHAR
STARTCHAR 2517
ENCODING 9495
SWIDTH 900 0
DWIDTH 10 0
BBX 5 6 5 3
BITMAP
80
80
80
80
80
F8
ENDCHAR
STARTCHAR 2518
ENCODING 9496
SWIDTH 900 0
DWIDTH 10 0
BBX 4 5 1 4
BITMAP
10
10
10
10
E0
ENDCHAR
STARTCHAR 2519
ENCODING 9497
SWIDTH 900 0
DWIDTH 10 0
BBX 5 5 0 4
BITMAP
08
08
08
08
F8
ENDCHAR
STARTCHAR 251A
ENCODING 9498
SWIDTH 900 0
DWIDTH 10 0
BBX 6 6 0 3
BITMAP
04
04
04
04
04
FC
ENDCHAR
STARTCHAR 251B
ENCODING 9499
SWIDTH 900 0
DWIDTH 10 0
BBX 5 6 0 3
BITMAP
08
08
08
08
08
F8
ENDCHAR
STARTCHAR 251C
ENCODING 9500
SWIDTH 900 0
DWIDTH 10 0
BBX 4 9 5 -1
BITMAP
80
80
80
80
F0
80
80
80
80
ENDCHAR
STARTCHAR 251D
ENCODING 9501
SWIDTH 900 0
DWIDTH 10 0
BBX 5 9 5 -1
BITMAP
80
80
80
80
F8
80
80
80
80
ENDCHAR
STARTCHAR 251E
ENCODING 9502
SWIDTH 900 0
DWIDTH 10 0
BBX 5 10 5 -2
BITMAP
80
80
80
80
80
F8
80
80
80
80
ENDCHAR
STARTCHAR 251F
ENCODING 9503
SWIDTH 900 0
DWIDTH 10 0
BBX 4 10 5 -1
BITMAP
80
80
80
80
F0
80
80
80
80
80
ENDCHAR
STARTCHAR 2520
ENCODING 9504
SWIDTH 900 0
DWIDTH 10 0
BBX 4 11 5 -2
BITMAP
80
80
80
80
80
F0
80
80
80
80
80
ENDCHAR
STARTCHAR 2521
ENCODING 9505
SWIDTH 900 0
DWIDTH 10 0
BBX 5 10 5 -2
BITMAP
80
80
80
80
80
F8
80
80
80
80
ENDCHAR
STARTCHAR 2522
ENCODING 9506
SWIDTH 900 0
DWIDTH 10 0
BBX 5 10 5 -1
BITMAP
80
80
80
80
F8
80
80
80
80
80
ENDCHAR
STARTCHAR 2523
ENCODING 9507
SWIDTH 900 0
DWIDTH 10 0
BBX 5 11 5 -2
BITMAP
80
80
80
80
80
F8
80
80
80
80
80
ENDCHAR
STARTCHAR 2524
ENCODING 9508
SWIDTH 900 0
DWIDTH 10 0
BBX 4 9 1 -1
BITMAP
10
10
10
10
F0
10
10
10
10
ENDCHAR
STARTCHAR 2525
ENCODING 9509
SWIDTH 900 0
DWIDTH 10 0
BBX 5 9 0 -1
BITMAP
08
08
08
08
F8
08
08
08
08
ENDCHAR
STARTCHAR 2526
ENCODING 9510
SWIDTH 900 0
DWIDTH 10 0
BBX 5 10 1 -2
BITMAP
08
08
08
08
08
F8
08
08
08
08
ENDCHAR
STARTCHAR 2527
ENCODING 9511
SWIDTH 900 0
DWIDTH 10 0
BBX 5 10 1 -1
BITMAP
08
08
08
08
08
F8
08
08
08
08
ENDCHAR
STARTCHAR 2528
ENCODING 9512
SWIDTH 900 0
DWIDTH 10 0
BBX 5 11 1 -2
BITMAP
08
08
08
08
08
F8
08
08
08
08
08
ENDCHAR
STARTCHAR 2529
ENCODING 9513
SWIDTH 900 0
DWIDTH 10 0
BBX 6 10 0 -2
BITMAP
04
04
04
04
04
F8
04
04
04
04
ENDCHAR
STARTCHAR 252A
ENCODING 9514
SWIDTH 900 0
DWIDTH 10 0
BBX 6 10 0 -1
BITMAP
04
04
04
04
FC
04
04
04
04
04
ENDCHAR
STARTCHAR 252B
ENCODING 9515
SWIDTH 900 0
DWIDTH 10 0
BBX 5 11 0 -2
BITMAP
08
08
08
08
08
F8
08
08
08
08
08
ENDCHAR
STARTCHAR 252C
ENCODING 9516
SWIDTH 900 0
DWIDTH 10 0
BBX 8 5 1 -2
BITMAP
FF
08
08
08
08
ENDCHAR
STARTCHAR 252D
ENCODING 9517
SWIDTH 900 0
DWIDTH 10 0
BBX 9 5 0 -2
BITMAP
FF80
0400
0400
0400
0400
ENDCHAR
STARTCHAR 252E
ENCODING 9518
SWIDTH 900 0
DWIDTH 10 0
BBX 9 5 1 -2
BITMAP
FF80
0800
0800
0800
0800
ENDCHAR
STARTCHAR 252F
ENCODING 9519
SWIDTH 900 0
DWIDTH 10 0
BBX 10 5 0 -2
BITMAP
FFC0
0400
0400
0400
0400
ENDCHAR
STARTCHAR 2530
ENCODING 9520
SWIDTH 900 0
DWIDTH 10 0
BBX 8 6 1 -2
BITMAP
FF
08
08
08
08
08
ENDCHAR
STARTCHAR 2531
ENCODING 9521
SWIDTH 900 0
DWIDTH 10 0
BBX 9 6 0 -2
BITMAP
FF80
0400
0400
0400
0400
0400
ENDCHAR
STARTCHAR 2532
ENCODING 9522
SWIDTH 900 0
DWIDTH 10 0
BBX 9 6 1 -2
BITMAP
FF80
0800
0800
0800
0800
0800
ENDCHAR
STARTCHAR 2533
ENCODING 9523
SWIDTH 900 0
DWIDTH 10 0
BBX 10 6 0 -2
BITMAP
FFC0
0400
0400
0400
0400
0400
ENDCHAR
STARTCHAR 2534
ENCODING 9524
SWIDTH 900 0
DWIDTH 10 0
BBX 8 5 1 4
BITMAP
08
08
08
08
FF
ENDCHAR
STARTCHAR 2535
ENCODING 9525
SWIDTH 900 0
DWIDTH 10 0
BBX 9 5 0 4
BITMAP
0400
0400
0400
0400
FF80
ENDCHAR
STARTCHAR 2536
ENCODING 9526
SWIDTH 900 0
DWIDTH 10 0
BBX 9 5 1 4
BITMAP
0800
0800
0800
0800
FF80
ENDCHAR
STARTCHAR 2537
ENCODING 9527
SWIDTH 900 0
DWIDTH 10 0
BBX 10 5 0 4
BITMAP
0400
0400
0400
0400
FFC0
ENDCHAR
STARTCHAR 2538
ENCODING 9528
SWIDTH 900 0
DWIDTH 10 0
BBX 10 6 0 3
BITMAP
0400
0400
0400
0400
0400
FFC0
ENDCHAR
STARTCHAR 2539
ENCODING 9529
SWIDTH 900 0
DWIDTH 10 0
BBX 9 6 0 3
BITMAP
0400
0400
0400
0400
0400
FF80
ENDCHAR
STARTCHAR 253A
ENCODING 9530
SWIDTH 900 0
DWIDTH 10 0
BBX 9 6 1 3
BITMAP
0800
0800
0800
0800
0800
FF80
ENDCHAR
STARTCHAR 253B
ENCODING 9531
SWIDTH 900 0
DWIDTH 10 0
BBX 10 6 0 3
BITMAP
0400
0400
0400
0400
0400
FFC0
ENDCHAR
STARTCHAR 253C
ENCODING 9532
SWIDTH 900 0
DWIDTH 10 0
BBX 8 9 1 -1
BITMAP
08
08
08
08
FF
08
08
08
08
ENDCHAR
STARTCHAR 253D
ENCODING 9533
SWIDTH 900 0
DWIDTH 10 0
BBX 10 9 0 -1
BITMAP
0400
0400
0400
0400
FFC0
0400
0400
0400
0400
ENDCHAR
STARTCHAR 253E
ENCODING 9534
SWIDTH 900 0
DWIDTH 10 0
BBX 10 9 0 -1
BITMAP
0400
0400
0400
0400
FFC0
0400
0400
0400
0400
ENDCHAR
STARTCHAR 253F
ENCODING 9535
SWIDTH 900 0
DWIDTH 10 0
BBX 10 9 0 -1
BITMAP
0400
0400
0400
0400
FFC0
0400
0400
0400
0400
ENDCHAR
STARTCHAR 2540
ENCODING 9536
SWIDTH 900 0
DWIDTH 10 0
BBX 8 10 1 -2
BITMAP
08
08
08
08
08
FF
08
08
08
08
ENDCHAR
STARTCHAR 2541
ENCODING 9537
SWIDTH 900 0
DWIDTH 10 0
BBX 10 10 0 -1
BITMAP
0400
0400
0400
0400
FFC0
0400
0400
0400
0400
0400
ENDCHAR
STARTCHAR 2542
ENCODING 9538
SWIDTH 900 0
DWIDTH 10 0
BBX 8 11 1 -2
BITMAP
08
08
08
08
08
FF
08
08
08
08
08
ENDCHAR
STARTCHAR 2543
ENCODING 9539
SWIDTH 900 0
DWIDTH 10 0
BBX 9 10 0 -2
BITMAP
0400
0400
0400
0400
0400
FB80
0400
0400
0400
0400
ENDCHAR
STARTCHAR 2544
ENCODING 9540
SWIDTH 900 0
DWIDTH 10 0
BBX 9 10 1 -2
BITMAP
0800
0800
0800
0800
0800
FF80
0800
0800
0800
0800
ENDCHAR
STARTCHAR 2545
ENCODING 9541
SWIDTH 900 0
DWIDTH 10 0
BBX 9 10 0 -1
BITMAP
0400
0400
0400
0400
FF80
0400
0400
0400
0400
0400
ENDCHAR
STARTCHAR 2546
ENCODING 9542
SWIDTH 900 0
DWIDTH 10 0
BBX 9 10 1 -1
BITMAP
0800
0800
0800
0800
FF80
0800
0800
0800
0800
0800
ENDCHAR
STARTCHAR 2547
ENCODING 9543
SWIDTH 900 0
DWIDTH 10 0
BBX 10 10 0 -2
BITMAP
0400
0400
0400
0400
0400
FFC0
0400
0400
0400
0400
ENDCHAR
STARTCHAR 2548
ENCODING 9544
SWIDTH 900 0
DWIDTH 10 0
BBX 10 10 0 -1
BITMAP
0400
0400
0400
0400
FFC0
0400
0400
0400
0400
0400
ENDCHAR
STARTCHAR 2549
ENCODING 9545
SWIDTH 900 0
DWIDTH 10 0
BBX 9 11 0 -2
BITMAP
0400
0400
0400
0400
0400
FF80
0400
0400
0400
0400
0400
ENDCHAR
STARTCHAR 254A
ENCODING 9546
SWIDTH 900 0
DWIDTH 10 0
BBX 9 11 1 -2
BITMAP
0800
0800
0800
0800
0800
FF80
0800
0800
0800
0800
0800
ENDCHAR
STARTCHAR 254B
ENCODING 9547
SWIDTH 900 0
DWIDTH 10 0
BBX 10 11 0 -2
BITMAP
0400
0400
0400
0400
0400
FFC0
0400
0400
0400
0400
0400
ENDCHAR
STARTCHAR 2592
ENCODING 9618
SWIDTH 900 0
DWIDTH 10 0
BBX 8 8 1 -1
BITMAP
FF
81
81
81
81
81
81
FF
ENDCHAR
STARTCHAR 25A0
ENCODING 9632
SWIDTH 900 0
DWIDTH 10 0
BBX 8 8 1 -1
BITMAP
FF
FF
FF
FF
FF
FF
FF
FF
ENDCHAR
STARTCHAR 25A1
ENCODING 9633
SWIDTH 900 0
DWIDTH 10 0
BBX 8 8 1 -1
BITMAP
FF
81
81
81
81
81
81
FF
ENDCHAR
STARTCHAR 25A3
ENCODING 9635
SWIDTH 900 0
DWIDTH 10 0
BBX 8 8 1 -1
BITMAP
FF
BF
BF
BF
BF
BF
81
FF
ENDCHAR
STARTCHAR 25A4
ENCODING 9636
SWIDTH 900 0
DWIDTH 10 0
BBX 8 8 1 -1
BITMAP
FF
81
FF
FF
FF
FF
FF
FF
ENDCHAR
STARTCHAR 25A5
ENCODING 9637
SWIDTH 900 0
DWIDTH 10 0
BBX 8 8 1 -1
BITMAP
FF
FF
FF
FF
FF
FF
FF
FF
ENDCHAR
STARTCHAR 25A6
ENCODING 9638
SWIDTH 900 0
DWIDTH 10 0
BBX 8 8 1 -1
BITMAP
FF
FF
FF
FF
FF
FF
FF
FF
ENDCHAR
STARTCHAR 25A7
ENCODING 9639
SWIDTH 900 0
DWIDTH 10 0
BBX 8 8 1 -1
BITMAP
FF
D5
EB
B5
DB
AD
D7
FF
ENDCHAR
STARTCHAR 25A8
ENCODING 9640
SWIDTH 900 0
DWIDTH 10 0
BBX 8 8 1 -1
BITMAP
FF
AB
D5
AB
D5
AB
D7
FF
ENDCHAR
STARTCHAR 25A9
ENCODING 9641
SWIDTH 900 0
DWIDTH 10 0
BBX 8 8 1 -1
BITMAP
FF
BF
DF
AB
D7
AB
D7
FF
ENDCHAR
STARTCHAR 25B1
ENCODING 9649
SWIDTH 900 0
DWIDTH 10 0
BBX 7 5 2 1
BITMAP
7E
82
82
84
FC
ENDCHAR
STARTCHAR 25B2
ENCODING 9650
SWIDTH 900 0
DWIDTH 10 0
BBX 8 7 1 0
BITMAP
08
18
1C
3C
7E
7F
FF
ENDCHAR
STARTCHAR 25B3
ENCODING 9651
SWIDTH 900 0
DWIDTH 10 0
BBX 8 7 1 0
BITMAP
08
18
24
22
42
41
FF
ENDCHAR
STARTCHAR 25B5
ENCODING 9653
SWIDTH 900 0
DWIDTH 10 0
BBX 8 6 1 1
BITMAP
18
14
24
42
42
FF
ENDCHAR
STARTCHAR 25B6
ENCODING 9654
SWIDTH 900 0
DWIDTH 10 0
BBX 6 8 2 0
BITMAP
80
E0
F8
FC
F8
F0
C0
80
ENDCHAR
STARTCHAR 25B7
ENCODING 9655
SWIDTH 900 0
DWIDTH 10 0
BBX 6 8 2 0
BITMAP
C0
B0
88
84
88
90
E0
80
ENDCHAR
STARTCHAR 25B9
ENCODING 9657
SWIDTH 900 0
DWIDTH 10 0
BBX 6 8 2 0
BITMAP
C0
A0
98
84
88
B0
C0
80
ENDCHAR
STARTCHAR 25BC
ENCODING 9660
SWIDTH 900 0
DWIDTH 10 0
BBX 8 7 1 0
BITMAP
FF
7F
7E
3C
1C
18
08
ENDCHAR
STARTCHAR 25BD
ENCODING 9661
SWIDTH 900 0
DWIDTH 10 0
BBX 8 7 1 0
BITMAP
FF
41
42
22
24
18
08
ENDCHAR
STARTCHAR 25BF
ENCODING 9663
SWIDTH 900 0
DWIDTH 10 0
BBX 8 7 1 0
BITMAP
FF
41
42
22
24
18
08
ENDCHAR
STARTCHAR 25C0
ENCODING 9664
SWIDTH 900 0
DWIDTH 10 0
BBX 7 9 2 -1
BITMAP
02
06
1E
3E
FE
7E
1E
0E
02
ENDCHAR
STARTCHAR 25C1
ENCODING 9665
SWIDTH 900 0
DWIDTH 10 0
BBX 7 9 2 -1
BITMAP
02
0E
12
62
82
42
32
0A
06
ENDCHAR
STARTCHAR 25C3
ENCODING 9667
SWIDTH 900 0
DWIDTH 10 0
BBX 7 9 2 -1
BITMAP
02
06
1A
22
C2
62
12
0E
02
ENDCHAR
STARTCHAR 25C6
ENCODING 9670
SWIDTH 900 0
DWIDTH 10 0
BBX 9 10 1 -2
BITMAP
0800
1C00
3E00
7F00
FF80
FF80
7F00
3E00
1C00
0800
ENDCHAR
STARTCHAR 25C7
ENCODING 9671
SWIDTH 900 0
DWIDTH 10 0
BBX 9 10 1 -2
BITMAP
0800
1400
2200
4100
8080
8080
4100
2200
1400
0800
ENDCHAR
STARTCHAR 25C8
ENCODING 9672
SWIDTH 900 0
DWIDTH 10 0
BBX 10 9 0 -1
BITMAP
0C00
1200
2D00
5E80
BF40
5E80
2D00
1200
0C00
ENDCHAR
STARTCHAR 25C9
ENCODING 9673
SWIDTH 900 0
DWIDTH 10 0
BBX 8 9 1 -1
BITMAP
3E
41
81
99
BD
99
81
41
3E
ENDCHAR
STARTCHAR 25CA
ENCODING 9674
SWIDTH 900 0
DWIDTH 10 0
BBX 8 9 1 -1
BITMAP
08
18
24
42
C1
42
22
14
18
ENDCHAR
STARTCHAR 25CB
ENCODING 9675
SWIDTH 900 0
DWIDTH 10 0
BBX 8 8 1 -1
BITMAP
3C
42
81
81
81
81
42
3C
ENDCHAR
STARTCHAR 25CC
ENCODING 9676
SWIDTH 900 0
DWIDTH 10 0
BBX 10 9 0 -1
BITMAP
4000
0040
0000
8000
0000
0040
0000
0000
0400
ENDCHAR
STARTCHAR 25CE
ENCODING 9678
SWIDTH 900 0
DWIDTH 10 0
BBX 9 9 1 -1
BITMAP
3C00
4200
BD00
C280
C280
C280
BD00
4200
3C00
ENDCHAR
STARTCHAR 25CF
ENCODING 9679
SWIDTH 900 0
DWIDTH 10 0
BBX 8 8 1 -1
BITMAP
3C
7E
FF
FF
FF
FF
7E
3C
ENDCHAR
STARTCHAR 25D0
ENCODING 9680
SWIDTH 900 0
DWIDTH 10 0
BBX 8 9 1 -1
BITMAP
1C
72
71
F1
F1
F1
F1
71
3E
ENDCHAR
STARTCHAR 25D1
ENCODING 9681
SWIDTH 900 0
DWIDTH 10 0
BBX 8 9 1 -1
BITMAP
38
4E
8F
8F
8F
8F
8F
4E
3C
ENDCHAR
STARTCHAR 25E6
ENCODING 9702
SWIDTH 900 0
DWIDTH 10 0
BBX 6 6 2 0
BITMAP
78
84
84
84
4C
30
ENDCHAR
STARTCHAR 25EF
ENCODING 9711
SWIDTH 900 0
DWIDTH 10 0
BBX 10 10 0 -2
BITMAP
3F00
4080
4040
8040
8040
8040
8040
4080
2100
1E00
ENDCHAR
STARTCHAR 2605
ENCODING 9733
SWIDTH 900 0
DWIDTH 10 0
BBX 8 8 1 0
BITMAP
08
18
FF
3E
3C
3C
26
42
ENDCHAR
STARTCHAR 2606
ENCODING 9734
SWIDTH 900 0
DWIDTH 10 0
BBX 8 8 1 0
BITMAP
08
18
E7
62
24
3A
66
40
ENDCHAR
STARTCHAR 260E
ENCODING 9742
SWIDTH 900 0
DWIDTH 10 0
BBX 10 7 0 0
BITMAP
1E00
7780
FFC0
1240
3100
7180
7F80
ENDCHAR
STARTCHAR 260F
ENCODING 9743
SWIDTH 900 0
DWIDTH 10 0
BBX 10 7 0 0
BITMAP
3E00
55C0
9D40
7BC0
3280
5280
7F80
ENDCHAR
STARTCHAR 261C
ENCODING 9756
SWIDTH 900 0
DWIDTH 10 0
BBX 8 3 1 2
BITMAP
FF
29
1F
ENDCHAR
STARTCHAR 261D
ENCODING 9757
SWIDTH 900 0
DWIDTH 10 0
BBX 3 8 4 -1
BITMAP
80
80
80
E0
A0
A0
A0
E0
ENDCHAR
STARTCHAR 261E
ENCODING 9758
SWIDTH 900 0
DWIDTH 10 0
BBX 8 3 1 2
BITMAP
FF
94
F8
ENDCHAR
STARTCHAR 261F
ENCODING 9759
SWIDTH 900 0
DWIDTH 10 0
BBX 3 8 4 0
BITMAP
C0
A0
A0
A0
E0
E0
80
80
ENDCHAR
STARTCHAR 262F
ENCODING 9775
SWIDTH 900 0
DWIDTH 10 0
BBX 8 9 1 -1
BITMAP
3C
42
81
83
8F
9F
FF
7E
3C
ENDCHAR
STARTCHAR 2640
ENCODING 9792
SWIDTH 900 0
DWIDTH 10 0
BBX 4 8 3 -1
BITMAP
70
90
90
50
20
F0
20
20
ENDCHAR
STARTCHAR 2642
ENCODING 9794
SWIDTH 900 0
DWIDTH 10 0
BBX 5 9 3 -1
BITMAP
20
50
A8
20
20
50
90
90
70
ENDCHAR
STARTCHAR 2660
ENCODING 9824
SWIDTH 900 0
DWIDTH 10 0
BBX 7 9 2 -1
BITMAP
10
30
78
7C
FC
FE
FE
30
30
ENDCHAR
STARTCHAR 2661
ENCODING 9825
SWIDTH 900 0
DWIDTH 10 0
BBX 8 8 1 -1
BITMAP
FF
89
81
41
42
22
14
08
ENDCHAR
STARTCHAR 2663
ENCODING 9827
SWIDTH 900 0
DWIDTH 10 0
BBX 9 9 1 -1
BITMAP
1800
3C00
3C00
1800
FF00
FF80
FF00
7B00
1800
ENDCHAR
STARTCHAR 2664
ENCODING 9828
SWIDTH 900 0
DWIDTH 10 0
BBX 7 9 2 -1
BITMAP
10
28
48
84
82
82
A2
7C
38
ENDCHAR
STARTCHAR 2665
ENCODING 9829
SWIDTH 900 0
DWIDTH 10 0
BBX 8 8 1 -1
BITMAP
77
FF
FF
7F
7E
3C
1C
08
ENDCHAR
STARTCHAR 2667
ENCODING 9831
SWIDTH 900 0
DWIDTH 10 0
BBX 9 9 1 -1
BITMAP
1800
2400
2400
5600
B500
8080
9080
7F00
1C00
ENDCHAR
STARTCHAR 2668
ENCODING 9832
SWIDTH 900 0
DWIDTH 10 0
BBX 9 9 1 -1
BITMAP
0800
0800
3400
2C00
2C00
6C00
AC80
A100
7E00
ENDCHAR
STARTCHAR 2669
ENCODING 9833
SWIDTH 360 0
DWIDTH 4 0
BBX 2 7 1 0
BITMAP
40
40
40
40
40
C0
80
ENDCHAR
STARTCHAR 266A
ENCODING 9834
SWIDTH 540 0
DWIDTH 6 0
BBX 4 8 1 -1
BITMAP
40
60
50
50
50
40
C0
80
ENDCHAR
STARTCHAR 266C
ENCODING 9836
SWIDTH 720 0
DWIDTH 8 0
BBX 6 8 1 -1
BITMAP
1C
64
7C
44
44
4C
C8
80
ENDCHAR
STARTCHAR 266D
ENCODING 9837
SWIDTH 540 0
DWIDTH 6 0
BBX 4 7 1 0
BITMAP
80
80
E0
90
90
A0
E0
ENDCHAR
STARTCHAR 266F
ENCODING 9839
SWIDTH 900 0
DWIDTH 10 0
BBX 6 9 2 -1
BITMAP
08
08
5C
E8
48
48
FC
48
08
ENDCHAR
STARTCHAR 2716
ENCODING 10006
SWIDTH 900 0
DWIDTH 10 0
BBX 8 7 1 -1
BITMAP
66
FF
7E
3C
7E
FF
66
ENDCHAR
STARTCHAR 271A
ENCODING 10010
SWIDTH 900 0
DWIDTH 10 0
BBX 8 9 1 -1
BITMAP
1C
1C
1C
FF
FF
FF
1C
1C
1C
ENDCHAR
STARTCHAR 273D
ENCODING 10045
SWIDTH 900 0
DWIDTH 10 0
BBX 6 6 2 0
BITMAP
10
DC
10
4C
10
10
ENDCHAR
STARTCHAR 2756
ENCODING 10070
SWIDTH 900 0
DWIDTH 10 0
BBX 8 8 1 0
BITMAP
18
1C
4A
E7
63
18
1C
08
ENDCHAR
STARTCHAR 2776
ENCODING 10102
SWIDTH 900 0
DWIDTH 10 0
BBX 10 10 0 -2
BITMAP
1F00
7B80
73C0
FBC0
FBC0
FBC0
7BC0
7B80
3F00
0C00
ENDCHAR
STARTCHAR 2777
ENCODING 10103
SWIDTH 900 0
DWIDTH 10 0
BBX 10 10 0 -2
BITMAP
1F00
7180
6FC0
FFC0
FDC0
F7C0
6FC0
6180
3F00
0C00
ENDCHAR
STARTCHAR 2778
ENCODING 10104
SWIDTH 900 0
DWIDTH 10 0
BBX 10 10 0 -2
BITMAP
1F00
7380
6FC0
FDC0
FBC0
FFC0
6FC0
7580
3F00
0C00
ENDCHAR
STARTCHAR 2779
ENCODING 10105
SWIDTH 900 0
DWIDTH 10 0
BBX 10 10 0 -2
BITMAP
1F00
7B80
7FC0
F7C0
EFC0
FFC0
7FC0
7F80
3F00
0C00
ENDCHAR
STARTCHAR 277A
ENCODING 10106
SWIDTH 900 0
DWIDTH 10 0
BBX 10 10 0 -2
BITMAP
1F00
7180
7FC0
EFC0
EDC0
FFC0
6FC0
7580
3F00
0C00
ENDCHAR
STARTCHAR 277B
ENCODING 10107
SWIDTH 900 0
DWIDTH 10 0
BBX 10 10 0 -2
BITMAP
1F00
7380
6DC0
EFC0
EDC0
EFC0
6FC0
7580
3F00
0C00
ENDCHAR
STARTCHAR 277C
ENCODING 10108
SWIDTH 900 0
DWIDTH 10 0
BBX 10 10 0 -2
BITMAP
1F00
7F80
7DC0
FFC0
FBC0
FFC0
77C0
7780
3F00
0C00
ENDCHAR
STARTCHAR 277D
ENCODING 10109
SWIDTH 900 0
DWIDTH 10 0
BBX 10 10 0 -2
BITMAP
1F00
7380
6DC0
EDC0
F3C0
EFC0
6FC0
6D80
3F00
0C00
ENDCHAR
STARTCHAR 277E
ENCODING 10110
SWIDTH 900 0
DWIDTH 10 0
BBX 10 10 0 -2
BITMAP
1F00
7380
6DC0
EFC0
EDC0
F3C0
6FC0
7580
3F00
0C00
ENDCHAR
STARTCHAR 277F
ENCODING 10111
SWIDTH 900 0
DWIDTH 10 0
BBX 10 10 0 -2
BITMAP
1F00
6D80
6AC0
EFC0
EFC0
EFC0
6FC0
6A80
3F00
0C00
ENDCHAR
STARTCHAR 278A
ENCODING 10122
SWIDTH 900 0
DWIDTH 10 0
BBX 10 10 0 -2
BITMAP
1F00
7B80
73C0
FBC0
FBC0
FBC0
7BC0
7B80
3F00
0C00
ENDCHAR
STARTCHAR 278B
ENCODING 10123
SWIDTH 900 0
DWIDTH 10 0
BBX 10 10 0 -2
BITMAP
1F00
7180
75C0
FDC0
FBC0
FBC0
77C0
6180
3F00
0C00
ENDCHAR
STARTCHAR 278C
ENCODING 10124
SWIDTH 900 0
DWIDTH 10 0
BBX 10 10 0 -2
BITMAP
1F00
7380
75C0
FDC0
FBC0
FDC0
75C0
7180
3F00
0C00
ENDCHAR
STARTCHAR 278D
ENCODING 10125
SWIDTH 900 0
DWIDTH 10 0
BBX 10 10 0 -2
BITMAP
1F00
7B80
73C0
F3C0
EBC0
E1C0
61C0
7B80
3F00
0C00
ENDCHAR
STARTCHAR 278E
ENCODING 10126
SWIDTH 900 0
DWIDTH 10 0
BBX 10 10 0 -2
BITMAP
1F00
7180
77C0
F3C0
F1C0
FDC0
75C0
7180
3F00
0C00
ENDCHAR
STARTCHAR 278F
ENCODING 10127
SWIDTH 900 0
DWIDTH 10 0
BBX 10 10 0 -2
BITMAP
1F00
7380
75C0
F7C0
F1C0
F5C0
75C0
7180
3F00
0C00
ENDCHAR
STARTCHAR 2790
ENCODING 10128
SWIDTH 900 0
DWIDTH 10 0
BBX 10 10 0 -2
BITMAP
1F00
7180
7DC0
F9C0
FBC0
FBC0
7BC0
7380
3F00
0C00
ENDCHAR
STARTCHAR 2791
ENCODING 10129
SWIDTH 900 0
DWIDTH 10 0
BBX 10 10 0 -2
BITMAP
1F00
7380
75C0
F5C0
F3C0
E5C0
65C0
7180
3F00
0C00
ENDCHAR
STARTCHAR 2792
ENCODING 10130
SWIDTH 900 0
DWIDTH 10 0
BBX 10 10 0 -2
BITMAP
1F00
7380
75C0
E5C0
F1C0
FDC0
75C0
7180
3F00
0C00
ENDCHAR
STARTCHAR 2793
ENCODING 10131
SWIDTH 900 0
DWIDTH 10 0
BBX 10 10 0 -2
BITMAP
1F00
6D80
4AC0
EAC0
EAC0
EAC0
6AC0
6880
3F00
0C00
ENDCHAR
STARTCHAR 2963
ENCODING 10595
SWIDTH 900 0
DWIDTH 10 0
BBX 9 9 1 -1
BITMAP
2400
5600
9500
1480
1400
1400
1400
1400
1400
ENDCHAR
STARTCHAR 2965
ENCODING 10597
SWIDTH 900 0
DWIDTH 10 0
BBX 8 10 1 -1
BITMAP
14
14
14
14
14
14
95
55
26
24
ENDCHAR
STARTCHAR 2AC5
ENCODING 10949
SWIDTH 900 0
DWIDTH 10 0
BBX 8 7 1 0
BITMAP
7E
80
80
80
7F
00
7E
ENDCHAR
STARTCHAR 2AC6
ENCODING 10950
SWIDTH 900 0
DWIDTH 10 0
BBX 8 7 1 0
BITMAP
7E
01
01
01
FE
00
7E
ENDCHAR
STARTCHAR 2ACB
ENCODING 10955
SWIDTH 900 0
DWIDTH 10 0
BBX 8 8 1 -1
BITMAP
7E
80
80
80
7F
7E
08
76
ENDCHAR
STARTCHAR 2ACC
ENCODING 10956
SWIDTH 900 0
DWIDTH 10 0
BBX 8 8 1 -1
BITMAP
7E
01
01
01
FE
7E
08
76
ENDCHAR
STARTCHAR 2F00
ENCODING 12032
SWIDTH 900 0
DWIDTH 10 0
BBX 9 1 1 3
BITMAP
FF80
ENDCHAR
STARTCHAR 2F04
ENCODING 12036
SWIDTH 900 0
DWIDTH 10 0
BBX 9 9 1 -1
BITMAP
FE00
0400
0800
1000
2000
2000
4080
8100
7F00
ENDCHAR
STARTCHAR 2F06
ENCODING 12038
SWIDTH 900 0
DWIDTH 10 0
BBX 8 7 1 0
BITMAP
7F
00
00
00
00
00
FF
ENDCHAR
STARTCHAR 2F08
ENCODING 12040
SWIDTH 900 0
DWIDTH 10 0
BBX 8 9 1 -1
BITMAP
08
08
08
18
18
14
22
43
81
ENDCHAR
STARTCHAR 2F0A
ENCODING 12042
SWIDTH 900 0
DWIDTH 10 0
BBX 8 9 1 -1
BITMAP
78
08
08
08
18
14
22
43
81
ENDCHAR
STARTCHAR 2F0B
ENCODING 12043
SWIDTH 900 0
DWIDTH 10 0
BBX 9 9 1 -1
BITMAP
1C00
0400
2400
2400
2200
4200
4200
8100
8080
ENDCHAR
STARTCHAR 2F11
ENCODING 12049
SWIDTH 900 0
DWIDTH 10 0
BBX 8 9 1 -1
BITMAP
FF
11
11
11
11
21
21
41
86
ENDCHAR
STARTCHAR 2F12
ENCODING 12050
SWIDTH 900 0
DWIDTH 10 0
BBX 8 10 1 -1
BITMAP
10
10
FF
11
11
11
21
21
41
86
ENDCHAR
STARTCHAR 2F14
ENCODING 12052
SWIDTH 900 0
DWIDTH 10 0
BBX 7 9 2 -1
BITMAP
80
84
88
B0
C0
80
82
82
FE
ENDCHAR
STARTCHAR 2F17
ENCODING 12055
SWIDTH 900 0
DWIDTH 10 0
BBX 8 10 1 -1
BITMAP
08
08
08
08
FF
08
08
08
08
08
ENDCHAR
STARTCHAR 2F18
ENCODING 12056
SWIDTH 900 0
DWIDTH 10 0
BBX 4 10 4 -1
BITMAP
80
80
80
C0
A0
90
90
80
80
80
ENDCHAR
STARTCHAR 2F1C
ENCODING 12060
SWIDTH 900 0
DWIDTH 10 0
BBX 9 9 1 -1
BITMAP
FF00
4200
2200
2400
1800
1800
1400
6300
8180
ENDCHAR
STARTCHAR 2F1D
ENCODING 12061
SWIDTH 900 0
DWIDTH 10 0
BBX 7 8 2 -1
BITMAP
FE
82
82
82
82
82
FE
82
ENDCHAR
STARTCHAR 2F1F
ENCODING 12063
SWIDTH 900 0
DWIDTH 10 0
BBX 9 9 1 -1
BITMAP
0800
0800
0800
FF00
0800
0800
0800
0800
FF80
ENDCHAR
STARTCHAR 2F20
ENCODING 12064
SWIDTH 900 0
DWIDTH 10 0
BBX 9 10 1 -1
BITMAP
0800
0800
0800
FF80
0800
0800
0800
0800
0800
FF00
ENDCHAR
STARTCHAR 2F23
ENCODING 12067
SWIDTH 900 0
DWIDTH 10 0
BBX 8 9 1 -1
BITMAP
10
1F
22
42
52
8C
08
30
C0
ENDCHAR
STARTCHAR 2F24
ENCODING 12068
SWIDTH 900 0
DWIDTH 10 0
BBX 9 10 1 -1
BITMAP
0800
0800
0800
FF00
0800
1800
1400
2200
4100
8080
ENDCHAR
STARTCHAR 2F25
ENCODING 12069
SWIDTH 900 0
DWIDTH 10 0
BBX 8 10 1 -1
BITMAP
10
10
10
FF
22
24
34
0C
33
C1
ENDCHAR
STARTCHAR 2F26
ENCODING 12070
SWIDTH 900 0
DWIDTH 10 0
BBX 9 9 1 -1
BITMAP
7E00
0400
0800
0800
FF80
0800
0800
0800
3000
ENDCHAR
STARTCHAR 2F28
ENCODING 12072
SWIDTH 900 0
DWIDTH 10 0
BBX 8 9 1 -1
BITMAP
04
04
FF
04
44
24
24
04
0C
ENDCHAR
STARTCHAR 2F29
ENCODING 12073
SWIDTH 900 0
DWIDTH 10 0
BBX 9 10 1 -1
BITMAP
0800
0800
4A00
4A00
4A00
4900
8900
8880
0800
3000
ENDCHAR
STARTCHAR 2F2B
ENCODING 12075
SWIDTH 900 0
DWIDTH 10 0
BBX 8 9 1 -1
BITMAP
7F
41
7F
40
40
80
80
80
80
ENDCHAR
STARTCHAR 2F2D
ENCODING 12077
SWIDTH 900 0
DWIDTH 10 0
BBX 8 9 1 -1
BITMAP
08
08
89
89
89
89
89
FF
81
ENDCHAR
STARTCHAR 2F2F
ENCODING 12079
SWIDTH 900 0
DWIDTH 10 0
BBX 8 9 1 -1
BITMAP
FF
08
08
08
08
08
08
08
FF
ENDCHAR
STARTCHAR 2F30
ENCODING 12080
SWIDTH 900 0
DWIDTH 10 0
BBX 9 9 1 -1
BITMAP
FE00
0100
0100
7E00
8100
8000
8080
8100
7F00
ENDCHAR
STARTCHAR 2F31
ENCODING 12081
SWIDTH 900 0
DWIDTH 10 0
BBX 7 10 2 -1
BITMAP
10
10
FE
92
92
92
92
96
10
10
ENDCHAR
STARTCHAR 2F32
ENCODING 12082
SWIDTH 900 0
DWIDTH 10 0
BBX 8 9 1 -1
BITMAP
7F
08
08
08
FF
08
08
08
08
ENDCHAR
STARTCHAR 2F38
ENCODING 12088
SWIDTH 900 0
DWIDTH 10 0
BBX 8 9 1 -1
BITMAP
7E
01
7E
40
40
7F
81
01
07
ENDCHAR
STARTCHAR 2F3C
ENCODING 12092
SWIDTH 900 0
DWIDTH 10 0
BBX 9 9 1 -1
BITMAP
1000
0800
2000
2200
6100
A100
A080
2200
3E00
ENDCHAR
STARTCHAR 2F3D
ENCODING 12093
SWIDTH 900 0
DWIDTH 10 0
BBX 8 10 1 -1
BITMAP
14
12
1F
F0
11
0E
0C
19
75
C3
ENDCHAR
STARTCHAR 2F3E
ENCODING 12094
SWIDTH 900 0
DWIDTH 10 0
BBX 8 9 1 -1
BITMAP
03
7C
7F
41
41
7F
80
80
80
ENDCHAR
STARTCHAR 2F3F
ENCODING 12095
SWIDTH 900 0
DWIDTH 10 0
BBX 9 9 1 -1
BITMAP
0600
F800
0800
FF00
0800
FF80
0800
0800
3800
ENDCHAR
STARTCHAR 2F40
ENCODING 12096
SWIDTH 900 0
DWIDTH 10 0
BBX 9 10 1 -1
BITMAP
0800
0800
FF80
0800
FE00
2200
1400
0800
7600
C100
ENDCHAR
STARTCHAR 2F42
ENCODING 12098
SWIDTH 900 0
DWIDTH 10 0
BBX 8 10 1 -1
BITMAP
08
08
FF
42
24
34
18
18
66
81
ENDCHAR
STARTCHAR 2F43
ENCODING 12099
SWIDTH 900 0
DWIDTH 10 0
BBX 9 9 1 -1
BITMAP
0400
3400
0400
6400
0400
1F80
FC00
0400
0400
ENDCHAR
STARTCHAR 2F44
ENCODING 12100
SWIDTH 900 0
DWIDTH 10 0
BBX 8 9 1 -1
BITMAP
06
78
40
7F
44
84
84
84
84
ENDCHAR
STARTCHAR 2F45
ENCODING 12101
SWIDTH 900 0
DWIDTH 10 0
BBX 9 10 1 -1
BITMAP
0800
0800
FF80
2000
3E00
2100
2100
4200
C200
8E00
ENDCHAR
STARTCHAR 2F46
ENCODING 12102
SWIDTH 900 0
DWIDTH 10 0
BBX 8 9 1 -1
BITMAP
7F
10
10
FF
18
18
28
49
8F
ENDCHAR
STARTCHAR 2F47
ENCODING 12103
SWIDTH 900 0
DWIDTH 10 0
BBX 6 9 2 -1
BITMAP
FC
84
84
84
FC
84
84
FC
84
ENDCHAR
STARTCHAR 2F48
ENCODING 12104
SWIDTH 900 0
DWIDTH 10 0
BBX 7 9 2 -1
BITMAP
FE
02
02
02
FE
02
02
FE
02
ENDCHAR
STARTCHAR 2F49
ENCODING 12105
SWIDTH 900 0
DWIDTH 10 0
BBX 7 9 1 -1
BITMAP
7E
42
7E
42
42
7E
42
42
86
ENDCHAR
STARTCHAR 2F4A
ENCODING 12106
SWIDTH 900 0
DWIDTH 10 0
BBX 9 10 1 -1
BITMAP
0800
0800
FF00
1800
2C00
2A00
C900
8880
0800
0800
ENDCHAR
STARTCHAR 2F4B
ENCODING 12107
SWIDTH 900 0
DWIDTH 10 0
BBX 9 10 1 -1
BITMAP
2000
2000
3F00
4900
8A00
9800
1800
2400
4300
8180
ENDCHAR
STARTCHAR 2F4C
ENCODING 12108
SWIDTH 900 0
DWIDTH 10 0
BBX 9 10 1 -1
BITMAP
0800
0800
0800
4800
4F00
4800
4800
4800
4800
FF80
ENDCHAR
STARTCHAR 2F4F
ENCODING 12111
SWIDTH 900 0
DWIDTH 10 0
BBX 9 9 1 -1
BITMAP
7F00
4900
4900
FF80
5200
5200
7F00
8200
8600
ENDCHAR
STARTCHAR 2F50
ENCODING 12112
SWIDTH 900 0
DWIDTH 10 0
BBX 9 9 1 -1
BITMAP
4800
4800
4900
7600
4800
4800
4880
7880
C700
ENDCHAR
STARTCHAR 2F51
ENCODING 12113
SWIDTH 900 0
DWIDTH 10 0
BBX 9 9 1 -1
BITMAP
0600
7800
0F00
F000
3F00
D000
1000
1080
0F00
ENDCHAR
STARTCHAR 2F52
ENCODING 12114
SWIDTH 900 0
DWIDTH 10 0
BBX 9 9 1 -1
BITMAP
0700
7800
4800
4800
7F00
4400
4400
7A80
E300
ENDCHAR
STARTCHAR 2F54
ENCODING 12116
SWIDTH 900 0
DWIDTH 10 0
BBX 8 10 1 -1
BITMAP
08
08
08
E9
2A
2C
4C
8B
89
38
ENDCHAR
STARTCHAR 2F55
ENCODING 12117
SWIDTH 900 0
DWIDTH 10 0
BBX 8 10 1 -1
BITMAP
08
08
49
49
5A
9A
14
26
43
81
ENDCHAR
STARTCHAR 2F56
ENCODING 12118
SWIDTH 900 0
DWIDTH 10 0
BBX 9 9 1 -1
BITMAP
0F00
7200
4A00
4A00
4A00
4900
4900
8900
8880
ENDCHAR
STARTCHAR 2F57
ENCODING 12119
SWIDTH 900 0
DWIDTH 10 0
BBX 9 9 1 -1
BITMAP
2400
4300
A300
6400
6400
1800
1800
6600
8180
ENDCHAR
STARTCHAR 2F58
ENCODING 12120
SWIDTH 900 0
DWIDTH 10 0
BBX 9 10 1 -1
BITMAP
C600
3800
7600
E100
6200
6400
1800
1800
7600
C180
ENDCHAR
STARTCHAR 2F5A
ENCODING 12122
SWIDTH 900 0
DWIDTH 10 0
BBX 9 10 1 -1
BITMAP
4800
4800
4800
7F80
4000
7C00
4400
8400
8400
8400
ENDCHAR
STARTCHAR 2F5B
ENCODING 12123
SWIDTH 900 0
DWIDTH 10 0
BBX 9 9 1 -1
BITMAP
FF00
2400
2400
FF80
0C00
1400
2400
4400
8C00
ENDCHAR
STARTCHAR 2F5C
ENCODING 12124
SWIDTH 900 0
DWIDTH 10 0
BBX 9 10 1 -1
BITMAP
2800
4800
7F00
8800
8800
FF80
0800
0800
0800
0800
ENDCHAR
STARTCHAR 2F5D
ENCODING 12125
SWIDTH 900 0
DWIDTH 10 0
BBX 9 10 1 -1
BITMAP
0C00
0A00
0900
FF00
0800
1800
1400
2200
C300
8080
ENDCHAR
STARTCHAR 2F5E
ENCODING 12126
SWIDTH 900 0
DWIDTH 10 0
BBX 9 10 1 -1
BITMAP
0800
0800
FF00
1000
6200
6400
1A00
1100
2700
F880
ENDCHAR
STARTCHAR 2F5F
ENCODING 12127
SWIDTH 900 0
DWIDTH 10 0
BBX 8 9 1 -1
BITMAP
FF
08
08
08
7F
0C
0A
08
FF
ENDCHAR
STARTCHAR 2F60
ENCODING 12128
SWIDTH 900 0
DWIDTH 10 0
BBX 9 9 1 -1
BITMAP
0700
7E00
5200
5200
5200
5200
5500
BD00
8280
ENDCHAR
STARTCHAR 2F61
ENCODING 12129
SWIDTH 900 0
DWIDTH 10 0
BBX 9 9 1 -1
BITMAP
FF00
2000
3C00
2200
3400
4C00
4400
4C80
F700
ENDCHAR
STARTCHAR 2F62
ENCODING 12130
SWIDTH 900 0
DWIDTH 10 0
BBX 8 10 1 -1
BITMAP
22
22
FF
22
22
3E
22
22
3E
22
ENDCHAR
STARTCHAR 2F63
ENCODING 12131
SWIDTH 900 0
DWIDTH 10 0
BBX 9 10 1 -1
BITMAP
4800
4800
7F00
8800
8800
0800
7E00
0800
0800
FF80
ENDCHAR
STARTCHAR 2F64
ENCODING 12132
SWIDTH 900 0
DWIDTH 10 0
BBX 8 9 1 -1
BITMAP
7F
49
7F
49
49
7F
89
89
8B
ENDCHAR
STARTCHAR 2F65
ENCODING 12133
SWIDTH 900 0
DWIDTH 10 0
BBX 7 8 2 -1
BITMAP
FE
12
12
FE
12
12
12
FE
ENDCHAR
STARTCHAR 2F66
ENCODING 12134
SWIDTH 900 0
DWIDTH 10 0
BBX 9 9 1 -1
BITMAP
FF00
0900
0900
4800
4F00
4800
4800
B800
8F80
ENDCHAR
STARTCHAR 2F69
ENCODING 12137
SWIDTH 900 0
DWIDTH 10 0
BBX 7 10 2 -1
BITMAP
20
20
FE
82
82
FE
82
82
FE
82
ENDCHAR
STARTCHAR 2F6A
ENCODING 12138
SWIDTH 900 0
DWIDTH 10 0
BBX 8 10 1 -1
BITMAP
08
7F
49
49
7F
62
54
8C
9E
E1
ENDCHAR
STARTCHAR 2F6B
ENCODING 12139
SWIDTH 900 0
DWIDTH 10 0
BBX 9 8 1 -1
BITMAP
7F00
9500
9500
9500
9500
9500
9500
FF80
ENDCHAR
STARTCHAR 2F6C
ENCODING 12140
SWIDTH 900 0
DWIDTH 10 0
BBX 7 9 2 -1
BITMAP
FE
82
FE
82
82
FE
82
FE
82
ENDCHAR
STARTCHAR 2F6D
ENCODING 12141
SWIDTH 900 0
DWIDTH 10 0
BBX 8 9 1 -1
BITMAP
7E
34
08
FF
19
2A
48
88
18
ENDCHAR
STARTCHAR 2F6E
ENCODING 12142
SWIDTH 900 0
DWIDTH 10 0
BBX 9 9 1 -1
BITMAP
2000
7F00
4800
8800
FF00
1800
1400
6200
8180
ENDCHAR
STARTCHAR 2F6F
ENCODING 12143
SWIDTH 900 0
DWIDTH 10 0
BBX 9 9 1 -1
BITMAP
FF80
2000
2000
2000
7F00
C100
C100
3F00
4100
ENDCHAR
STARTCHAR 2F70
ENCODING 12144
SWIDTH 900 0
DWIDTH 10 0
BBX 8 9 1 -1
BITMAP
7E
00
00
FF
4A
4A
49
89
18
ENDCHAR
STARTCHAR 2F72
ENCODING 12146
SWIDTH 900 0
DWIDTH 10 0
BBX 9 9 1 -1
BITMAP
0600
7800
0800
FF80
1800
2C00
4B00
8880
0800
ENDCHAR
STARTCHAR 2F73
ENCODING 12147
SWIDTH 900 0
DWIDTH 10 0
BBX 9 10 1 -1
BITMAP
0800
FF00
8100
BD00
0400
2200
2200
4200
C100
8080
ENDCHAR
STARTCHAR 2F74
ENCODING 12148
SWIDTH 900 0
DWIDTH 10 0
BBX 9 9 1 -1
BITMAP
0800
FF00
0000
4200
2200
2400
2400
2400
FF80
ENDCHAR
STARTCHAR 2F75
ENCODING 12149
SWIDTH 900 0
DWIDTH 10 0
BBX 9 10 1 -1
BITMAP
4400
4400
7780
AA00
AA00
2200
2200
2200
2200
2600
ENDCHAR
STARTCHAR 2F76
ENCODING 12150
SWIDTH 900 0
DWIDTH 10 0
BBX 8 10 1 -1
BITMAP
08
49
2A
08
FF
18
2C
4B
89
08
ENDCHAR
STARTCHAR 2F78
ENCODING 12152
SWIDTH 900 0
DWIDTH 10 0
BBX 9 9 1 -1
BITMAP
2000
7F00
8800
0800
FF80
8900
8900
7F00
8100
ENDCHAR
STARTCHAR 2F7A
ENCODING 12154
SWIDTH 900 0
DWIDTH 10 0
BBX 9 10 1 -1
BITMAP
2400
2400
FF00
0800
7F00
0800
FF80
0800
0800
0800
ENDCHAR
STARTCHAR 2F7B
ENCODING 12155
SWIDTH 900 0
DWIDTH 10 0
BBX 8 9 1 -1
BITMAP
FF
31
33
D5
99
77
99
11
33
ENDCHAR
STARTCHAR 2F7C
ENCODING 12156
SWIDTH 900 0
DWIDTH 10 0
BBX 9 10 1 -1
BITMAP
1000
1100
7E00
1400
FF80
1800
6200
BC00
2100
3F00
ENDCHAR
STARTCHAR 2F7D
ENCODING 12157
SWIDTH 900 0
DWIDTH 10 0
BBX 8 9 1 -1
BITMAP
FF
10
FF
A5
A5
A5
A5
A5
83
ENDCHAR
STARTCHAR 2F7F
ENCODING 12159
SWIDTH 900 0
DWIDTH 10 0
BBX 9 9 1 -1
BITMAP
FF00
4200
3E00
4200
3E00
4200
FF80
0200
0200
ENDCHAR
STARTCHAR 2F80
ENCODING 12160
SWIDTH 900 0
DWIDTH 10 0
BBX 8 10 1 -1
BITMAP
08
7E
09
FF
7E
08
FF
FF
08
08
ENDCHAR
STARTCHAR 2F81
ENCODING 12161
SWIDTH 900 0
DWIDTH 10 0
BBX 8 10 1 -1
BITMAP
08
08
FF
99
AD
DB
BD
E3
81
83
ENDCHAR
STARTCHAR 2F82
ENCODING 12162
SWIDTH 900 0
DWIDTH 10 0
BBX 8 9 1 -1
BITMAP
FF
88
FF
81
81
FF
88
FF
80
ENDCHAR
STARTCHAR 2F83
ENCODING 12163
SWIDTH 900 0
DWIDTH 10 0
BBX 7 10 2 -1
BITMAP
10
20
FE
82
FE
82
FE
82
FE
82
ENDCHAR
STARTCHAR 2F84
ENCODING 12164
SWIDTH 900 0
DWIDTH 10 0
BBX 8 9 1 -1
BITMAP
FF
22
2E
F1
08
08
7F
08
FF
ENDCHAR
STARTCHAR 2F85
ENCODING 12165
SWIDTH 900 0
DWIDTH 10 0
BBX 8 9 1 -1
BITMAP
10
EF
81
81
FF
81
81
FF
81
ENDCHAR
STARTCHAR 2F86
ENCODING 12166
SWIDTH 900 0
DWIDTH 10 0
BBX 9 9 1 -1
BITMAP
0200
7C00
0800
FF80
0800
7E00
4100
7E00
4100
ENDCHAR
STARTCHAR 2F87
ENCODING 12167
SWIDTH 900 0
DWIDTH 10 0
BBX 9 10 1 -1
BITMAP
4200
4200
7F00
9A00
DA00
AA00
3F80
4200
C200
8200
ENDCHAR
STARTCHAR 2F88
ENCODING 12168
SWIDTH 900 0
DWIDTH 10 0
BBX 8 10 1 -1
BITMAP
10
7E
52
4A
42
FF
4A
4A
4A
86
ENDCHAR
STARTCHAR 2F89
ENCODING 12169
SWIDTH 900 0
DWIDTH 10 0
BBX 8 9 1 -1
BITMAP
7E
42
7E
42
7E
51
4E
5E
E1
ENDCHAR
STARTCHAR 2F8A
ENCODING 12170
SWIDTH 900 0
DWIDTH 10 0
BBX 8 10 1 -1
BITMAP
20
3C
48
FF
C9
49
7F
40
41
7F
ENDCHAR
STARTCHAR 2F8B
ENCODING 12171
SWIDTH 900 0
DWIDTH 10 0
BBX 8 10 1 -1
BITMAP
42
DB
DB
DB
DB
DB
FF
42
42
82
ENDCHAR
STARTCHAR 2F8E
ENCODING 12174
SWIDTH 900 0
DWIDTH 10 0
BBX 9 10 1 -1
BITMAP
0800
1000
7F00
5500
5500
5500
5500
5500
5500
FF80
ENDCHAR
STARTCHAR 2F8F
ENCODING 12175
SWIDTH 900 0
DWIDTH 10 0
BBX 9 10 1 -1
BITMAP
2000
4F00
A000
4000
5F80
C200
C200
4200
4200
4600
ENDCHAR
STARTCHAR 2F90
ENCODING 12176
SWIDTH 900 0
DWIDTH 10 0
BBX 9 9 1 -1
BITMAP
0800
FF00
1800
1900
2600
E600
A200
2900
7080
ENDCHAR
STARTCHAR 2F92
ENCODING 12178
SWIDTH 900 0
DWIDTH 10 0
BBX 9 9 1 -1
BITMAP
7E00
4200
7E00
4200
7E00
7E00
1400
2480
C700
ENDCHAR
STARTCHAR 2F93
ENCODING 12179
SWIDTH 900 0
DWIDTH 10 0
BBX 8 10 1 -1
BITMAP
20
3C
44
FF
7F
49
49
7F
81
83
ENDCHAR
STARTCHAR 2F94
ENCODING 12180
SWIDTH 900 0
DWIDTH 10 0
BBX 9 9 1 -1
BITMAP
7E00
FF80
0000
7E00
7E00
0000
7E00
7E00
4200
ENDCHAR
STARTCHAR 2F95
ENCODING 12181
SWIDTH 900 0
DWIDTH 10 0
BBX 8 9 1 -1
BITMAP
24
42
99
24
42
FF
42
7E
42
ENDCHAR
STARTCHAR 2F96
ENCODING 12182
SWIDTH 900 0
DWIDTH 10 0
BBX 9 9 1 -1
BITMAP
FF00
0000
7E00
4200
7E00
0000
2400
2400
FF80
ENDCHAR
STARTCHAR 2F97
ENCODING 12183
SWIDTH 900 0
DWIDTH 10 0
BBX 8 9 1 -1
BITMAP
FF
18
75
96
6C
DA
69
89
18
ENDCHAR
STARTCHAR 2F99
ENCODING 12185
SWIDTH 900 0
DWIDTH 10 0
BBX 8 9 1 -1
BITMAP
7E
42
7E
42
7E
42
7E
66
81
ENDCHAR
STARTCHAR 2F9A
ENCODING 12186
SWIDTH 900 0
DWIDTH 10 0
BBX 9 10 1 -1
BITMAP
0800
7F00
0800
0800
FF00
5600
5500
A500
A480
4C00
ENDCHAR
STARTCHAR 2F9B
ENCODING 12187
SWIDTH 900 0
DWIDTH 10 0
BBX 9 10 1 -1
BITMAP
0800
0800
7E00
0800
FF00
2800
4E00
4800
6800
9F80
ENDCHAR
STARTCHAR 2F9C
ENCODING 12188
SWIDTH 900 0
DWIDTH 10 0
BBX 9 9 1 -1
BITMAP
7E00
4200
4200
7E00
4800
4F00
4800
B800
9F80
ENDCHAR
STARTCHAR 2F9D
ENCODING 12189
SWIDTH 900 0
DWIDTH 10 0
BBX 9 10 1 -1
BITMAP
1000
7E00
4200
7E00
7E80
4300
FE00
0A00
7200
8600
ENDCHAR
STARTCHAR 2F9E
ENCODING 12190
SWIDTH 900 0
DWIDTH 10 0
BBX 9 10 1 -1
BITMAP
0800
FF00
0800
7E00
7E00
4A00
7E00
FF80
0800
0800
ENDCHAR
STARTCHAR 2F9F
ENCODING 12191
SWIDTH 900 0
DWIDTH 10 0
BBX 9 10 1 -1
BITMAP
0800
FF00
2200
2400
FF80
0800
FF00
0800
0800
0800
ENDCHAR
STARTCHAR 2FA0
ENCODING 12192
SWIDTH 900 0
DWIDTH 10 0
BBX 8 9 1 -1
BITMAP
7F
40
7F
40
7F
6E
A6
AB
F1
ENDCHAR
STARTCHAR 2FA2
ENCODING 12194
SWIDTH 900 0
DWIDTH 10 0
BBX 9 9 1 -1
BITMAP
7E00
7E00
0000
FF00
8900
FF00
8000
8080
7F00
ENDCHAR
STARTCHAR 2FA3
ENCODING 12195
SWIDTH 900 0
DWIDTH 10 0
BBX 8 9 1 -1
BITMAP
FF
18
7F
A9
AF
7F
81
7F
81
ENDCHAR
STARTCHAR 2FA5
ENCODING 12197
SWIDTH 900 0
DWIDTH 10 0
BBX 9 9 1 -1
BITMAP
7E00
4900
7E00
4900
7E00
0800
7F00
0800
FF80
ENDCHAR
STARTCHAR 2FA6
ENCODING 12198
SWIDTH 900 0
DWIDTH 10 0
BBX 9 9 1 -1
BITMAP
1800
2400
4300
BF80
0800
7F00
4A00
2C00
FF80
ENDCHAR
STARTCHAR 2FA7
ENCODING 12199
SWIDTH 900 0
DWIDTH 10 0
BBX 8 9 1 -1
BITMAP
7F
7E
40
7E
FF
4A
4C
5E
E1
ENDCHAR
STARTCHAR 2FA8
ENCODING 12200
SWIDTH 900 0
DWIDTH 10 0
BBX 8 9 1 -1
BITMAP
FF
FF
99
FF
81
81
81
81
83
ENDCHAR
STARTCHAR 2FA9
ENCODING 12201
SWIDTH 900 0
DWIDTH 10 0
BBX 9 10 1 -1
BITMAP
1000
7E00
4200
7E00
7F00
4100
7F00
FF80
0800
0800
ENDCHAR
STARTCHAR 2FAC
ENCODING 12204
SWIDTH 900 0
DWIDTH 10 0
BBX 8 9 1 -1
BITMAP
FF
08
FF
ED
AB
ED
AB
89
8B
ENDCHAR
STARTCHAR 2FAD
ENCODING 12205
SWIDTH 900 0
DWIDTH 10 0
BBX 9 10 1 -1
BITMAP
0800
FF00
7F00
FF80
0000
7E00
4900
7E00
4100
4600
ENDCHAR
STARTCHAR 2FAE
ENCODING 12206
SWIDTH 900 0
DWIDTH 10 0
BBX 9 10 1 -1
BITMAP
1400
1400
E780
1400
E700
2400
E780
2400
4400
4400
ENDCHAR
STARTCHAR 2FAF
ENCODING 12207
SWIDTH 900 0
DWIDTH 10 0
BBX 9 9 1 -1
BITMAP
FF80
1000
FF00
A500
9D00
A500
9D00
FF00
8100
ENDCHAR
STARTCHAR 2FB0
ENCODING 12208
SWIDTH 900 0
DWIDTH 10 0
BBX 9 10 1 -1
BITMAP
2400
FF00
3C00
0800
7F00
8900
7F00
FF80
0800
0800
ENDCHAR
STARTCHAR 2FB1
ENCODING 12209
SWIDTH 900 0
DWIDTH 10 0
BBX 9 10 1 -1
BITMAP
1000
7E00
FF00
0000
7E00
7E00
FF00
4800
FF80
0800
ENDCHAR
STARTCHAR 2FB3
ENCODING 12211
SWIDTH 900 0
DWIDTH 10 0
BBX 8 10 1 -1
BITMAP
08
FF
24
FF
00
7E
42
7E
7E
42
ENDCHAR
STARTCHAR 2FB4
ENCODING 12212
SWIDTH 900 0
DWIDTH 10 0
BBX 8 9 1 -1
BITMAP
FF
10
7E
7E
42
7E
7E
26
C1
ENDCHAR
STARTCHAR 2FB5
ENCODING 12213
SWIDTH 900 0
DWIDTH 10 0
BBX 9 9 1 -1
BITMAP
FE00
8D00
B100
BD00
B500
BD00
9580
8D80
F380
ENDCHAR
STARTCHAR 2FB6
ENCODING 12214
SWIDTH 900 0
DWIDTH 10 0
BBX 9 9 1 -1
BITMAP
FD00
3600
D300
5280
FD00
5500
5300
5280
9100
ENDCHAR
STARTCHAR 2FB7
ENCODING 12215
SWIDTH 900 0
DWIDTH 10 0
BBX 9 9 1 -1
BITMAP
1C00
7E00
8180
7E00
7E00
7E00
4900
5E00
E100
ENDCHAR
STARTCHAR 2FB8
ENCODING 12216
SWIDTH 900 0
DWIDTH 10 0
BBX 8 9 1 -1
BITMAP
24
FF
10
7E
42
7E
7E
7E
42
ENDCHAR
STARTCHAR 2FB9
ENCODING 12217
SWIDTH 900 0
DWIDTH 10 0
BBX 9 10 1 -1
BITMAP
0600
7800
FF00
1400
6A00
FF80
4200
7E00
4200
7E00
ENDCHAR
STARTCHAR 2FBA
ENCODING 12218
SWIDTH 900 0
DWIDTH 10 0
BBX 8 9 1 -1
BITMAP
7F
48
7E
7E
48
7F
AD
AB
A3
ENDCHAR
STARTCHAR 2FBB
ENCODING 12219
SWIDTH 900 0
DWIDTH 10 0
BBX 8 9 1 -1
BITMAP
7E
4E
52
FF
FF
7E
42
7E
46
ENDCHAR
STARTCHAR 2FBC
ENCODING 12220
SWIDTH 900 0
DWIDTH 10 0
BBX 9 10 1 -1
BITMAP
FF80
0000
7E00
7E00
0000
FF00
BD00
BD00
A100
8300
ENDCHAR
STARTCHAR 2FC1
ENCODING 12225
SWIDTH 900 0
DWIDTH 10 0
BBX 9 10 1 -1
BITMAP
1000
7E00
4900
7E00
4900
7E00
2A00
2F00
4880
8F00
ENDCHAR
STARTCHAR 2FC2
ENCODING 12226
SWIDTH 900 0
DWIDTH 10 0
BBX 9 10 1 -1
BITMAP
2000
3C00
4800
FE00
C900
7E00
7E00
4100
9500
9480
ENDCHAR
STARTCHAR 2FC3
ENCODING 12227
SWIDTH 900 0
DWIDTH 10 0
BBX 9 10 1 -1
BITMAP
1000
7E00
7E00
4200
7E00
7F80
7F00
0500
AB00
AB00
ENDCHAR
STARTCHAR 2FC4
ENCODING 12228
SWIDTH 900 0
DWIDTH 10 0
BBX 8 10 1 -1
BITMAP
10
1F
10
FF
AD
DB
BF
AB
FF
81
ENDCHAR
STARTCHAR 2FC5
ENCODING 12229
SWIDTH 900 0
DWIDTH 10 0
BBX 9 10 1 -1
BITMAP
0800
FF80
9400
FF00
FF00
A400
A500
BE00
BC80
E700
ENDCHAR
STARTCHAR 2FC6
ENCODING 12230
SWIDTH 900 0
DWIDTH 10 0
BBX 9 10 1 -1
BITMAP
0800
FF00
2A00
6A00
3500
6A00
BF80
5400
1C00
E300
ENDCHAR
STARTCHAR 2FC7
ENCODING 12231
SWIDTH 900 0
DWIDTH 10 0
BBX 9 10 1 -1
BITMAP
0800
FF80
A200
F700
A200
F700
F700
F780
EB80
A200
ENDCHAR
STARTCHAR 2FC8
ENCODING 12232
SWIDTH 900 0
DWIDTH 10 0
BBX 9 10 1 -1
BITMAP
2400
FF00
3C00
FF80
0800
7E00
7E00
7E00
2600
C180
ENDCHAR
STARTCHAR 2FC9
ENCODING 12233
SWIDTH 900 0
DWIDTH 10 0
BBX 9 10 1 -1
BITMAP
0200
7C00
FF00
6E00
9980
6E00
AB80
3C00
4E00
9100
ENDCHAR
STARTCHAR 2FCA
ENCODING 12234
SWIDTH 900 0
DWIDTH 10 0
BBX 9 9 1 -1
BITMAP
7F00
6B00
6D00
7F00
7F00
FF80
0000
A500
9480
ENDCHAR
STARTCHAR 2FCD
ENCODING 12237
SWIDTH 900 0
DWIDTH 10 0
BBX 9 9 1 -1
BITMAP
3C00
BD00
BD00
BD00
8100
F700
F780
5500
9500
ENDCHAR
STARTCHAR 2FCE
ENCODING 12238
SWIDTH 900 0
DWIDTH 10 0
BBX 9 10 1 -1
BITMAP
4200
F200
FF80
0200
FF00
F500
0600
A600
7D00
C880
ENDCHAR
STARTCHAR 2FCF
ENCODING 12239
SWIDTH 900 0
DWIDTH 10 0
BBX 9 9 1 -1
BITMAP
FF00
8100
FF00
FF00
B600
B600
B600
B580
D900
ENDCHAR
STARTCHAR 2FD0
ENCODING 12240
SWIDTH 900 0
DWIDTH 10 0
BBX 9 10 1 -1
BITMAP
1000
7E00
4200
7E00
0000
7F00
8900
FF80
3C00
C400
ENDCHAR
STARTCHAR 2FD1
ENCODING 12241
SWIDTH 900 0
DWIDTH 10 0
BBX 9 10 1 -1
BITMAP
FF80
0000
FF00
AD00
EE80
4200
7E00
7E00
8200
8200
ENDCHAR
STARTCHAR 2FD2
ENCODING 12242
SWIDTH 900 0
DWIDTH 10 0
BBX 9 10 1 -1
BITMAP
2800
2F00
FF80
A500
BB00
C900
FF00
A500
DB00
FF00
ENDCHAR
STARTCHAR 2FD3
ENCODING 12243
SWIDTH 900 0
DWIDTH 10 0
BBX 9 10 1 -1
BITMAP
4800
F700
A700
F100
F700
9700
F700
F700
9880
B700
ENDCHAR
STARTCHAR 2FD4
ENCODING 12244
SWIDTH 900 0
DWIDTH 10 0
BBX 9 10 1 -1
BITMAP
2000
7C00
FF00
7700
D700
F500
1B00
F700
3880
5F00
ENDCHAR
STARTCHAR 3000
ENCODING 12288
SWIDTH 900 0
DWIDTH 10 0
BBX 0 0 0 0
BITMAP
ENDCHAR
STARTCHAR 3001
ENCODING 12289
SWIDTH 900 0
DWIDTH 10 0
BBX 2 2 1 -2
BITMAP
80
40
ENDCHAR
STARTCHAR 3002
ENCODING 12290
SWIDTH 900 0
DWIDTH 10 0
BBX 2 3 1 -2
BITMAP
C0
C0
C0
ENDCHAR
STARTCHAR 3003
ENCODING 12291
SWIDTH 900 0
DWIDTH 10 0
BBX 4 2 3 2
BITMAP
50
A0
ENDCHAR
STARTCHAR 3008
ENCODING 12296
SWIDTH 450 0
DWIDTH 5 0
BBX 4 8 1 -1
BITMAP
10
20
40
80
80
80
40
20
ENDCHAR
STARTCHAR 3009
ENCODING 12297
SWIDTH 450 0
DWIDTH 5 0
BBX 4 7 1 0
BITMAP
80
40
20
10
20
40
80
ENDCHAR
STARTCHAR 300A
ENCODING 12298
SWIDTH 450 0
DWIDTH 5 0
BBX 4 8 0 -1
BITMAP
30
20
60
C0
C0
60
20
30
ENDCHAR
STARTCHAR 300B
ENCODING 12299
SWIDTH 450 0
DWIDTH 5 0
BBX 3 8 1 -1
BITMAP
C0
A0
60
20
20
60
A0
C0
ENDCHAR
STARTCHAR 300C
ENCODING 12300
SWIDTH 360 0
DWIDTH 4 0
BBX 4 5 0 3
BITMAP
F0
80
80
80
80
ENDCHAR
STARTCHAR 300D
ENCODING 12301
SWIDTH 360 0
DWIDTH 4 0
BBX 4 5 0 -1
BITMAP
10
10
10
10
F0
ENDCHAR
STARTCHAR 300E
ENCODING 12302
SWIDTH 360 0
DWIDTH 4 0
BBX 4 5 0 3
BITMAP
F0
C0
C0
C0
C0
ENDCHAR
STARTCHAR 300F
ENCODING 12303
SWIDTH 360 0
DWIDTH 4 0
BBX 4 4 0 -1
BITMAP
30
30
30
F0
ENDCHAR
STARTCHAR 3010
ENCODING 12304
SWIDTH 360 0
DWIDTH 4 0
BBX 3 9 0 -1
BITMAP
E0
C0
C0
80
80
80
C0
C0
E0
ENDCHAR
STARTCHAR 3011
ENCODING 12305
SWIDTH 360 0
DWIDTH 4 0
BBX 3 9 1 -1
BITMAP
E0
60
60
20
20
20
60
60
E0
ENDCHAR
STARTCHAR 3012
ENCODING 12306
SWIDTH 900 0
DWIDTH 10 0
BBX 9 9 1 -1
BITMAP
FF80
0000
0000
FF80
0800
0800
0800
0800
0800
ENDCHAR
STARTCHAR 3013
ENCODING 12307
SWIDTH 900 0
DWIDTH 10 0
BBX 5 3 3 2
BITMAP
F8
00
F8
ENDCHAR
STARTCHAR 3014
ENCODING 12308
SWIDTH 360 0
DWIDTH 4 0
BBX 2 10 1 -2
BITMAP
40
80
00
00
00
00
00
00
80
40
ENDCHAR
STARTCHAR 3015
ENCODING 12309
SWIDTH 360 0
DWIDTH 4 0
BBX 2 10 1 -2
BITMAP
80
40
40
40
40
40
40
40
40
80
ENDCHAR
STARTCHAR 3016
ENCODING 12310
SWIDTH 360 0
DWIDTH 4 0
BBX 3 9 1 -1
BITMAP
E0
C0
C0
80
80
80
C0
C0
C0
ENDCHAR
STARTCHAR 3017
ENCODING 12311
SWIDTH 360 0
DWIDTH 4 0
BBX 3 9 1 -1
BITMAP
E0
A0
A0
60
60
60
A0
A0
E0
ENDCHAR
STARTCHAR 3018
ENCODING 12312
SWIDTH 360 0
DWIDTH 4 0
BBX 3 10 1 -2
BITMAP
60
80
80
80
80
80
80
80
E0
60
ENDCHAR
STARTCHAR 3019
ENCODING 12313
SWIDTH 360 0
DWIDTH 4 0
BBX 3 9 1 -2
BITMAP
80
60
60
60
60
60
60
60
C0
ENDCHAR
STARTCHAR 301C
ENCODING 12316
SWIDTH 900 0
DWIDTH 10 0
BBX 6 3 2 2
BITMAP
60
94
08
ENDCHAR
STARTCHAR 301E
ENCODING 12318
SWIDTH 360 0
DWIDTH 4 0
BBX 4 2 0 5
BITMAP
50
A0
ENDCHAR
STARTCHAR 301F
ENCODING 12319
SWIDTH 360 0
DWIDTH 4 0
BBX 3 2 1 -1
BITMAP
A0
40
ENDCHAR
STARTCHAR 3020
ENCODING 12320
SWIDTH 900 0
DWIDTH 10 0
BBX 8 7 1 0
BITMAP
38
36
AF
88
64
55
3E
ENDCHAR
STARTCHAR 3036
ENCODING 12342
SWIDTH 900 0
DWIDTH 10 0
BBX 10 10 0 -2
BITMAP
3F00
4080
7F40
8040
BF40
8440
8440
4480
2500
1E00
ENDCHAR
STARTCHAR 3041
ENCODING 12353
SWIDTH 900 0
DWIDTH 10 0
BBX 6 7 2 -1
BITMAP
20
70
28
74
B4
E4
08
ENDCHAR
STARTCHAR 3042
ENCODING 12354
SWIDTH 900 0
DWIDTH 10 0
BBX 8 9 1 -1
BITMAP
10
1C
30
14
2A
59
91
72
04
ENDCHAR
STARTCHAR 3043
ENCODING 12355
SWIDTH 900 0
DWIDTH 10 0
BBX 6 5 2 0
BITMAP
80
84
84
84
60
ENDCHAR
STARTCHAR 3044
ENCODING 12356
SWIDTH 900 0
DWIDTH 10 0
BBX 8 6 1 0
BITMAP
80
82
81
81
50
20
ENDCHAR
STARTCHAR 3045
ENCODING 12357
SWIDTH 900 0
DWIDTH 10 0
BBX 4 7 3 -1
BITMAP
20
20
D0
10
10
10
20
ENDCHAR
STARTCHAR 3046
ENCODING 12358
SWIDTH 900 0
DWIDTH 10 0
BBX 5 9 3 -1
BITMAP
40
30
00
F0
88
08
08
10
20
ENDCHAR
STARTCHAR 3047
ENCODING 12359
SWIDTH 900 0
DWIDTH 10 0
BBX 5 7 3 -1
BITMAP
20
00
E0
40
60
A0
18
ENDCHAR
STARTCHAR 3048
ENCODING 12360
SWIDTH 900 0
DWIDTH 10 0
BBX 7 9 2 -1
BITMAP
20
10
00
F8
10
30
50
90
0E
ENDCHAR
STARTCHAR 3049
ENCODING 12361
SWIDTH 900 0
DWIDTH 10 0
BBX 6 7 2 -1
BITMAP
40
64
40
78
C4
CC
40
ENDCHAR
STARTCHAR 304A
ENCODING 12362
SWIDTH 900 0
DWIDTH 10 0
BBX 8 8 1 -1
BITMAP
20
73
21
3C
62
A2
A2
64
ENDCHAR
STARTCHAR 304B
ENCODING 12363
SWIDTH 900 0
DWIDTH 10 0
BBX 8 8 1 -1
BITMAP
10
3A
E5
24
44
44
88
10
ENDCHAR
STARTCHAR 304C
ENCODING 12364
SWIDTH 900 0
DWIDTH 10 0
BBX 8 9 1 -1
BITMAP
01
21
32
E9
49
48
48
88
90
ENDCHAR
STARTCHAR 304D
ENCODING 12365
SWIDTH 900 0
DWIDTH 10 0
BBX 6 9 2 -1
BITMAP
20
38
54
38
48
38
CC
80
70
ENDCHAR
STARTCHAR 304E
ENCODING 12366
SWIDTH 900 0
DWIDTH 10 0
BBX 7 9 2 -1
BITMAP
42
74
A0
38
D0
70
98
80
E0
ENDCHAR
STARTCHAR 304F
ENCODING 12367
SWIDTH 900 0
DWIDTH 10 0
BBX 4 8 3 0
BITMAP
20
20
40
80
40
20
20
10
ENDCHAR
STARTCHAR 3050
ENCODING 12368
SWIDTH 900 0
DWIDTH 10 0
BBX 6 8 2 0
BITMAP
20
4C
40
80
40
20
20
10
ENDCHAR
STARTCHAR 3051
ENCODING 12369
SWIDTH 900 0
DWIDTH 10 0
BBX 8 8 1 0
BITMAP
44
4F
84
84
A4
C4
44
08
ENDCHAR
STARTCHAR 3052
ENCODING 12370
SWIDTH 900 0
DWIDTH 10 0
BBX 8 8 1 0
BITMAP
89
8A
BC
88
C8
88
88
10
ENDCHAR
STARTCHAR 3053
ENCODING 12371
SWIDTH 900 0
DWIDTH 10 0
BBX 6 7 2 0
BITMAP
78
00
00
00
00
80
7C
ENDCHAR
STARTCHAR 3054
ENCODING 12372
SWIDTH 900 0
DWIDTH 10 0
BBX 8 8 1 0
BITMAP
01
32
08
00
00
00
80
7C
ENDCHAR
STARTCHAR 3055
ENCODING 12373
SWIDTH 900 0
DWIDTH 10 0
BBX 6 9 2 -1
BITMAP
20
24
78
10
08
7C
80
40
70
ENDCHAR
STARTCHAR 3056
ENCODING 12374
SWIDTH 900 0
DWIDTH 10 0
BBX 8 9 1 -1
BITMAP
21
22
78
10
08
7C
80
40
70
ENDCHAR
STARTCHAR 3057
ENCODING 12375
SWIDTH 900 0
DWIDTH 10 0
BBX 6 9 2 -1
BITMAP
80
80
80
80
80
80
84
8C
78
ENDCHAR
STARTCHAR 3058
ENCODING 12376
SWIDTH 900 0
DWIDTH 10 0
BBX 6 9 2 -1
BITMAP
80
84
48
80
80
80
84
4C
78
ENDCHAR
STARTCHAR 3059
ENCODING 12377
SWIDTH 900 0
DWIDTH 10 0
BBX 8 9 1 -1
BITMAP
08
08
FF
18
28
28
38
08
30
ENDCHAR
STARTCHAR 305A
ENCODING 12378
SWIDTH 900 0
DWIDTH 10 0
BBX 7 9 1 -1
BITMAP
0A
08
FE
08
30
48
38
10
30
ENDCHAR
STARTCHAR 305B
ENCODING 12379
SWIDTH 900 0
DWIDTH 10 0
BBX 9 8 1 -1
BITMAP
0400
2400
3F80
E400
2400
2000
2000
1C00
ENDCHAR
STARTCHAR 305C
ENCODING 12380
SWIDTH 900 0
DWIDTH 10 0
BBX 9 8 1 -1
BITMAP
0480
4400
7F00
C400
4400
4800
2000
1C00
ENDCHAR
STARTCHAR 305D
ENCODING 12381
SWIDTH 900 0
DWIDTH 10 0
BBX 6 9 2 -1
BITMAP
78
10
20
40
FC
10
20
20
18
ENDCHAR
STARTCHAR 305E
ENCODING 12382
SWIDTH 900 0
DWIDTH 10 0
BBX 8 9 1 -1
BITMAP
68
1B
20
40
FC
10
20
20
18
ENDCHAR
STARTCHAR 305F
ENCODING 12383
SWIDTH 900 0
DWIDTH 10 0
BBX 8 8 1 0
BITMAP
20
38
60
2E
20
40
40
CF
ENDCHAR
STARTCHAR 3060
ENCODING 12384
SWIDTH 900 0
DWIDTH 10 0
BBX 8 8 1 0
BITMAP
23
70
20
4E
40
40
50
8E
ENDCHAR
STARTCHAR 3061
ENCODING 12385
SWIDTH 900 0
DWIDTH 10 0
BBX 7 8 2 0
BITMAP
20
F8
20
40
7C
02
04
1C
ENDCHAR
STARTCHAR 3062
ENCODING 12386
SWIDTH 900 0
DWIDTH 10 0
BBX 8 9 1 -1
BITMAP
01
22
FC
20
20
3C
22
02
1C
ENDCHAR
STARTCHAR 3063
ENCODING 12387
SWIDTH 900 0
DWIDTH 10 0
BBX 6 5 2 0
BITMAP
38
C4
04
04
18
ENDCHAR
STARTCHAR 3064
ENCODING 12388
SWIDTH 900 0
DWIDTH 10 0
BBX 8 6 1 0
BITMAP
1E
E1
01
01
02
0C
ENDCHAR
STARTCHAR 3065
ENCODING 12389
SWIDTH 900 0
DWIDTH 10 0
BBX 9 7 1 1
BITMAP
0180
3C00
C200
0100
0200
0200
1C00
ENDCHAR
STARTCHAR 3066
ENCODING 12390
SWIDTH 900 0
DWIDTH 10 0
BBX 7 8 2 -1
BITMAP
1E
E8
10
20
20
10
1C
04
ENDCHAR
STARTCHAR 3067
ENCODING 12391
SWIDTH 900 0
DWIDTH 10 0
BBX 9 7 1 -1
BITMAP
1E00
E800
1280
1000
1000
1000
0C00
ENDCHAR
STARTCHAR 3068
ENCODING 12392
SWIDTH 900 0
DWIDTH 10 0
BBX 6 8 2 -1
BITMAP
40
40
3C
20
40
80
80
7C
ENDCHAR
STARTCHAR 3069
ENCODING 12393
SWIDTH 900 0
DWIDTH 10 0
BBX 7 8 2 0
BITMAP
86
40
78
40
80
80
80
78
ENDCHAR
STARTCHAR 306A
ENCODING 12394
SWIDTH 900 0
DWIDTH 10 0
BBX 7 8 2 0
BITMAP
40
F4
42
88
88
18
2E
38
ENDCHAR
STARTCHAR 306B
ENCODING 12395
SWIDTH 900 0
DWIDTH 10 0
BBX 7 8 2 -1
BITMAP
80
9C
80
80
80
A0
9E
80
ENDCHAR
STARTCHAR 306C
ENCODING 12396
SWIDTH 900 0
DWIDTH 10 0
BBX 8 8 1 -1
BITMAP
10
18
76
D1
D1
A7
CB
04
ENDCHAR
STARTCHAR 306D
ENCODING 12397
SWIDTH 900 0
DWIDTH 10 0
BBX 9 8 1 0
BITMAP
4000
6C00
B200
6100
4100
CE00
4B80
0400
ENDCHAR
STARTCHAR 306E
ENCODING 12398
SWIDTH 900 0
DWIDTH 10 0
BBX 8 7 1 0
BITMAP
1C
2A
49
91
91
A1
46
ENDCHAR
STARTCHAR 306F
ENCODING 12399
SWIDTH 900 0
DWIDTH 10 0
BBX 8 8 1 -1
BITMAP
44
8E
94
84
84
DE
55
18
ENDCHAR
STARTCHAR 3070
ENCODING 12400
SWIDTH 900 0
DWIDTH 10 0
BBX 8 9 1 -1
BITMAP
03
84
86
B8
84
84
9E
A5
98
ENDCHAR
STARTCHAR 3071
ENCODING 12401
SWIDTH 900 0
DWIDTH 10 0
BBX 8 9 1 -1
BITMAP
03
85
86
B8
84
84
9C
A7
18
ENDCHAR
STARTCHAR 3072
ENCODING 12402
SWIDTH 900 0
DWIDTH 10 0
BBX 7 8 2 -1
BITMAP
C8
4C
8A
88
88
88
90
60
ENDCHAR
STARTCHAR 3073
ENCODING 12403
SWIDTH 900 0
DWIDTH 10 0
BBX 9 9 1 -1
BITMAP
0280
E400
4400
4600
8400
8400
8800
8800
7000
ENDCHAR
STARTCHAR 3074
ENCODING 12404
SWIDTH 900 0
DWIDTH 10 0
BBX 9 9 1 -1
BITMAP
0380
E500
4400
4600
8400
8400
8800
8800
7000
ENDCHAR
STARTCHAR 3075
ENCODING 12405
SWIDTH 900 0
DWIDTH 10 0
BBX 8 8 1 0
BITMAP
18
00
00
18
08
A5
44
18
ENDCHAR
STARTCHAR 3076
ENCODING 12406
SWIDTH 900 0
DWIDTH 10 0
BBX 8 9 1 -1
BITMAP
01
18
00
00
18
08
A5
44
18
ENDCHAR
STARTCHAR 3077
ENCODING 12407
SWIDTH 900 0
DWIDTH 10 0
BBX 8 9 1 -1
BITMAP
03
1B
00
00
18
08
A5
44
18
ENDCHAR
STARTCHAR 3078
ENCODING 12408
SWIDTH 900 0
DWIDTH 10 0
BBX 8 4 1 1
BITMAP
30
4C
82
01
ENDCHAR
STARTCHAR 3079
ENCODING 12409
SWIDTH 900 0
DWIDTH 10 0
BBX 8 5 1 1
BITMAP
03
30
48
86
01
ENDCHAR
STARTCHAR 307A
ENCODING 12410
SWIDTH 900 0
DWIDTH 10 0
BBX 8 5 1 2
BITMAP
03
30
48
86
01
ENDCHAR
STARTCHAR 307B
ENCODING 12411
SWIDTH 900 0
DWIDTH 10 0
BBX 8 8 1 -1
BITMAP
5E
84
9E
84
84
DE
55
18
ENDCHAR
STARTCHAR 307C
ENCODING 12412
SWIDTH 900 0
DWIDTH 10 0
BBX 8 8 1 -1
BITMAP
9C
89
BE
88
88
9C
AA
98
ENDCHAR
STARTCHAR 307D
ENCODING 12413
SWIDTH 900 0
DWIDTH 10 0
BBX 9 8 1 -1
BITMAP
9D80
8900
BE00
8800
8800
9C00
AA00
9800
ENDCHAR
STARTCHAR 307E
ENCODING 12414
SWIDTH 900 0
DWIDTH 10 0
BBX 6 8 2 0
BITMAP
10
F8
10
78
10
70
9C
E0
ENDCHAR
STARTCHAR 307F
ENCODING 12415
SWIDTH 900 0
DWIDTH 10 0
BBX 8 7 1 -1
BITMAP
78
10
12
7A
A6
A5
C4
ENDCHAR
STARTCHAR 3080
ENCODING 12416
SWIDTH 900 0
DWIDTH 10 0
BBX 8 8 1 -1
BITMAP
20
79
21
60
A0
E2
22
1E
ENDCHAR
STARTCHAR 3081
ENCODING 12417
SWIDTH 900 0
DWIDTH 10 0
BBX 8 7 1 -1
BITMAP
08
5C
6B
51
B1
A1
D3
ENDCHAR
STARTCHAR 3082
ENCODING 12418
SWIDTH 900 0
DWIDTH 10 0
BBX 6 8 2 0
BITMAP
20
70
20
A0
74
44
44
38
ENDCHAR
STARTCHAR 3083
ENCODING 12419
SWIDTH 900 0
DWIDTH 10 0
BBX 7 6 2 0
BITMAP
9C
62
C2
2C
20
10
ENDCHAR
STARTCHAR 3084
ENCODING 12420
SWIDTH 900 0
DWIDTH 10 0
BBX 8 8 1 0
BITMAP
48
4F
35
E1
27
10
10
08
ENDCHAR
STARTCHAR 3085
ENCODING 12421
SWIDTH 900 0
DWIDTH 10 0
BBX 6 7 2 -1
BITMAP
10
B8
D4
94
B4
98
20
ENDCHAR
STARTCHAR 3086
ENCODING 12422
SWIDTH 900 0
DWIDTH 10 0
BBX 8 8 1 0
BITMAP
44
5E
A5
C5
C5
5E
08
10
ENDCHAR
STARTCHAR 3087
ENCODING 12423
SWIDTH 900 0
DWIDTH 10 0
BBX 5 7 3 -1
BITMAP
20
30
20
20
E0
B8
40
ENDCHAR
STARTCHAR 3088
ENCODING 12424
SWIDTH 900 0
DWIDTH 10 0
BBX 6 8 2 -1
BITMAP
10
1C
10
10
10
78
94
60
ENDCHAR
STARTCHAR 3089
ENCODING 12425
SWIDTH 900 0
DWIDTH 10 0
BBX 6 8 2 0
BITMAP
30
00
40
40
B8
44
04
38
ENDCHAR
STARTCHAR 308A
ENCODING 12426
SWIDTH 900 0
DWIDTH 10 0
BBX 5 8 3 -1
BITMAP
88
88
88
88
88
10
10
20
ENDCHAR
STARTCHAR 308B
ENCODING 12427
SWIDTH 900 0
DWIDTH 10 0
BBX 6 8 2 -1
BITMAP
70
10
28
74
84
34
2C
38
ENDCHAR
STARTCHAR 308C
ENCODING 12428
SWIDTH 900 0
DWIDTH 10 0
BBX 8 8 1 -1
BITMAP
40
2C
F2
62
44
C4
45
02
ENDCHAR
STARTCHAR 308D
ENCODING 12429
SWIDTH 900 0
DWIDTH 10 0
BBX 6 8 2 -1
BITMAP
70
10
20
7C
84
04
04
18
ENDCHAR
STARTCHAR 308E
ENCODING 12430
SWIDTH 900 0
DWIDTH 10 0
BBX 6 7 2 -1
BITMAP
40
68
74
44
C4
44
40
ENDCHAR
STARTCHAR 308F
ENCODING 12431
SWIDTH 900 0
DWIDTH 10 0
BBX 8 8 1 -1
BITMAP
20
30
FE
21
61
61
22
20
ENDCHAR
STARTCHAR 3090
ENCODING 12432
SWIDTH 900 0
DWIDTH 10 0
BBX 8 8 1 -1
BITMAP
38
08
0C
33
51
AD
AA
4C
ENDCHAR
STARTCHAR 3091
ENCODING 12433
SWIDTH 900 0
DWIDTH 10 0
BBX 7 8 2 0
BITMAP
70
38
64
14
38
20
DC
A2
ENDCHAR
STARTCHAR 3092
ENCODING 12434
SWIDTH 900 0
DWIDTH 10 0
BBX 6 8 2 0
BITMAP
30
C0
60
D4
98
28
40
38
ENDCHAR
STARTCHAR 3093
ENCODING 12435
SWIDTH 900 0
DWIDTH 10 0
BBX 7 8 2 -1
BITMAP
10
20
20
40
70
92
8A
0C
ENDCHAR
STARTCHAR 30A1
ENCODING 12449
SWIDTH 900 0
DWIDTH 10 0
BBX 6 7 2 -1
BITMAP
FC
04
28
30
20
20
40
ENDCHAR
STARTCHAR 30A2
ENCODING 12450
SWIDTH 900 0
DWIDTH 10 0
BBX 7 7 2 -1
BITMAP
FE
04
28
30
20
20
40
ENDCHAR
STARTCHAR 30A3
ENCODING 12451
SWIDTH 900 0
DWIDTH 10 0
BBX 5 7 3 -1
BITMAP
08
10
60
A0
20
20
20
ENDCHAR
STARTCHAR 30A4
ENCODING 12452
SWIDTH 900 0
DWIDTH 10 0
BBX 6 8 2 -1
BITMAP
04
08
10
70
90
10
10
10
ENDCHAR
STARTCHAR 30A5
ENCODING 12453
SWIDTH 900 0
DWIDTH 10 0
BBX 5 6 3 -1
BITMAP
20
F8
88
08
10
20
ENDCHAR
STARTCHAR 30A6
ENCODING 12454
SWIDTH 900 0
DWIDTH 10 0
BBX 6 9 2 -1
BITMAP
10
10
FC
84
84
04
08
18
20
ENDCHAR
STARTCHAR 30A7
ENCODING 12455
SWIDTH 900 0
DWIDTH 10 0
BBX 6 5 2 0
BITMAP
7C
10
10
10
FC
ENDCHAR
STARTCHAR 30A8
ENCODING 12456
SWIDTH 900 0
DWIDTH 10 0
BBX 6 5 2 1
BITMAP
FC
10
10
10
10
ENDCHAR
STARTCHAR 30A9
ENCODING 12457
SWIDTH 900 0
DWIDTH 10 0
BBX 5 6 3 0
BITMAP
D8
20
50
90
10
20
ENDCHAR
STARTCHAR 30AA
ENCODING 12458
SWIDTH 900 0
DWIDTH 10 0
BBX 7 8 2 -1
BITMAP
08
FE
18
28
48
88
08
10
ENDCHAR
STARTCHAR 30AB
ENCODING 12459
SWIDTH 900 0
DWIDTH 10 0
BBX 7 8 2 -1
BITMAP
20
7C
22
22
24
44
C4
88
ENDCHAR
STARTCHAR 30AC
ENCODING 12460
SWIDTH 900 0
DWIDTH 10 0
BBX 8 9 1 -1
BITMAP
01
21
7C
22
22
24
64
44
88
ENDCHAR
STARTCHAR 30AD
ENCODING 12461
SWIDTH 900 0
DWIDTH 10 0
BBX 6 8 2 0
BITMAP
20
3C
E0
10
FC
10
10
10
ENDCHAR
STARTCHAR 30AE
ENCODING 12462
SWIDTH 900 0
DWIDTH 10 0
BBX 7 9 2 -1
BITMAP
06
20
38
E0
20
FC
20
20
10
ENDCHAR
STARTCHAR 30AF
ENCODING 12463
SWIDTH 900 0
DWIDTH 10 0
BBX 6 8 2 0
BITMAP
20
3C
44
84
08
10
20
40
ENDCHAR
STARTCHAR 30B0
ENCODING 12464
SWIDTH 900 0
DWIDTH 10 0
BBX 8 9 1 -1
BITMAP
01
21
3C
44
84
08
10
20
40
ENDCHAR
STARTCHAR 30B1
ENCODING 12465
SWIDTH 900 0
DWIDTH 10 0
BBX 8 7 1 0
BITMAP
10
3F
44
84
08
08
10
ENDCHAR
STARTCHAR 30B2
ENCODING 12466
SWIDTH 900 0
DWIDTH 10 0
BBX 9 9 1 -1
BITMAP
2080
2100
7E00
4800
8800
0800
1000
1000
2000
ENDCHAR
STARTCHAR 30B3
ENCODING 12467
SWIDTH 900 0
DWIDTH 10 0
BBX 6 6 2 0
BITMAP
FC
04
04
04
04
7C
ENDCHAR
STARTCHAR 30B4
ENCODING 12468
SWIDTH 900 0
DWIDTH 10 0
BBX 8 8 1 0
BITMAP
03
00
FC
04
04
04
04
FC
ENDCHAR
STARTCHAR 30B5
ENCODING 12469
SWIDTH 900 0
DWIDTH 10 0
BBX 7 8 2 -1
BITMAP
48
48
FE
48
48
08
10
20
ENDCHAR
STARTCHAR 30B6
ENCODING 12470
SWIDTH 900 0
DWIDTH 10 0
BBX 9 9 1 -1
BITMAP
0080
4500
4400
FE00
4400
4800
0800
1000
2000
ENDCHAR
STARTCHAR 30B7
ENCODING 12471
SWIDTH 900 0
DWIDTH 10 0
BBX 8 7 1 0
BITMAP
20
00
C1
02
04
18
60
ENDCHAR
STARTCHAR 30B8
ENCODING 12472
SWIDTH 900 0
DWIDTH 10 0
BBX 8 7 1 0
BITMAP
23
00
C1
02
04
18
60
ENDCHAR
STARTCHAR 30B9
ENCODING 12473
SWIDTH 900 0
DWIDTH 10 0
BBX 6 6 2 0
BITMAP
78
08
10
28
44
80
ENDCHAR
STARTCHAR 30BA
ENCODING 12474
SWIDTH 900 0
DWIDTH 10 0
BBX 8 8 1 0
BITMAP
01
02
7C
08
08
14
26
C2
ENDCHAR
STARTCHAR 30BB
ENCODING 12475
SWIDTH 900 0
DWIDTH 10 0
BBX 7 8 2 -1
BITMAP
40
44
7A
C4
48
40
40
3C
ENDCHAR
STARTCHAR 30BC
ENCODING 12476
SWIDTH 900 0
DWIDTH 10 0
BBX 8 9 1 -1
BITMAP
01
21
24
7A
A4
24
20
20
3E
ENDCHAR
STARTCHAR 30BD
ENCODING 12477
SWIDTH 900 0
DWIDTH 10 0
BBX 7 7 2 -1
BITMAP
82
84
44
08
08
10
20
ENDCHAR
STARTCHAR 30BE
ENCODING 12478
SWIDTH 900 0
DWIDTH 10 0
BBX 9 9 1 -1
BITMAP
0080
0400
8400
4400
0800
0800
1000
2000
4000
ENDCHAR
STARTCHAR 30BF
ENCODING 12479
SWIDTH 900 0
DWIDTH 10 0
BBX 6 8 2 0
BITMAP
20
7C
C4
AC
18
18
68
C0
ENDCHAR
STARTCHAR 30C0
ENCODING 12480
SWIDTH 900 0
DWIDTH 10 0
BBX 8 8 1 0
BITMAP
21
7C
C4
AC
18
18
68
C0
ENDCHAR
STARTCHAR 30C1
ENCODING 12481
SWIDTH 900 0
DWIDTH 10 0
BBX 6 9 2 -1
BITMAP
04
78
10
10
FC
10
20
20
C0
ENDCHAR
STARTCHAR 30C2
ENCODING 12482
SWIDTH 900 0
DWIDTH 10 0
BBX 8 9 1 -1
BITMAP
04
78
11
10
FE
10
10
20
40
ENDCHAR
STARTCHAR 30C3
ENCODING 12483
SWIDTH 900 0
DWIDTH 10 0
BBX 6 6 2 -1
BITMAP
A4
04
08
08
10
20
ENDCHAR
STARTCHAR 30C4
ENCODING 12484
SWIDTH 900 0
DWIDTH 10 0
BBX 7 7 2 -1
BITMAP
20
92
84
04
08
10
20
ENDCHAR
STARTCHAR 30C5
ENCODING 12485
SWIDTH 900 0
DWIDTH 10 0
BBX 9 8 1 -1
BITMAP
0080
2100
9200
8400
0400
0800
1000
2000
ENDCHAR
STARTCHAR 30C6
ENCODING 12486
SWIDTH 900 0
DWIDTH 10 0
BBX 7 8 2 -1
BITMAP
78
00
FE
10
10
20
20
40
ENDCHAR
STARTCHAR 30C7
ENCODING 12487
SWIDTH 900 0
DWIDTH 10 0
BBX 9 9 1 -1
BITMAP
0280
7C00
0000
FE00
1000
1000
1000
2000
4000
ENDCHAR
STARTCHAR 30C8
ENCODING 12488
SWIDTH 900 0
DWIDTH 10 0
BBX 4 8 3 -1
BITMAP
80
80
C0
B0
80
80
80
80
ENDCHAR
STARTCHAR 30C9
ENCODING 12489
SWIDTH 900 0
DWIDTH 10 0
BBX 4 9 3 -1
BITMAP
10
90
80
80
E0
80
80
80
80
ENDCHAR
STARTCHAR 30CA
ENCODING 12490
SWIDTH 900 0
DWIDTH 10 0
BBX 6 8 2 -1
BITMAP
10
10
FC
10
10
20
20
40
ENDCHAR
STARTCHAR 30CB
ENCODING 12491
SWIDTH 900 0
DWIDTH 10 0
BBX 6 5 2 1
BITMAP
7C
00
00
00
FC
ENDCHAR
STARTCHAR 30CC
ENCODING 12492
SWIDTH 900 0
DWIDTH 10 0
BBX 5 7 3 0
BITMAP
F8
08
18
70
30
58
88
ENDCHAR
STARTCHAR 30CD
ENCODING 12493
SWIDTH 900 0
DWIDTH 10 0
BBX 7 9 2 -1
BITMAP
10
10
FC
08
10
74
92
10
10
ENDCHAR
STARTCHAR 30CE
ENCODING 12494
SWIDTH 900 0
DWIDTH 10 0
BBX 5 7 3 -1
BITMAP
08
08
10
10
20
40
80
ENDCHAR
STARTCHAR 30CF
ENCODING 12495
SWIDTH 900 0
DWIDTH 10 0
BBX 8 5 1 1
BITMAP
04
22
22
41
C1
ENDCHAR
STARTCHAR 30D0
ENCODING 12496
SWIDTH 900 0
DWIDTH 10 0
BBX 9 6 1 1
BITMAP
0080
2400
2400
4200
4200
8100
ENDCHAR
STARTCHAR 30D1
ENCODING 12497
SWIDTH 900 0
DWIDTH 10 0
BBX 9 7 1 1
BITMAP
0100
0280
2500
2400
4200
4200
8100
ENDCHAR
STARTCHAR 30D2
ENCODING 12498
SWIDTH 900 0
DWIDTH 10 0
BBX 6 8 2 -1
BITMAP
80
88
B0
C0
80
80
80
7C
ENDCHAR
STARTCHAR 30D3
ENCODING 12499
SWIDTH 900 0
DWIDTH 10 0
BBX 6 8 2 0
BITMAP
04
88
B0
C0
80
80
80
78
ENDCHAR
STARTCHAR 30D4
ENCODING 12500
SWIDTH 900 0
DWIDTH 10 0
BBX 7 9 2 -1
BITMAP
06
06
88
B0
C0
80
80
80
78
ENDCHAR
STARTCHAR 30D5
ENCODING 12501
SWIDTH 900 0
DWIDTH 10 0
BBX 6 8 2 -1
BITMAP
FC
04
04
04
08
10
60
40
ENDCHAR
STARTCHAR 30D6
ENCODING 12502
SWIDTH 900 0
DWIDTH 10 0
BBX 7 9 2 -1
BITMAP
06
F8
04
08
08
10
20
40
80
ENDCHAR
STARTCHAR 30D7
ENCODING 12503
SWIDTH 900 0
DWIDTH 10 0
BBX 7 9 2 -1
BITMAP
06
FA
04
08
08
10
20
40
80
ENDCHAR
STARTCHAR 30D8
ENCODING 12504
SWIDTH 900 0
DWIDTH 10 0
BBX 8 4 1 1
BITMAP
30
48
86
01
ENDCHAR
STARTCHAR 30D9
ENCODING 12505
SWIDTH 900 0
DWIDTH 10 0
BBX 8 5 1 1
BITMAP
03
30
48
86
01
ENDCHAR
STARTCHAR 30DA
ENCODING 12506
SWIDTH 900 0
DWIDTH 10 0
BBX 8 5 1 2
BITMAP
03
30
48
86
01
ENDCHAR
STARTCHAR 30DB
ENCODING 12507
SWIDTH 900 0
DWIDTH 10 0
BBX 7 8 2 -1
BITMAP
10
FE
10
14
94
92
10
20
ENDCHAR
STARTCHAR 30DC
ENCODING 12508
SWIDTH 900 0
DWIDTH 10 0
BBX 8 9 1 -1
BITMAP
01
10
FE
10
10
52
91
10
10
ENDCHAR
STARTCHAR 30DD
ENCODING 12509
SWIDTH 900 0
DWIDTH 10 0
BBX 8 9 1 -1
BITMAP
03
11
FE
10
10
52
D1
10
10
ENDCHAR
STARTCHAR 30DE
ENCODING 12510
SWIDTH 900 0
DWIDTH 10 0
BBX 7 6 2 0
BITMAP
FE
04
0C
38
10
18
ENDCHAR
STARTCHAR 30DF
ENCODING 12511
SWIDTH 900 0
DWIDTH 10 0
BBX 4 7 3 -1
BITMAP
60
10
C0
20
00
C0
30
ENDCHAR
STARTCHAR 30E0
ENCODING 12512
SWIDTH 900 0
DWIDTH 10 0
BBX 8 7 1 0
BITMAP
10
10
10
20
22
41
FF
ENDCHAR
STARTCHAR 30E1
ENCODING 12513
SWIDTH 900 0
DWIDTH 10 0
BBX 6 7 2 0
BITMAP
04
04
28
18
1C
20
C0
ENDCHAR
STARTCHAR 30E2
ENCODING 12514
SWIDTH 900 0
DWIDTH 10 0
BBX 8 8 1 -1
BITMAP
7E
10
10
FF
10
10
10
0E
ENDCHAR
STARTCHAR 30E3
ENCODING 12515
SWIDTH 900 0
DWIDTH 10 0
BBX 6 5 2 0
BITMAP
2C
F4
28
20
20
ENDCHAR
STARTCHAR 30E4
ENCODING 12516
SWIDTH 900 0
DWIDTH 10 0
BBX 7 8 2 -1
BITMAP
40
4E
F2
24
20
20
20
10
ENDCHAR
STARTCHAR 30E5
ENCODING 12517
SWIDTH 900 0
DWIDTH 10 0
BBX 6 5 2 0
BITMAP
78
08
08
08
FC
ENDCHAR
STARTCHAR 30E6
ENCODING 12518
SWIDTH 900 0
DWIDTH 10 0
BBX 8 6 1 0
BITMAP
7E
04
04
04
04
FF
ENDCHAR
STARTCHAR 30E7
ENCODING 12519
SWIDTH 900 0
DWIDTH 10 0
BBX 5 5 3 0
BITMAP
F8
08
F8
08
F8
ENDCHAR
STARTCHAR 30E8
ENCODING 12520
SWIDTH 900 0
DWIDTH 10 0
BBX 6 6 2 0
BITMAP
7C
04
FC
04
04
FC
ENDCHAR
STARTCHAR 30E9
ENCODING 12521
SWIDTH 900 0
DWIDTH 10 0
BBX 6 8 2 -1
BITMAP
78
00
FC
04
04
08
10
20
ENDCHAR
STARTCHAR 30EA
ENCODING 12522
SWIDTH 900 0
DWIDTH 10 0
BBX 4 8 3 -1
BITMAP
90
90
90
90
10
10
20
40
ENDCHAR
STARTCHAR 30EB
ENCODING 12523
SWIDTH 900 0
DWIDTH 10 0
BBX 9 7 1 -1
BITMAP
0800
4800
4800
4980
4900
4A00
8C00
ENDCHAR
STARTCHAR 30EC
ENCODING 12524
SWIDTH 900 0
DWIDTH 10 0
BBX 6 7 2 0
BITMAP
80
80
80
84
8C
90
E0
ENDCHAR
STARTCHAR 30ED
ENCODING 12525
SWIDTH 900 0
DWIDTH 10 0
BBX 6 6 2 0
BITMAP
FC
84
84
84
84
FC
ENDCHAR
STARTCHAR 30EE
ENCODING 12526
SWIDTH 900 0
DWIDTH 10 0
BBX 5 6 3 -1
BITMAP
F8
88
08
10
10
20
ENDCHAR
STARTCHAR 30EF
ENCODING 12527
SWIDTH 900 0
DWIDTH 10 0
BBX 6 7 2 -1
BITMAP
FC
84
84
04
04
08
10
ENDCHAR
STARTCHAR 30F0
ENCODING 12528
SWIDTH 900 0
DWIDTH 10 0
BBX 7 9 2 -1
BITMAP
08
08
FC
48
48
48
BE
08
08
ENDCHAR
STARTCHAR 30F1
ENCODING 12529
SWIDTH 900 0
DWIDTH 10 0
BBX 8 7 1 0
BITMAP
7E
03
02
1C
10
10
FF
ENDCHAR
STARTCHAR 30F2
ENCODING 12530
SWIDTH 900 0
DWIDTH 10 0
BBX 6 8 2 -1
BITMAP
FC
04
04
FC
08
10
20
40
ENDCHAR
STARTCHAR 30F3
ENCODING 12531
SWIDTH 900 0
DWIDTH 10 0
BBX 7 7 2 0
BITMAP
80
40
02
04
18
20
C0
ENDCHAR
STARTCHAR 30F4
ENCODING 12532
SWIDTH 900 0
DWIDTH 10 0
BBX 7 9 1 -1
BITMAP
12
10
FE
84
84
04
08
18
20
ENDCHAR
STARTCHAR 30F5
ENCODING 12533
SWIDTH 900 0
DWIDTH 10 0
BBX 5 6 3 0
BITMAP
F0
48
48
48
88
10
ENDCHAR
STARTCHAR 30F6
ENCODING 12534
SWIDTH 900 0
DWIDTH 10 0
BBX 6 7 2 -1
BITMAP
20
34
48
88
10
10
20
ENDCHAR
STARTCHAR 30FB
ENCODING 12539
SWIDTH 270 0
DWIDTH 3 0
BBX 1 1 1 3
BITMAP
80
ENDCHAR
STARTCHAR 30FC
ENCODING 12540
SWIDTH 900 0
DWIDTH 10 0
BBX 10 1 0 3
BITMAP
FFC0
ENDCHAR
STARTCHAR 3131
ENCODING 12593
SWIDTH 900 0
DWIDTH 10 0
BBX 5 5 3 1
BITMAP
F8
08
08
08
08
ENDCHAR
STARTCHAR 3132
ENCODING 12594
SWIDTH 900 0
DWIDTH 10 0
BBX 6 5 2 1
BITMAP
FC
24
24
24
24
ENDCHAR
STARTCHAR 3133
ENCODING 12595
SWIDTH 900 0
DWIDTH 10 0
BBX 8 5 1 1
BITMAP
E4
14
16
1A
19
ENDCHAR
STARTCHAR 3134
ENCODING 12596
SWIDTH 900 0
DWIDTH 10 0
BBX 5 5 3 1
BITMAP
80
80
80
80
F8
ENDCHAR
STARTCHAR 3135
ENCODING 12597
SWIDTH 900 0
DWIDTH 10 0
BBX 8 5 1 1
BITMAP
8E
82
82
86
E9
ENDCHAR
STARTCHAR 3136
ENCODING 12598
SWIDTH 900 0
DWIDTH 10 0
BBX 7 6 2 1
BITMAP
1C
80
BE
88
94
FC
ENDCHAR
STARTCHAR 3137
ENCODING 12599
SWIDTH 900 0
DWIDTH 10 0
BBX 6 5 2 1
BITMAP
FC
80
80
80
FC
ENDCHAR
STARTCHAR 3138
ENCODING 12600
SWIDTH 900 0
DWIDTH 10 0
BBX 7 5 2 1
BITMAP
FC
90
90
90
FE
ENDCHAR
STARTCHAR 3139
ENCODING 12601
SWIDTH 900 0
DWIDTH 10 0
BBX 6 5 2 1
BITMAP
FC
04
FC
80
FC
ENDCHAR
STARTCHAR 313A
ENCODING 12602
SWIDTH 900 0
DWIDTH 10 0
BBX 6 5 2 1
BITMAP
FC
24
E4
84
E4
ENDCHAR
STARTCHAR 313B
ENCODING 12603
SWIDTH 900 0
DWIDTH 10 0
BBX 6 5 2 1
BITMAP
EC
34
F4
94
EC
ENDCHAR
STARTCHAR 313C
ENCODING 12604
SWIDTH 900 0
DWIDTH 10 0
BBX 6 5 2 1
BITMAP
F4
34
FC
94
FC
ENDCHAR
STARTCHAR 313D
ENCODING 12605
SWIDTH 900 0
DWIDTH 10 0
BBX 8 5 1 1
BITMAP
E4
14
E4
86
E9
ENDCHAR
STARTCHAR 313E
ENCODING 12606
SWIDTH 900 0
DWIDTH 10 0
BBX 6 5 2 1
BITMAP
FC
30
FC
90
FC
ENDCHAR
STARTCHAR 313F
ENCODING 12607
SWIDTH 900 0
DWIDTH 10 0
BBX 7 5 2 1
BITMAP
FE
2C
EC
8C
FE
ENDCHAR
STARTCHAR 3140
ENCODING 12608
SWIDTH 900 0
DWIDTH 10 0
BBX 7 6 2 1
BITMAP
0C
E0
3E
EC
12
FC
ENDCHAR
STARTCHAR 3141
ENCODING 12609
SWIDTH 900 0
DWIDTH 10 0
BBX 5 5 3 1
BITMAP
F8
88
88
88
F8
ENDCHAR
STARTCHAR 3142
ENCODING 12610
SWIDTH 900 0
DWIDTH 10 0
BBX 5 5 3 1
BITMAP
88
88
F8
88
F8
ENDCHAR
STARTCHAR 3143
ENCODING 12611
SWIDTH 900 0
DWIDTH 10 0
BBX 6 5 2 1
BITMAP
B4
B4
FC
B4
EC
ENDCHAR
STARTCHAR 3144
ENCODING 12612
SWIDTH 900 0
DWIDTH 10 0
BBX 7 5 2 1
BITMAP
28
28
C8
34
D2
ENDCHAR
STARTCHAR 3145
ENCODING 12613
SWIDTH 900 0
DWIDTH 10 0
BBX 6 5 2 1
BITMAP
10
20
30
48
84
ENDCHAR
STARTCHAR 3146
ENCODING 12614
SWIDTH 900 0
DWIDTH 10 0
BBX 7 5 2 1
BITMAP
48
48
EC
92
20
ENDCHAR
STARTCHAR 3147
ENCODING 12615
SWIDTH 900 0
DWIDTH 10 0
BBX 6 5 2 1
BITMAP
78
44
84
44
78
ENDCHAR
STARTCHAR 3148
ENCODING 12616
SWIDTH 900 0
DWIDTH 10 0
BBX 7 5 2 1
BITMAP
FC
08
10
78
86
ENDCHAR
STARTCHAR 3149
ENCODING 12617
SWIDTH 900 0
DWIDTH 10 0
BBX 8 5 1 1
BITMAP
7E
12
34
CB
10
ENDCHAR
STARTCHAR 314A
ENCODING 12618
SWIDTH 900 0
DWIDTH 10 0
BBX 6 6 2 1
BITMAP
30
00
FC
08
38
C4
ENDCHAR
STARTCHAR 314B
ENCODING 12619
SWIDTH 900 0
DWIDTH 10 0
BBX 5 5 3 1
BITMAP
F8
08
F8
08
08
ENDCHAR
STARTCHAR 314C
ENCODING 12620
SWIDTH 900 0
DWIDTH 10 0
BBX 6 5 2 1
BITMAP
FC
80
FC
80
FC
ENDCHAR
STARTCHAR 314D
ENCODING 12621
SWIDTH 900 0
DWIDTH 10 0
BBX 6 5 2 1
BITMAP
FC
48
48
48
FC
ENDCHAR
STARTCHAR 314E
ENCODING 12622
SWIDTH 900 0
DWIDTH 10 0
BBX 6 7 2 0
BITMAP
78
00
FC
00
78
44
78
ENDCHAR
STARTCHAR 314F
ENCODING 12623
SWIDTH 900 0
DWIDTH 10 0
BBX 2 11 4 -2
BITMAP
80
80
80
80
80
C0
80
80
80
80
80
ENDCHAR
STARTCHAR 3150
ENCODING 12624
SWIDTH 900 0
DWIDTH 10 0
BBX 4 11 3 -2
BITMAP
90
90
90
90
90
F0
90
90
90
90
90
ENDCHAR
STARTCHAR 3151
ENCODING 12625
SWIDTH 900 0
DWIDTH 10 0
BBX 2 11 4 -2
BITMAP
80
80
80
C0
80
80
80
C0
80
80
80
ENDCHAR
STARTCHAR 3152
ENCODING 12626
SWIDTH 900 0
DWIDTH 10 0
BBX 4 11 3 -2
BITMAP
90
90
90
F0
90
90
F0
90
90
90
90
ENDCHAR
STARTCHAR 3153
ENCODING 12627
SWIDTH 900 0
DWIDTH 10 0
BBX 3 11 4 -2
BITMAP
20
20
20
20
20
E0
20
20
20
20
20
ENDCHAR
STARTCHAR 3154
ENCODING 12628
SWIDTH 900 0
DWIDTH 10 0
BBX 4 11 3 -2
BITMAP
30
30
30
30
30
D0
30
30
30
30
30
ENDCHAR
STARTCHAR 3155
ENCODING 12629
SWIDTH 900 0
DWIDTH 10 0
BBX 3 11 4 -2
BITMAP
20
20
20
E0
20
20
E0
20
20
20
20
ENDCHAR
STARTCHAR 3156
ENCODING 12630
SWIDTH 900 0
DWIDTH 10 0
BBX 4 11 3 -2
BITMAP
30
30
30
D0
30
30
D0
30
30
30
30
ENDCHAR
STARTCHAR 3157
ENCODING 12631
SWIDTH 900 0
DWIDTH 10 0
BBX 10 4 0 1
BITMAP
0400
0400
0400
FFC0
ENDCHAR
STARTCHAR 3158
ENCODING 12632
SWIDTH 900 0
DWIDTH 10 0
BBX 9 11 1 -2
BITMAP
0200
0200
0200
0200
2200
2380
2200
2200
FE00
0200
0200
ENDCHAR
STARTCHAR 3159
ENCODING 12633
SWIDTH 900 0
DWIDTH 10 0
BBX 9 11 1 -2
BITMAP
0280
0280
0280
0280
2280
2380
2280
2280
FA80
0280
0280
ENDCHAR
STARTCHAR 315A
ENCODING 12634
SWIDTH 900 0
DWIDTH 10 0
BBX 8 11 1 -2
BITMAP
01
01
01
01
11
11
11
11
FF
01
01
ENDCHAR
STARTCHAR 315B
ENCODING 12635
SWIDTH 900 0
DWIDTH 10 0
BBX 10 4 0 1
BITMAP
1200
1200
1200
FFC0
ENDCHAR
STARTCHAR 315C
ENCODING 12636
SWIDTH 900 0
DWIDTH 10 0
BBX 10 5 0 0
BITMAP
FFC0
0400
0400
0400
0400
ENDCHAR
STARTCHAR 315D
ENCODING 12637
SWIDTH 900 0
DWIDTH 10 0
BBX 8 11 1 -2
BITMAP
01
01
01
01
01
FF
11
17
11
11
01
ENDCHAR
STARTCHAR 315E
ENCODING 12638
SWIDTH 900 0
DWIDTH 10 0
BBX 9 11 1 -2
BITMAP
0280
0280
0280
0280
0280
FA80
2280
2E80
2280
2280
0280
ENDCHAR
STARTCHAR 315F
ENCODING 12639
SWIDTH 900 0
DWIDTH 10 0
BBX 8 11 1 -2
BITMAP
01
01
01
01
01
FF
11
11
11
11
01
ENDCHAR
STARTCHAR 3160
ENCODING 12640
SWIDTH 900 0
DWIDTH 10 0
BBX 10 5 0 0
BITMAP
FFC0
1200
1200
1200
1200
ENDCHAR
STARTCHAR 3161
ENCODING 12641
SWIDTH 900 0
DWIDTH 10 0
BBX 10 1 0 2
BITMAP
FFC0
ENDCHAR
STARTCHAR 3162
ENCODING 12642
SWIDTH 900 0
DWIDTH 10 0
BBX 8 11 1 -2
BITMAP
01
01
01
01
01
01
01
FF
01
01
01
ENDCHAR
STARTCHAR 3163
ENCODING 12643
SWIDTH 900 0
DWIDTH 10 0
BBX 1 11 5 -2
BITMAP
80
80
80
80
80
80
80
80
80
80
80
ENDCHAR
STARTCHAR 3164
ENCODING 12644
SWIDTH 900 0
DWIDTH 10 0
BBX 0 0 0 0
BITMAP
ENDCHAR
STARTCHAR 3165
ENCODING 12645
SWIDTH 900 0
DWIDTH 10 0
BBX 6 5 2 1
BITMAP
90
90
90
90
FC
ENDCHAR
STARTCHAR 3166
ENCODING 12646
SWIDTH 900 0
DWIDTH 10 0
BBX 6 5 2 1
BITMAP
9C
90
90
90
FC
ENDCHAR
STARTCHAR 3167
ENCODING 12647
SWIDTH 900 0
DWIDTH 10 0
BBX 8 5 1 1
BITMAP
84
84
84
8A
69
ENDCHAR
STARTCHAR 3168
ENCODING 12648
SWIDTH 900 0
DWIDTH 10 0
BBX 6 5 2 1
BITMAP
88
88
8C
94
FC
ENDCHAR
STARTCHAR 3169
ENCODING 12649
SWIDTH 900 0
DWIDTH 10 0
BBX 9 5 1 1
BITMAP
F800
4A00
CA00
8B00
CC80
ENDCHAR
STARTCHAR 316A
ENCODING 12650
SWIDTH 900 0
DWIDTH 10 0
BBX 7 5 2 1
BITMAP
EC
30
F0
90
FE
ENDCHAR
STARTCHAR 316B
ENCODING 12651
SWIDTH 900 0
DWIDTH 10 0
BBX 9 5 1 1
BITMAP
C800
5A00
DA00
9B00
FC80
ENDCHAR
STARTCHAR 316C
ENCODING 12652
SWIDTH 900 0
DWIDTH 10 0
BBX 6 5 2 1
BITMAP
E0
28
EC
94
FC
ENDCHAR
STARTCHAR 316D
ENCODING 12653
SWIDTH 900 0
DWIDTH 10 0
BBX 7 5 2 1
BITMAP
FE
20
EC
92
EC
ENDCHAR
STARTCHAR 316E
ENCODING 12654
SWIDTH 900 0
DWIDTH 10 0
BBX 6 5 2 1
BITMAP
F0
B4
BC
B4
FC
ENDCHAR
STARTCHAR 316F
ENCODING 12655
SWIDTH 900 0
DWIDTH 10 0
BBX 7 5 2 1
BITMAP
C8
28
28
34
D2
ENDCHAR
STARTCHAR 3170
ENCODING 12656
SWIDTH 900 0
DWIDTH 10 0
BBX 6 5 2 1
BITMAP
E0
A8
AC
B4
FC
ENDCHAR
STARTCHAR 3171
ENCODING 12657
SWIDTH 900 0
DWIDTH 10 0
BBX 6 8 2 -1
BITMAP
7C
84
84
FC
10
28
28
10
ENDCHAR
STARTCHAR 3172
ENCODING 12658
SWIDTH 900 0
DWIDTH 10 0
BBX 6 5 2 1
BITMAP
BC
A4
E4
A4
E4
ENDCHAR
STARTCHAR 3173
ENCODING 12659
SWIDTH 900 0
DWIDTH 10 0
BBX 6 5 2 1
BITMAP
BC
B0
F0
B0
FC
ENDCHAR
STARTCHAR 3174
ENCODING 12660
SWIDTH 900 0
DWIDTH 10 0
BBX 8 5 1 1
BITMAP
AB
A9
E9
AD
F3
ENDCHAR
STARTCHAR 3175
ENCODING 12661
SWIDTH 900 0
DWIDTH 10 0
BBX 9 5 1 1
BITMAP
8B00
AA00
CA00
BA00
D780
ENDCHAR
STARTCHAR 3176
ENCODING 12662
SWIDTH 900 0
DWIDTH 10 0
BBX 8 5 1 1
BITMAP
8E
A2
E2
A6
E9
ENDCHAR
STARTCHAR 3177
ENCODING 12663
SWIDTH 900 0
DWIDTH 10 0
BBX 6 5 2 1
BITMAP
AC
B0
EC
B0
FC
ENDCHAR
STARTCHAR 3178
ENCODING 12664
SWIDTH 900 0
DWIDTH 10 0
BBX 5 8 3 -1
BITMAP
08
F8
88
F8
20
50
50
20
ENDCHAR
STARTCHAR 3179
ENCODING 12665
SWIDTH 900 0
DWIDTH 10 0
BBX 6 8 2 -1
BITMAP
B0
FC
B4
FC
10
28
28
10
ENDCHAR
STARTCHAR 317A
ENCODING 12666
SWIDTH 900 0
DWIDTH 10 0
BBX 6 5 2 1
BITMAP
3C
24
64
64
94
ENDCHAR
STARTCHAR 317B
ENCODING 12667
SWIDTH 900 0
DWIDTH 10 0
BBX 7 5 2 1
BITMAP
48
48
48
A8
9E
ENDCHAR
STARTCHAR 317C
ENCODING 12668
SWIDTH 900 0
DWIDTH 10 0
BBX 7 5 2 1
BITMAP
4E
48
48
A8
9E
ENDCHAR
STARTCHAR 317D
ENCODING 12669
SWIDTH 900 0
DWIDTH 10 0
BBX 7 5 2 1
BITMAP
4A
4A
4E
AA
9E
ENDCHAR
STARTCHAR 317E
ENCODING 12670
SWIDTH 900 0
DWIDTH 10 0
BBX 8 5 1 1
BITMAP
0E
21
62
66
99
ENDCHAR
STARTCHAR 317F
ENCODING 12671
SWIDTH 900 0
DWIDTH 10 0
BBX 4 4 3 2
BITMAP
60
60
90
F0
ENDCHAR
STARTCHAR 3180
ENCODING 12672
SWIDTH 900 0
DWIDTH 10 0
BBX 7 5 2 1
BITMAP
CC
AA
B2
AA
CC
ENDCHAR
STARTCHAR 3181
ENCODING 12673
SWIDTH 900 0
DWIDTH 10 0
BBX 6 6 2 0
BITMAP
30
48
84
84
48
30
ENDCHAR
STARTCHAR 3182
ENCODING 12674
SWIDTH 900 0
DWIDTH 10 0
BBX 8 5 1 1
BITMAP
20
54
96
96
79
ENDCHAR
STARTCHAR 3183
ENCODING 12675
SWIDTH 900 0
DWIDTH 10 0
BBX 8 5 1 1
BITMAP
20
52
96
95
7F
ENDCHAR
STARTCHAR 3184
ENCODING 12676
SWIDTH 900 0
DWIDTH 10 0
BBX 6 8 2 -1
BITMAP
FC
48
48
FC
10
28
28
10
ENDCHAR
STARTCHAR 3185
ENCODING 12677
SWIDTH 900 0
DWIDTH 10 0
BBX 8 5 1 1
BITMAP
66
FF
66
95
77
ENDCHAR
STARTCHAR 3186
ENCODING 12678
SWIDTH 900 0
DWIDTH 10 0
BBX 5 6 3 0
BITMAP
F8
70
88
88
90
60
ENDCHAR
STARTCHAR 3187
ENCODING 12679
SWIDTH 900 0
DWIDTH 10 0
BBX 7 11 2 -2
BITMAP
04
04
04
06
84
94
94
BE
44
04
04
ENDCHAR
STARTCHAR 3188
ENCODING 12680
SWIDTH 900 0
DWIDTH 10 0
BBX 9 10 1 -2
BITMAP
0080
0280
0280
0280
5380
5280
5280
FB80
0280
0280
ENDCHAR
STARTCHAR 3189
ENCODING 12681
SWIDTH 900 0
DWIDTH 10 0
BBX 7 11 2 -2
BITMAP
02
02
02
02
42
52
52
7E
82
02
02
ENDCHAR
STARTCHAR 318A
ENCODING 12682
SWIDTH 900 0
DWIDTH 10 0
BBX 8 10 1 -2
BITMAP
01
01
01
01
01
FD
2F
29
2F
29
ENDCHAR
STARTCHAR 318B
ENCODING 12683
SWIDTH 900 0
DWIDTH 10 0
BBX 9 11 1 -2
BITMAP
0080
0280
0280
0280
0280
FA80
5680
5280
5680
1280
0080
ENDCHAR
STARTCHAR 318C
ENCODING 12684
SWIDTH 900 0
DWIDTH 10 0
BBX 8 10 1 -2
BITMAP
01
01
01
01
01
FF
29
29
29
29
ENDCHAR
STARTCHAR 318D
ENCODING 12685
SWIDTH 900 0
DWIDTH 10 0
BBX 1 1 5 3
BITMAP
80
ENDCHAR
STARTCHAR 318E
ENCODING 12686
SWIDTH 900 0
DWIDTH 10 0
BBX 4 11 3 -2
BITMAP
10
10
10
10
10
D0
10
10
10
10
10
ENDCHAR
STARTCHAR 3200
ENCODING 12800
SWIDTH 900 0
DWIDTH 10 0
BBX 10 11 0 -2
BITMAP
4080
4040
8040
BF40
8140
8140
8140
8140
8040
4040
4080
ENDCHAR
STARTCHAR 3201
ENCODING 12801
SWIDTH 900 0
DWIDTH 10 0
BBX 10 11 0 -2
BITMAP
4080
4040
8040
9040
9040
9040
9040
9F40
8040
4040
4080
ENDCHAR
STARTCHAR 3202
ENCODING 12802
SWIDTH 900 0
DWIDTH 10 0
BBX 10 11 0 -2
BITMAP
4080
4040
8040
BF40
A040
A040
A040
BF40
8040
4040
4080
ENDCHAR
STARTCHAR 3203
ENCODING 12803
SWIDTH 900 0
DWIDTH 10 0
BBX 10 11 0 -2
BITMAP
4080
4040
8040
BF40
8140
BF40
A040
BF40
8040
4080
4000
ENDCHAR
STARTCHAR 3204
ENCODING 12804
SWIDTH 900 0
DWIDTH 10 0
BBX 10 11 0 -2
BITMAP
4080
4040
8040
9F40
A140
A140
A140
9F40
8040
4040
4080
ENDCHAR
STARTCHAR 3205
ENCODING 12805
SWIDTH 900 0
DWIDTH 10 0
BBX 10 10 0 -2
BITMAP
4080
4040
8040
A140
9F40
A140
9F40
8040
4040
4080
ENDCHAR
STARTCHAR 3206
ENCODING 12806
SWIDTH 900 0
DWIDTH 10 0
BBX 10 11 0 -2
BITMAP
4080
4040
8440
8440
8C40
8C40
9240
A140
8040
4040
4080
ENDCHAR
STARTCHAR 3207
ENCODING 12807
SWIDTH 900 0
DWIDTH 10 0
BBX 10 10 0 -2
BITMAP
4080
4040
8E40
9140
A140
A140
9140
8E40
4040
4080
ENDCHAR
STARTCHAR 3208
ENCODING 12808
SWIDTH 900 0
DWIDTH 10 0
BBX 10 11 0 -2
BITMAP
4080
4040
8040
BF40
8440
8C40
9240
A140
8040
4040
4080
ENDCHAR
STARTCHAR 3209
ENCODING 12809
SWIDTH 900 0
DWIDTH 10 0
BBX 10 11 0 -2
BITMAP
4080
4040
8E40
8040
BF40
8440
8C40
9A40
A140
4040
4080
ENDCHAR
STARTCHAR 320A
ENCODING 12810
SWIDTH 900 0
DWIDTH 10 0
BBX 10 11 0 -2
BITMAP
4080
4040
8040
9F40
8140
BF40
8140
8140
8040
4040
4080
ENDCHAR
STARTCHAR 320B
ENCODING 12811
SWIDTH 900 0
DWIDTH 10 0
BBX 10 11 0 -2
BITMAP
4080
4040
8040
9F40
A040
9F40
A040
9F40
8040
4040
4080
ENDCHAR
STARTCHAR 320C
ENCODING 12812
SWIDTH 900 0
DWIDTH 10 0
BBX 10 11 0 -2
BITMAP
4080
4040
8040
BF40
9240
9240
9240
BF40
8040
4040
4080
ENDCHAR
STARTCHAR 320D
ENCODING 12813
SWIDTH 900 0
DWIDTH 10 0
BBX 10 11 0 -2
BITMAP
4080
4040
8E40
8040
BF40
8040
9E40
9140
9E40
4040
4080
ENDCHAR
STARTCHAR 320E
ENCODING 12814
SWIDTH 900 0
DWIDTH 10 0
BBX 10 11 0 -2
BITMAP
4080
4140
BD40
8540
8540
89C0
8940
9140
A140
4140
4080
ENDCHAR
STARTCHAR 320F
ENCODING 12815
SWIDTH 900 0
DWIDTH 10 0
BBX 10 11 0 -2
BITMAP
4080
4140
8140
A140
A140
A1C0
A140
BF40
8140
4140
4080
ENDCHAR
STARTCHAR 3210
ENCODING 12816
SWIDTH 900 0
DWIDTH 10 0
BBX 10 11 0 -2
BITMAP
4080
4140
BD40
A140
A140
A1C0
A140
BD40
8140
4140
4080
ENDCHAR
STARTCHAR 3211
ENCODING 12817
SWIDTH 900 0
DWIDTH 10 0
BBX 10 11 0 -2
BITMAP
4080
4140
BD40
8540
BD40
A1C0
A140
BF40
8140
4140
4080
ENDCHAR
STARTCHAR 3212
ENCODING 12818
SWIDTH 900 0
DWIDTH 10 0
BBX 10 11 0 -2
BITMAP
4080
4140
BD40
A540
A540
A5C0
A540
BD40
8140
4140
4080
ENDCHAR
STARTCHAR 3213
ENCODING 12819
SWIDTH 900 0
DWIDTH 10 0
BBX 10 11 0 -2
BITMAP
4080
4140
8140
A540
A540
BDC0
A540
BD40
8140
4140
4080
ENDCHAR
STARTCHAR 3214
ENCODING 12820
SWIDTH 900 0
DWIDTH 10 0
BBX 10 11 0 -2
BITMAP
4080
4140
9140
9140
9140
99C0
A940
E540
8140
4140
4080
ENDCHAR
STARTCHAR 3215
ENCODING 12821
SWIDTH 900 0
DWIDTH 10 0
BBX 10 11 0 -2
BITMAP
4080
4140
9940
A540
A540
A5C0
A540
9940
8140
4140
4080
ENDCHAR
STARTCHAR 3216
ENCODING 12822
SWIDTH 900 0
DWIDTH 10 0
BBX 10 11 0 -2
BITMAP
4080
4140
BD40
8940
8940
99C0
9540
A540
8140
4140
4080
ENDCHAR
STARTCHAR 3217
ENCODING 12823
SWIDTH 900 0
DWIDTH 10 0
BBX 10 11 0 -2
BITMAP
4080
4140
9940
8140
BD40
89C0
9540
A340
8140
4140
4080
ENDCHAR
STARTCHAR 3218
ENCODING 12824
SWIDTH 900 0
DWIDTH 10 0
BBX 10 11 0 -2
BITMAP
4080
4140
BD40
8540
BD40
89C0
8940
9140
A140
4140
4080
ENDCHAR
STARTCHAR 3219
ENCODING 12825
SWIDTH 900 0
DWIDTH 10 0
BBX 10 11 0 -2
BITMAP
4080
4140
BD40
A140
BD40
A1C0
A140
BF40
8140
4140
4080
ENDCHAR
STARTCHAR 321A
ENCODING 12826
SWIDTH 900 0
DWIDTH 10 0
BBX 10 11 0 -2
BITMAP
4080
4140
BD40
8140
9540
95C0
9540
BF40
8140
4140
4080
ENDCHAR
STARTCHAR 321B
ENCODING 12827
SWIDTH 900 0
DWIDTH 10 0
BBX 10 11 0 -2
BITMAP
4080
4140
9940
8140
BD40
81C0
9940
A540
9940
4140
4080
ENDCHAR
STARTCHAR 321C
ENCODING 12828
SWIDTH 900 0
DWIDTH 10 0
BBX 10 10 0 -2
BITMAP
4080
7F40
8440
9A40
A140
FFC0
8440
8440
4440
4080
ENDCHAR
STARTCHAR 3231
ENCODING 12849
SWIDTH 900 0
DWIDTH 10 0
BBX 10 10 0 -2
BITMAP
5280
5640
7F40
9A40
BFC0
BA40
9740
9AC0
5240
4080
ENDCHAR
STARTCHAR 3239
ENCODING 12857
SWIDTH 900 0
DWIDTH 10 0
BBX 10 10 0 -2
BITMAP
4080
5640
9440
AF40
E440
A440
A240
A2C0
4140
4080
ENDCHAR
STARTCHAR 3251
ENCODING 12881
SWIDTH 900 0
DWIDTH 10 0
BBX 10 10 0 -2
BITMAP
3F00
5880
6540
A540
8940
9140
A140
7D80
2100
1E00
ENDCHAR
STARTCHAR 3252
ENCODING 12882
SWIDTH 900 0
DWIDTH 10 0
BBX 10 10 0 -2
BITMAP
3F00
5380
6CC0
A4C0
8940
9240
A440
7F80
2100
1E00
ENDCHAR
STARTCHAR 3253
ENCODING 12883
SWIDTH 900 0
DWIDTH 10 0
BBX 10 10 0 -2
BITMAP
3F00
5380
6CC0
A8C0
8940
90C0
A4C0
7B80
2100
1E00
ENDCHAR
STARTCHAR 3254
ENCODING 12884
SWIDTH 900 0
DWIDTH 10 0
BBX 10 10 0 -2
BITMAP
3F00
5080
6940
A740
8B40
9740
A140
7880
2100
1E00
ENDCHAR
STARTCHAR 3255
ENCODING 12885
SWIDTH 900 0
DWIDTH 10 0
BBX 10 10 0 -2
BITMAP
3F00
5280
6840
AF40
8CC0
90C0
A4C0
7B80
2100
1E00
ENDCHAR
STARTCHAR 3256
ENCODING 12886
SWIDTH 900 0
DWIDTH 10 0
BBX 10 10 0 -2
BITMAP
3F00
5180
6AC0
A540
8EC0
94C0
A4C0
7B80
2100
1E00
ENDCHAR
STARTCHAR 3257
ENCODING 12887
SWIDTH 900 0
DWIDTH 10 0
BBX 10 10 0 -2
BITMAP
3F00
5080
6BC0
A940
8A40
9240
A240
7A80
2100
1E00
ENDCHAR
STARTCHAR 3258
ENCODING 12888
SWIDTH 900 0
DWIDTH 10 0
BBX 10 10 0 -2
BITMAP
3F00
5380
6CC0
ACC0
8B40
94C0
A4C0
7B80
2100
1E00
ENDCHAR
STARTCHAR 3259
ENCODING 12889
SWIDTH 900 0
DWIDTH 10 0
BBX 10 10 0 -2
BITMAP
3F00
5380
6CC0
A4C0
8CC0
93C0
A0C0
7B80
2100
1E00
ENDCHAR
STARTCHAR 325A
ENCODING 12890
SWIDTH 900 0
DWIDTH 10 0
BBX 10 10 0 -2
BITMAP
3F00
5180
6AC0
8CC0
9CC0
84C0
ACC0
5380
2100
1E00
ENDCHAR
STARTCHAR 3260
ENCODING 12896
SWIDTH 900 0
DWIDTH 10 0
BBX 10 10 0 -2
BITMAP
3F00
4080
4040
BE40
8140
8140
8140
4140
4080
3F00
ENDCHAR
STARTCHAR 3261
ENCODING 12897
SWIDTH 900 0
DWIDTH 10 0
BBX 10 10 0 -2
BITMAP
3F00
4080
4040
9040
9040
9040
9F40
4040
4080
3F00
ENDCHAR
STARTCHAR 3262
ENCODING 12898
SWIDTH 900 0
DWIDTH 10 0
BBX 10 10 0 -2
BITMAP
3F00
4080
4040
9F40
A040
A040
9F40
4040
4080
3F00
ENDCHAR
STARTCHAR 3263
ENCODING 12899
SWIDTH 900 0
DWIDTH 10 0
BBX 10 10 0 -2
BITMAP
3F00
4080
5F40
8140
9F40
A040
9F40
4040
4080
3F00
ENDCHAR
STARTCHAR 3264
ENCODING 12900
SWIDTH 900 0
DWIDTH 10 0
BBX 10 10 0 -2
BITMAP
3F00
4080
4040
9F40
9140
9140
9F40
4040
4080
3F00
ENDCHAR
STARTCHAR 3265
ENCODING 12901
SWIDTH 900 0
DWIDTH 10 0
BBX 10 10 0 -2
BITMAP
3F00
4080
4040
9140
9F40
9140
9F40
4040
4080
3F00
ENDCHAR
STARTCHAR 3266
ENCODING 12902
SWIDTH 900 0
DWIDTH 10 0
BBX 10 10 0 -2
BITMAP
3F00
4080
4440
8440
8C40
9240
A140
4040
4080
3F00
ENDCHAR
STARTCHAR 3267
ENCODING 12903
SWIDTH 900 0
DWIDTH 10 0
BBX 10 10 0 -2
BITMAP
3F00
4080
9E40
9140
A140
9140
9E40
4040
4080
3F00
ENDCHAR
STARTCHAR 3268
ENCODING 12904
SWIDTH 900 0
DWIDTH 10 0
BBX 10 10 0 -2
BITMAP
3F00
4080
4040
BF40
8440
8A40
B140
4040
4080
3F00
ENDCHAR
STARTCHAR 3269
ENCODING 12905
SWIDTH 900 0
DWIDTH 10 0
BBX 10 10 0 -2
BITMAP
3F00
4080
4C40
8040
BF40
8440
8A40
7140
4080
3F00
ENDCHAR
STARTCHAR 326A
ENCODING 12906
SWIDTH 900 0
DWIDTH 10 0
BBX 10 10 0 -2
BITMAP
3F00
4080
4040
9F40
8140
BF40
8140
4140
4080
3F00
ENDCHAR
STARTCHAR 326B
ENCODING 12907
SWIDTH 900 0
DWIDTH 10 0
BBX 10 10 0 -2
BITMAP
3F00
4080
4040
9F40
A040
9F40
A040
5F40
4080
3F00
ENDCHAR
STARTCHAR 326C
ENCODING 12908
SWIDTH 900 0
DWIDTH 10 0
BBX 10 10 0 -2
BITMAP
3F00
4080
4040
BF40
9240
9240
BF40
4040
4080
3F00
ENDCHAR
STARTCHAR 326D
ENCODING 12909
SWIDTH 900 0
DWIDTH 10 0
BBX 10 11 0 -2
BITMAP
3F00
4080
4E40
8040
BF40
8040
9E40
9140
5E80
2080
1F00
ENDCHAR
STARTCHAR 326E
ENCODING 12910
SWIDTH 900 0
DWIDTH 10 0
BBX 10 10 0 -2
BITMAP
3F00
4180
5D40
8540
8940
9140
A140
4140
4080
3F00
ENDCHAR
STARTCHAR 326F
ENCODING 12911
SWIDTH 900 0
DWIDTH 10 0
BBX 10 10 0 -2
BITMAP
3F00
4180
4140
A140
A140
A140
BD40
4140
4180
3F00
ENDCHAR
STARTCHAR 3270
ENCODING 12912
SWIDTH 900 0
DWIDTH 10 0
BBX 10 10 0 -2
BITMAP
3F00
4180
7940
A140
A140
A140
BD40
4140
4180
3F00
ENDCHAR
STARTCHAR 3271
ENCODING 12913
SWIDTH 900 0
DWIDTH 10 0
BBX 10 10 0 -2
BITMAP
3F00
4180
5D40
8540
B940
A140
BD40
4140
4180
3F00
ENDCHAR
STARTCHAR 3272
ENCODING 12914
SWIDTH 900 0
DWIDTH 10 0
BBX 10 10 0 -2
BITMAP
3F00
4180
7D40
A540
A5C0
A540
BD40
4140
4180
3F00
ENDCHAR
STARTCHAR 3273
ENCODING 12915
SWIDTH 900 0
DWIDTH 10 0
BBX 10 10 0 -2
BITMAP
3F00
4180
4140
A540
BDC0
A540
BD40
4140
4180
3F00
ENDCHAR
STARTCHAR 3274
ENCODING 12916
SWIDTH 900 0
DWIDTH 10 0
BBX 10 10 0 -2
BITMAP
3F00
4180
4940
8940
9940
9940
A540
4140
4180
3F00
ENDCHAR
STARTCHAR 3275
ENCODING 12917
SWIDTH 900 0
DWIDTH 10 0
BBX 10 10 0 -2
BITMAP
3F00
4180
7940
A540
A540
A540
B940
4140
4180
3F00
ENDCHAR
STARTCHAR 3276
ENCODING 12918
SWIDTH 900 0
DWIDTH 10 0
BBX 10 10 0 -2
BITMAP
3F00
4180
5940
8940
9940
9940
A540
4140
4180
3F00
ENDCHAR
STARTCHAR 3277
ENCODING 12919
SWIDTH 900 0
DWIDTH 10 0
BBX 10 10 0 -2
BITMAP
3F00
4180
4140
8140
9940
9940
A540
4140
4180
3F00
ENDCHAR
STARTCHAR 3278
ENCODING 12920
SWIDTH 900 0
DWIDTH 10 0
BBX 10 10 0 -2
BITMAP
3F00
4180
4D40
8540
9D40
8940
9140
6140
4180
3F00
ENDCHAR
STARTCHAR 3279
ENCODING 12921
SWIDTH 900 0
DWIDTH 10 0
BBX 10 10 0 -2
BITMAP
3F00
4180
7940
A140
B940
A140
BD40
4140
4180
3F00
ENDCHAR
STARTCHAR 327A
ENCODING 12922
SWIDTH 900 0
DWIDTH 10 0
BBX 10 10 0 -2
BITMAP
3F00
4180
5940
8140
9540
9940
BD40
4140
4180
3F00
ENDCHAR
STARTCHAR 327B
ENCODING 12923
SWIDTH 900 0
DWIDTH 10 0
BBX 10 10 0 -2
BITMAP
3F00
4180
4140
8140
BD40
A540
A540
5940
4180
3F00
ENDCHAR
STARTCHAR 327F
ENCODING 12927
SWIDTH 900 0
DWIDTH 10 0
BBX 9 10 1 -1
BITMAP
3C00
4300
A500
A800
D380
2880
AC80
A500
4200
3C00
ENDCHAR
STARTCHAR 328A
ENCODING 12938
SWIDTH 900 0
DWIDTH 10 0
BBX 10 9 0 -1
BITMAP
1F00
7E80
5140
9D40
9140
9940
5140
6080
3F00
ENDCHAR
STARTCHAR 328B
ENCODING 12939
SWIDTH 900 0
DWIDTH 10 0
BBX 10 9 0 -1
BITMAP
1F00
6080
4440
9540
A440
8C40
5240
6180
3F00
ENDCHAR
STARTCHAR 328C
ENCODING 12940
SWIDTH 900 0
DWIDTH 10 0
BBX 10 9 0 -1
BITMAP
1F00
6480
4540
9E40
8C40
9640
6540
4C80
3F00
ENDCHAR
STARTCHAR 328D
ENCODING 12941
SWIDTH 900 0
DWIDTH 10 0
BBX 10 9 0 -1
BITMAP
1F00
6080
4440
9E40
8C40
9640
6540
4480
3F00
ENDCHAR
STARTCHAR 328E
ENCODING 12942
SWIDTH 900 0
DWIDTH 10 0
BBX 10 9 0 -1
BITMAP
1F00
6480
4A40
9140
A440
8C40
5640
7F80
3F00
ENDCHAR
STARTCHAR 328F
ENCODING 12943
SWIDTH 900 0
DWIDTH 10 0
BBX 10 9 0 -1
BITMAP
1F00
6080
4440
9E40
8440
8440
4440
7F80
3F00
ENDCHAR
STARTCHAR 3290
ENCODING 12944
SWIDTH 900 0
DWIDTH 10 0
BBX 10 9 0 -1
BITMAP
1F00
6E80
5140
9140
9E40
9140
5140
4E80
3F00
ENDCHAR
STARTCHAR 3294
ENCODING 12948
SWIDTH 900 0
DWIDTH 10 0
BBX 10 9 0 -1
BITMAP
3F00
4880
5E40
B440
9840
BF40
9140
5F80
3F00
ENDCHAR
STARTCHAR 329E
ENCODING 12958
SWIDTH 900 0
DWIDTH 10 0
BBX 10 10 0 -2
BITMAP
3F00
4A80
7540
A540
BD40
A540
BD40
6480
2100
1E00
ENDCHAR
STARTCHAR 32A5
ENCODING 12965
SWIDTH 900 0
DWIDTH 10 0
BBX 10 9 0 -1
BITMAP
3F00
4480
4440
BF40
A540
BF40
8440
4480
3F00
ENDCHAR
STARTCHAR 3380
ENCODING 13184
SWIDTH 900 0
DWIDTH 10 0
BBX 9 9 1 -2
BITMAP
0600
4600
A600
9900
9F00
9900
9080
E000
8000
ENDCHAR
STARTCHAR 3381
ENCODING 13185
SWIDTH 900 0
DWIDTH 10 0
BBX 9 7 1 0
BITMAP
0200
4600
A500
A500
9F00
9900
9080
ENDCHAR
STARTCHAR 3382
ENCODING 13186
SWIDTH 900 0
DWIDTH 10 0
BBX 10 9 0 -2
BITMAP
0100
0300
2A80
2A80
2B80
5440
5C40
6000
8000
ENDCHAR
STARTCHAR 3383
ENCODING 13187
SWIDTH 900 0
DWIDTH 10 0
BBX 10 7 0 0
BITMAP
0100
5300
AA80
AA80
AB80
AC40
AC40
ENDCHAR
STARTCHAR 3384
ENCODING 13188
SWIDTH 900 0
DWIDTH 10 0
BBX 9 7 1 0
BITMAP
8200
8600
A500
C900
CF00
A900
B880
ENDCHAR
STARTCHAR 3388
ENCODING 13192
SWIDTH 900 0
DWIDTH 10 0
BBX 8 7 1 0
BITMAP
45
AB
83
87
8B
AA
44
ENDCHAR
STARTCHAR 3389
ENCODING 13193
SWIDTH 900 0
DWIDTH 10 0
BBX 9 8 1 -1
BITMAP
0080
9280
ED80
A580
A380
E580
2D80
1200
ENDCHAR
STARTCHAR 338A
ENCODING 13194
SWIDTH 900 0
DWIDTH 10 0
BBX 8 9 1 -2
BITMAP
0F
48
B8
9F
98
98
98
E0
80
ENDCHAR
STARTCHAR 338B
ENCODING 13195
SWIDTH 900 0
DWIDTH 10 0
BBX 8 7 1 0
BITMAP
0F
68
98
9F
98
98
98
ENDCHAR
STARTCHAR 338C
ENCODING 13196
SWIDTH 900 0
DWIDTH 10 0
BBX 8 8 1 -2
BITMAP
0F
08
58
57
58
A8
A8
D0
ENDCHAR
STARTCHAR 338D
ENCODING 13197
SWIDTH 900 0
DWIDTH 10 0
BBX 9 7 1 -2
BITMAP
4F80
5880
5880
9480
A780
D080
0700
ENDCHAR
STARTCHAR 338E
ENCODING 13198
SWIDTH 900 0
DWIDTH 10 0
BBX 9 7 1 -2
BITMAP
F780
D880
D880
D880
D780
0080
0700
ENDCHAR
STARTCHAR 338F
ENCODING 13199
SWIDTH 900 0
DWIDTH 10 0
BBX 8 9 1 -2
BITMAP
80
82
A5
C9
A9
A9
97
09
07
ENDCHAR
STARTCHAR 3390
ENCODING 13200
SWIDTH 900 0
DWIDTH 10 0
BBX 8 7 1 0
BITMAP
90
90
97
F1
92
94
97
ENDCHAR
STARTCHAR 3391
ENCODING 13201
SWIDTH 900 0
DWIDTH 10 0
BBX 10 7 0 0
BITMAP
9200
9200
B2C0
CE80
D280
B300
B380
ENDCHAR
STARTCHAR 3392
ENCODING 13202
SWIDTH 900 0
DWIDTH 10 0
BBX 9 7 1 0
BITMAP
3400
B400
B580
BD00
7500
7500
7700
ENDCHAR
STARTCHAR 3393
ENCODING 13203
SWIDTH 900 0
DWIDTH 10 0
BBX 9 9 1 -1
BITMAP
4000
B000
B400
9580
7C80
9500
B500
B200
4100
ENDCHAR
STARTCHAR 3394
ENCODING 13204
SWIDTH 900 0
DWIDTH 10 0
BBX 9 7 1 0
BITMAP
D400
5400
5580
5D00
5500
5500
5700
ENDCHAR
STARTCHAR 3395
ENCODING 13205
SWIDTH 900 0
DWIDTH 10 0
BBX 9 9 1 -2
BITMAP
0100
0280
0280
2A80
4B00
5300
5200
9500
F200
ENDCHAR
STARTCHAR 3396
ENCODING 13206
SWIDTH 900 0
DWIDTH 10 0
BBX 9 9 1 -1
BITMAP
0100
0280
5280
AA80
AB00
AB00
AA00
AD00
0200
ENDCHAR
STARTCHAR 3397
ENCODING 13207
SWIDTH 900 0
DWIDTH 10 0
BBX 8 9 1 -1
BITMAP
01
0B
2B
DB
8D
8D
8A
9D
62
ENDCHAR
STARTCHAR 3398
ENCODING 13208
SWIDTH 900 0
DWIDTH 10 0
BBX 8 8 1 0
BITMAP
83
85
95
A5
E6
A4
9D
02
ENDCHAR
STARTCHAR 3399
ENCODING 13209
SWIDTH 900 0
DWIDTH 10 0
BBX 7 7 2 0
BITMAP
80
90
AE
AA
AA
AA
AA
ENDCHAR
STARTCHAR 339A
ENCODING 13210
SWIDTH 900 0
DWIDTH 10 0
BBX 9 5 1 0
BITMAP
EF80
AA80
AA80
AA80
AA80
ENDCHAR
STARTCHAR 339B
ENCODING 13211
SWIDTH 900 0
DWIDTH 10 0
BBX 9 6 1 -2
BITMAP
5F80
5A80
5A80
AA80
AA80
D000
ENDCHAR
STARTCHAR 339C
ENCODING 13212
SWIDTH 900 0
DWIDTH 10 0
BBX 9 5 1 0
BITMAP
FF80
DA80
DA80
DA80
DA80
ENDCHAR
STARTCHAR 339D
ENCODING 13213
SWIDTH 900 0
DWIDTH 10 0
BBX 9 6 1 -1
BITMAP
FF80
9A80
8A80
8A80
9A80
6000
ENDCHAR
STARTCHAR 339E
ENCODING 13214
SWIDTH 900 0
DWIDTH 10 0
BBX 9 7 1 0
BITMAP
8000
8500
AA80
CA80
CA80
AA80
AA80
ENDCHAR
STARTCHAR 339F
ENCODING 13215
SWIDTH 900 0
DWIDTH 10 0
BBX 9 8 1 0
BITMAP
0180
0100
0500
FA80
DA80
DA80
DA80
DA80
ENDCHAR
STARTCHAR 33A0
ENCODING 13216
SWIDTH 900 0
DWIDTH 10 0
BBX 9 9 1 -1
BITMAP
0180
0100
4500
BA80
9A80
8A80
8A80
9A80
6000
ENDCHAR
STARTCHAR 33A1
ENCODING 13217
SWIDTH 900 0
DWIDTH 10 0
BBX 7 8 2 0
BITMAP
06
04
48
B4
A4
A4
A4
A4
ENDCHAR
STARTCHAR 33A2
ENCODING 13218
SWIDTH 900 0
DWIDTH 10 0
BBX 9 8 1 0
BITMAP
0180
8100
8500
AA80
CA80
CA80
AA80
AA80
ENDCHAR
STARTCHAR 33A3
ENCODING 13219
SWIDTH 900 0
DWIDTH 10 0
BBX 9 8 1 0
BITMAP
0180
0080
2500
DA80
DA80
DA80
DA80
DA80
ENDCHAR
STARTCHAR 33A4
ENCODING 13220
SWIDTH 900 0
DWIDTH 10 0
BBX 9 9 1 -1
BITMAP
0180
0080
4500
BA80
9A80
8A80
8A80
9A80
6000
ENDCHAR
STARTCHAR 33A5
ENCODING 13221
SWIDTH 900 0
DWIDTH 10 0
BBX 7 8 2 0
BITMAP
06
06
48
B4
24
24
24
24
ENDCHAR
STARTCHAR 33A6
ENCODING 13222
SWIDTH 900 0
DWIDTH 10 0
BBX 9 8 1 0
BITMAP
0080
8080
8500
AA80
CA80
CA80
AA80
AA80
ENDCHAR
STARTCHAR 33A7
ENCODING 13223
SWIDTH 900 0
DWIDTH 10 0
BBX 9 9 1 -1
BITMAP
2000
D200
D200
D400
0700
0C80
1300
1480
0300
ENDCHAR
STARTCHAR 33A8
ENCODING 13224
SWIDTH 900 0
DWIDTH 10 0
BBX 9 9 1 -1
BITMAP
2000
D200
D580
D500
5B00
1400
1300
2480
0300
ENDCHAR
STARTCHAR 33A9
ENCODING 13225
SWIDTH 900 0
DWIDTH 10 0
BBX 8 8 1 -1
BITMAP
F0
96
99
F9
87
89
89
06
ENDCHAR
STARTCHAR 33AA
ENCODING 13226
SWIDTH 900 0
DWIDTH 10 0
BBX 9 8 1 -1
BITMAP
1C00
9400
D700
9880
9300
D480
2500
0200
ENDCHAR
STARTCHAR 33AB
ENCODING 13227
SWIDTH 900 0
DWIDTH 10 0
BBX 9 8 1 -1
BITMAP
3C00
B500
B280
DE80
D180
5280
5280
0100
ENDCHAR
STARTCHAR 33AC
ENCODING 13228
SWIDTH 900 0
DWIDTH 10 0
BBX 9 9 1 -1
BITMAP
4800
B400
B500
9280
7C80
9180
B280
B280
4100
ENDCHAR
STARTCHAR 33AD
ENCODING 13229
SWIDTH 900 0
DWIDTH 10 0
BBX 9 8 1 -1
BITMAP
0080
1280
AD80
8C80
BC80
CC80
CC80
3300
ENDCHAR
STARTCHAR 33AE
ENCODING 13230
SWIDTH 900 0
DWIDTH 10 0
BBX 9 8 1 0
BITMAP
0100
BA00
EA00
7D00
0680
0900
0A80
1100
ENDCHAR
STARTCHAR 33AF
ENCODING 13231
SWIDTH 900 0
DWIDTH 10 0
BBX 10 8 0 0
BITMAP
0880
9540
F540
BB00
0200
0580
0840
0880
ENDCHAR
STARTCHAR 33B0
ENCODING 13232
SWIDTH 900 0
DWIDTH 10 0
BBX 8 7 1 -2
BITMAP
F7
94
92
91
95
E2
80
ENDCHAR
STARTCHAR 33B1
ENCODING 13233
SWIDTH 900 0
DWIDTH 10 0
BBX 8 6 1 -1
BITMAP
F7
98
96
91
99
06
ENDCHAR
STARTCHAR 33B2
ENCODING 13234
SWIDTH 900 0
DWIDTH 10 0
BBX 9 6 1 -2
BITMAP
2F00
5400
5300
5080
A480
D300
ENDCHAR
STARTCHAR 33B3
ENCODING 13235
SWIDTH 900 0
DWIDTH 10 0
BBX 9 6 1 -1
BITMAP
FF00
AC00
AB00
A880
AC80
0300
ENDCHAR
STARTCHAR 33B4
ENCODING 13236
SWIDTH 900 0
DWIDTH 10 0
BBX 8 9 1 -2
BITMAP
09
69
99
99
96
96
96
E0
80
ENDCHAR
STARTCHAR 33B5
ENCODING 13237
SWIDTH 900 0
DWIDTH 10 0
BBX 8 7 1 0
BITMAP
09
69
99
99
96
96
96
ENDCHAR
STARTCHAR 33B6
ENCODING 13238
SWIDTH 900 0
DWIDTH 10 0
BBX 9 8 1 -2
BITMAP
0880
0900
4900
5500
5500
9600
A200
D000
ENDCHAR
STARTCHAR 33B7
ENCODING 13239
SWIDTH 900 0
DWIDTH 10 0
BBX 9 7 1 0
BITMAP
0880
0900
F900
D500
D500
D600
D200
ENDCHAR
STARTCHAR 33B8
ENCODING 13240
SWIDTH 900 0
DWIDTH 10 0
BBX 8 7 1 0
BITMAP
89
89
A9
C9
C6
A6
96
ENDCHAR
STARTCHAR 33B9
ENCODING 13241
SWIDTH 900 0
DWIDTH 10 0
BBX 9 7 1 0
BITMAP
9880
9480
9500
B500
B500
F200
D200
ENDCHAR
STARTCHAR 33BA
ENCODING 13242
SWIDTH 900 0
DWIDTH 10 0
BBX 9 9 1 -2
BITMAP
1280
4A80
AE80
9F00
9F00
9D00
A900
C000
8000
ENDCHAR
STARTCHAR 33BB
ENCODING 13243
SWIDTH 900 0
DWIDTH 10 0
BBX 9 7 1 0
BITMAP
1680
5680
B680
AF00
AB00
A900
A900
ENDCHAR
STARTCHAR 33BC
ENCODING 13244
SWIDTH 900 0
DWIDTH 10 0
BBX 10 9 0 -2
BITMAP
0540
0540
2F40
2F40
2E80
5680
5280
6000
8000
ENDCHAR
STARTCHAR 33BD
ENCODING 13245
SWIDTH 900 0
DWIDTH 10 0
BBX 9 7 1 0
BITMAP
0A80
2A80
DE80
DF00
DF00
DD00
D900
ENDCHAR
STARTCHAR 33BE
ENCODING 13246
SWIDTH 900 0
DWIDTH 10 0
BBX 9 7 1 0
BITMAP
9280
8E80
AE80
CF00
CF00
A900
A900
ENDCHAR
STARTCHAR 33BF
ENCODING 13247
SWIDTH 900 0
DWIDTH 10 0
BBX 9 7 1 0
BITMAP
9A80
9A80
BE80
BF00
B500
D500
D500
ENDCHAR
STARTCHAR 33C0
ENCODING 13248
SWIDTH 900 0
DWIDTH 10 0
BBX 9 8 1 0
BITMAP
0600
8900
8880
B080
C880
C900
A600
AF00
ENDCHAR
STARTCHAR 33C1
ENCODING 13249
SWIDTH 900 0
DWIDTH 10 0
BBX 9 8 1 0
BITMAP
0600
9900
B080
B080
B080
B900
D600
DF80
ENDCHAR
STARTCHAR 33C2
ENCODING 13250
SWIDTH 900 0
DWIDTH 10 0
BBX 8 6 1 -1
BITMAP
DF
55
D5
D5
D0
80
ENDCHAR
STARTCHAR 33C3
ENCODING 13251
SWIDTH 900 0
DWIDTH 10 0
BBX 8 9 1 -2
BITMAP
F0
92
95
E9
99
99
99
67
01
ENDCHAR
STARTCHAR 33C4
ENCODING 13252
SWIDTH 900 0
DWIDTH 10 0
BBX 8 6 1 -1
BITMAP
F7
98
88
88
95
62
ENDCHAR
STARTCHAR 33C5
ENCODING 13253
SWIDTH 900 0
DWIDTH 10 0
BBX 9 8 1 -1
BITMAP
0080
4280
B580
9880
8880
8880
9980
6600
ENDCHAR
STARTCHAR 33C6
ENCODING 13254
SWIDTH 900 0
DWIDTH 10 0
BBX 9 9 1 -1
BITMAP
1000
9000
9000
9000
6000
3780
2A80
4680
4380
ENDCHAR
STARTCHAR 33C7
ENCODING 13255
SWIDTH 900 0
DWIDTH 10 0
BBX 9 9 1 -1
BITMAP
6000
9000
9200
8500
8900
8900
9900
9980
6600
ENDCHAR
STARTCHAR 33C8
ENCODING 13256
SWIDTH 900 0
DWIDTH 10 0
BBX 9 8 1 -1
BITMAP
1F00
5880
B900
9F00
9880
9880
9900
6600
ENDCHAR
STARTCHAR 33C9
ENCODING 13257
SWIDTH 900 0
DWIDTH 10 0
BBX 9 10 1 -2
BITMAP
6000
9000
8800
8480
BD00
8D00
8B00
9A00
6200
0200
ENDCHAR
STARTCHAR 33CA
ENCODING 13258
SWIDTH 900 0
DWIDTH 10 0
BBX 8 8 1 -1
BITMAP
80
E2
9D
99
97
99
99
06
ENDCHAR
STARTCHAR 33CB
ENCODING 13259
SWIDTH 900 0
DWIDTH 10 0
BBX 7 7 2 0
BITMAP
1E
12
12
FC
10
10
10
ENDCHAR
STARTCHAR 33CF
ENCODING 13263
SWIDTH 900 0
DWIDTH 10 0
BBX 7 8 2 -1
BITMAP
84
84
A4
C4
C4
A4
A4
02
ENDCHAR
STARTCHAR 33D0
ENCODING 13264
SWIDTH 900 0
DWIDTH 10 0
BBX 8 7 1 0
BITMAP
80
92
AD
A5
A5
A5
A5
ENDCHAR
STARTCHAR 33D3
ENCODING 13267
SWIDTH 900 0
DWIDTH 10 0
BBX 6 7 2 0
BITMAP
80
80
A4
98
90
98
A4
ENDCHAR
STARTCHAR 33D6
ENCODING 13270
SWIDTH 900 0
DWIDTH 10 0
BBX 9 8 1 -1
BITMAP
0080
0280
F580
C980
C980
C980
0980
0600
ENDCHAR
STARTCHAR 33D8
ENCODING 13272
SWIDTH 900 0
DWIDTH 10 0
BBX 8 6 1 -2
BITMAP
DF
B5
B5
B5
D5
80
ENDCHAR
STARTCHAR 33DB
ENCODING 13275
SWIDTH 900 0
DWIDTH 10 0
BBX 6 6 2 -1
BITMAP
EC
88
68
18
98
60
ENDCHAR
STARTCHAR 33DC
ENCODING 13276
SWIDTH 900 0
DWIDTH 10 0
BBX 9 9 1 -1
BITMAP
6000
9000
8000
8480
7500
0D00
8D00
9200
6000
ENDCHAR
STARTCHAR 33DD
ENCODING 13277
SWIDTH 900 0
DWIDTH 10 0
BBX 9 8 1 -1
BITMAP
A800
FA00
F500
F480
F880
9480
9480
0300
ENDCHAR
STARTCHAR 4E00
ENCODING 19968
SWIDTH 900 0
DWIDTH 10 0
BBX 9 1 1 3
BITMAP
FF80
ENDCHAR
STARTCHAR 4E01
ENCODING 19969
SWIDTH 900 0
DWIDTH 10 0
BBX 8 9 1 -1
BITMAP
FF
08
08
08
08
08
08
08
38
ENDCHAR
STARTCHAR 4E03
ENCODING 19971
SWIDTH 900 0
DWIDTH 10 0
BBX 8 9 1 -1
BITMAP
20
20
23
7C
A0
20
21
21
3F
ENDCHAR
STARTCHAR 4E07
ENCODING 19975
SWIDTH 900 0
DWIDTH 10 0
BBX 8 9 1 -1
BITMAP
FF
20
20
3F
21
21
41
CA
86
ENDCHAR
STARTCHAR 4E08
ENCODING 19976
SWIDTH 900 0
DWIDTH 10 0
BBX 8 9 1 -1
BITMAP
08
08
FF
28
68
78
18
66
C3
ENDCHAR
STARTCHAR 4E09
ENCODING 19977
SWIDTH 900 0
DWIDTH 10 0
BBX 9 8 1 0
BITMAP
7F00
0000
0000
7E00
0000
0000
0000
FF80
ENDCHAR
STARTCHAR 4E0A
ENCODING 19978
SWIDTH 900 0
DWIDTH 10 0
BBX 9 9 1 -1
BITMAP
1000
1000
1000
0F00
1000
1000
1000
1000
FF80
ENDCHAR
STARTCHAR 4E0B
ENCODING 19979
SWIDTH 900 0
DWIDTH 10 0
BBX 8 9 1 -1
BITMAP
FF
10
08
14
12
10
10
10
10
ENDCHAR
STARTCHAR 4E0D
ENCODING 19981
SWIDTH 900 0
DWIDTH 10 0
BBX 8 9 1 -1
BITMAP
FF
08
18
2C
4B
89
08
08
08
ENDCHAR
STARTCHAR 4E11
ENCODING 19985
SWIDTH 900 0
DWIDTH 10 0
BBX 9 9 1 -1
BITMAP
7E00
1200
1200
2200
FF80
2200
2200
2200
FF00
ENDCHAR
STARTCHAR 4E14
ENCODING 19988
SWIDTH 900 0
DWIDTH 10 0
BBX 9 9 1 -1
BITMAP
7E00
4200
4200
7E00
4200
4200
7E00
4200
FF80
ENDCHAR
STARTCHAR 4E15
ENCODING 19989
SWIDTH 900 0
DWIDTH 10 0
BBX 9 9 1 -1
BITMAP
FF00
0800
1400
2A00
4900
8880
0800
0800
FF80
ENDCHAR
STARTCHAR 4E16
ENCODING 19990
SWIDTH 900 0
DWIDTH 10 0
BBX 9 9 1 -1
BITMAP
5200
5200
FF80
5200
5200
5200
4E00
7F00
4000
ENDCHAR
STARTCHAR 4E18
ENCODING 19992
SWIDTH 900 0
DWIDTH 10 0
BBX 8 9 1 -1
BITMAP
06
78
40
40
7F
44
44
44
FF
ENDCHAR
STARTCHAR 4E19
ENCODING 19993
SWIDTH 900 0
DWIDTH 10 0
BBX 8 9 1 -1
BITMAP
FF
08
FF
99
99
A5
C3
81
83
ENDCHAR
STARTCHAR 4E1E
ENCODING 19998
SWIDTH 900 0
DWIDTH 10 0
BBX 8 9 1 -1
BITMAP
7E
04
09
EE
2A
4B
89
18
FF
ENDCHAR
STARTCHAR 4E2D
ENCODING 20013
SWIDTH 900 0
DWIDTH 10 0
BBX 8 10 1 -1
BITMAP
08
08
FF
89
89
89
FF
08
08
08
ENDCHAR
STARTCHAR 4E32
ENCODING 20018
SWIDTH 900 0
DWIDTH 10 0
BBX 8 10 1 -1
BITMAP
08
7F
49
7F
08
FF
89
FF
08
08
ENDCHAR
STARTCHAR 4E38
ENCODING 20024
SWIDTH 900 0
DWIDTH 10 0
BBX 9 10 1 -1
BITMAP
1000
1000
FC00
1200
5200
2200
3A00
2200
C280
8300
ENDCHAR
STARTCHAR 4E39
ENCODING 20025
SWIDTH 900 0
DWIDTH 10 0
BBX 9 9 1 -1
BITMAP
7E00
5200
4A00
4A00
FF80
4200
4200
8200
8600
ENDCHAR
STARTCHAR 4E3B
ENCODING 20027
SWIDTH 900 0
DWIDTH 10 0
BBX 8 10 1 -1
BITMAP
10
08
FF
08
08
08
7F
08
08
FF
ENDCHAR
STARTCHAR 4E42
ENCODING 20034
SWIDTH 900 0
DWIDTH 10 0
BBX 8 10 1 -1
BITMAP
20
42
C2
A4
24
18
18
34
63
81
ENDCHAR
STARTCHAR 4E43
ENCODING 20035
SWIDTH 900 0
DWIDTH 10 0
BBX 8 9 1 -1
BITMAP
FC
24
24
27
21
41
41
81
86
ENDCHAR
STARTCHAR 4E45
ENCODING 20037
SWIDTH 900 0
DWIDTH 10 0
BBX 8 9 1 -1
BITMAP
10
3C
44
C4
88
18
34
63
81
ENDCHAR
STARTCHAR 4E4B
ENCODING 20043
SWIDTH 900 0
DWIDTH 10 0
BBX 9 10 1 -1
BITMAP
1000
1000
FE00
0200
0400
0800
7000
E000
C000
BF80
ENDCHAR
STARTCHAR 4E4D
ENCODING 20045
SWIDTH 900 0
DWIDTH 10 0
BBX 8 10 1 -1
BITMAP
20
20
7F
D0
8F
10
0F
10
10
10
ENDCHAR
STARTCHAR 4E4E
ENCODING 20046
SWIDTH 900 0
DWIDTH 10 0
BBX 9 9 1 -1
BITMAP
0700
F900
4A00
2A00
0800
FF80
0800
0800
3800
ENDCHAR
STARTCHAR 4E4F
ENCODING 20047
SWIDTH 900 0
DWIDTH 10 0
BBX 9 9 1 -1
BITMAP
0700
F800
0800
FF00
0200
0C00
7000
A000
9F80
ENDCHAR
STARTCHAR 4E56
ENCODING 20054
SWIDTH 900 0
DWIDTH 10 0
BBX 9 10 1 -1
BITMAP
0600
7C00
FF80
2C00
ED00
2E00
6C80
AF00
2800
0800
ENDCHAR
STARTCHAR 4E58
ENCODING 20056
SWIDTH 900 0
DWIDTH 10 0
BBX 9 9 1 -1
BITMAP
0300
7C00
FF80
ED00
6E80
B700
4A00
8980
0800
ENDCHAR
STARTCHAR 4E59
ENCODING 20057
SWIDTH 900 0
DWIDTH 10 0
BBX 9 9 1 -1
BITMAP
FE00
0400
0800
1000
2000
2000
4080
8100
7F00
ENDCHAR
STARTCHAR 4E5D
ENCODING 20061
SWIDTH 900 0
DWIDTH 10 0
BBX 9 10 1 -1
BITMAP
2000
2000
2000
FC00
2400
2400
2400
4480
C480
8300
ENDCHAR
STARTCHAR 4E5E
ENCODING 20062
SWIDTH 900 0
DWIDTH 10 0
BBX 9 10 1 -1
BITMAP
2000
2000
7F00
C000
FC00
0800
1000
2080
4100
7F00
ENDCHAR
STARTCHAR 4E5F
ENCODING 20063
SWIDTH 900 0
DWIDTH 10 0
BBX 9 10 1 -1
BITMAP
0800
4800
4F00
F900
C900
4900
4900
4E00
4080
7F00
ENDCHAR
STARTCHAR 4E6B
ENCODING 20075
SWIDTH 900 0
DWIDTH 10 0
BBX 9 10 1 -1
BITMAP
4000
F700
5500
5500
B700
0000
FC00
1000
6080
7F00
ENDCHAR
STARTCHAR 4E6D
ENCODING 20077
SWIDTH 900 0
DWIDTH 10 0
BBX 9 9 1 -1
BITMAP
FF00
2000
7E00
BE00
0000
FC00
1000
2080
7F00
ENDCHAR
STARTCHAR 4E73
ENCODING 20083
SWIDTH 900 0
DWIDTH 10 0
BBX 9 9 1 -1
BITMAP
1400
F400
AC00
F400
1400
2C00
F480
2480
6700
ENDCHAR
STARTCHAR 4E76
ENCODING 20086
SWIDTH 900 0
DWIDTH 10 0
BBX 8 10 1 -1
BITMAP
0A
FF
7F
7F
7F
8B
FC
10
61
7F
ENDCHAR
STARTCHAR 4E77
ENCODING 20087
SWIDTH 900 0
DWIDTH 10 0
BBX 9 10 1 -1
BITMAP
4400
5500
D480
4D00
CE00
B000
FC00
1000
6080
7F00
ENDCHAR
STARTCHAR 4E7E
ENCODING 20094
SWIDTH 900 0
DWIDTH 10 0
BBX 9 10 1 -1
BITMAP
4000
F400
4F80
F800
FF00
9200
F200
4400
F880
4F80
ENDCHAR
STARTCHAR 4E82
ENCODING 20098
SWIDTH 900 0
DWIDTH 10 0
BBX 9 9 1 -1
BITMAP
FA00
AA00
7A00
5200
FA00
FA00
FA00
AA80
DB80
ENDCHAR
STARTCHAR 4E86
ENCODING 20102
SWIDTH 900 0
DWIDTH 10 0
BBX 8 9 1 -1
BITMAP
FF
02
04
08
08
08
08
08
30
ENDCHAR
STARTCHAR 4E88
ENCODING 20104
SWIDTH 900 0
DWIDTH 10 0
BBX 8 9 1 -1
BITMAP
7E
04
18
FF
09
0A
08
08
30
ENDCHAR
STARTCHAR 4E8B
ENCODING 20107
SWIDTH 900 0
DWIDTH 10 0
BBX 9 10 1 -1
BITMAP
0800
FF00
7F00
4900
7F00
FF00
FF80
0900
FF00
3800
ENDCHAR
STARTCHAR 4E8C
ENCODING 20108
SWIDTH 900 0
DWIDTH 10 0
BBX 8 7 1 0
BITMAP
7F
00
00
00
00
00
FF
ENDCHAR
STARTCHAR 4E8E
ENCODING 20110
SWIDTH 900 0
DWIDTH 10 0
BBX 9 9 1 -1
BITMAP
FF00
0800
0800
FF80
0800
0800
0800
0800
3000
ENDCHAR
STARTCHAR 4E90
ENCODING 20112
SWIDTH 900 0
DWIDTH 10 0
BBX 9 9 1 -1
BITMAP
FF00
1000
FF80
2000
2000
3F00
2100
0200
0E00
ENDCHAR
STARTCHAR 4E91
ENCODING 20113
SWIDTH 900 0
DWIDTH 10 0
BBX 8 9 1 -1
BITMAP
7E
00
00
FF
10
22
22
4F
F1
ENDCHAR
STARTCHAR 4E92
ENCODING 20114
SWIDTH 900 0
DWIDTH 10 0
BBX 9 9 1 -1
BITMAP
FF00
2000
3E00
2200
4200
7E00
4200
0200
FF80
ENDCHAR
STARTCHAR 4E94
ENCODING 20116
SWIDTH 900 0
DWIDTH 10 0
BBX 9 9 1 -1
BITMAP
FF00
1000
1000
1000
7E00
1200
2200
2200
FF80
ENDCHAR
STARTCHAR 4E95
ENCODING 20117
SWIDTH 900 0
DWIDTH 10 0
BBX 9 10 1 -1
BITMAP
2400
2400
FF00
2400
2400
FF80
2400
4400
4400
8400
ENDCHAR
STARTCHAR 4E98
ENCODING 20120
SWIDTH 900 0
DWIDTH 10 0
BBX 8 9 1 -1
BITMAP
FF
00
7E
42
7E
42
7E
00
FF
ENDCHAR
STARTCHAR 4E9B
ENCODING 20123
SWIDTH 900 0
DWIDTH 10 0
BBX 9 10 1 -1
BITMAP
2400
A500
B600
A400
B480
C700
7F00
0000
0000
FF80
ENDCHAR
STARTCHAR 4E9E
ENCODING 20126
SWIDTH 900 0
DWIDTH 10 0
BBX 9 9 1 -1
BITMAP
FF00
1400
1400
6700
8100
6700
1400
1400
FF80
ENDCHAR
STARTCHAR 4EA1
ENCODING 20129
SWIDTH 900 0
DWIDTH 10 0
BBX 9 9 1 -1
BITMAP
0800
0800
FF80
4000
4000
4000
4000
4000
7F00
ENDCHAR
STARTCHAR 4EA2
ENCODING 20130
SWIDTH 900 0
DWIDTH 10 0
BBX 9 10 1 -1
BITMAP
0800
FF00
0000
3C00
2400
2400
2400
4400
C480
8700
ENDCHAR
STARTCHAR 4EA4
ENCODING 20132
SWIDTH 900 0
DWIDTH 10 0
BBX 8 9 1 -1
BITMAP
08
FF
26
C1
24
14
08
36
C1
ENDCHAR
STARTCHAR 4EA5
ENCODING 20133
SWIDTH 900 0
DWIDTH 10 0
BBX 9 10 1 -1
BITMAP
0800
FF80
1000
6400
2800
1200
6400
CC00
3200
C100
ENDCHAR
STARTCHAR 4EA6
ENCODING 20134
SWIDTH 900 0
DWIDTH 10 0
BBX 8 10 1 -1
BITMAP
08
08
FF
14
56
A5
A5
24
44
98
ENDCHAR
STARTCHAR 4EA8
ENCODING 20136
SWIDTH 900 0
DWIDTH 10 0
BBX 9 10 1 -1
BITMAP
FF80
0000
7E00
4200
7E00
FF00
0400
0800
0800
1800
ENDCHAR
STARTCHAR 4EAB
ENCODING 20139
SWIDTH 900 0
DWIDTH 10 0
BBX 9 10 1 -1
BITMAP
FF80
0000
7E00
7E00
0000
7E00
0800
FF80
0800
1800
ENDCHAR
STARTCHAR 4EAC
ENCODING 20140
SWIDTH 900 0
DWIDTH 10 0
BBX 8 10 1 -1
BITMAP
08
FF
00
7E
42
7E
08
2A
49
B9
ENDCHAR
STARTCHAR 4EAD
ENCODING 20141
SWIDTH 900 0
DWIDTH 10 0
BBX 8 10 1 -1
BITMAP
08
FF
7E
7E
00
FF
81
7F
08
38
ENDCHAR
STARTCHAR 4EAE
ENCODING 20142
SWIDTH 900 0
DWIDTH 10 0
BBX 9 10 1 -1
BITMAP
0800
FF00
7E00
7E00
0000
FF00
A500
2400
6480
C700
ENDCHAR
STARTCHAR 4EB6
ENCODING 20150
SWIDTH 900 0
DWIDTH 10 0
BBX 9 10 1 -1
BITMAP
FF80
0000
7F00
A500
7F00
0000
7E00
7E00
7E00
FF80
ENDCHAR
STARTCHAR 4EBA
ENCODING 20154
SWIDTH 900 0
DWIDTH 10 0
BBX 8 9 1 -1
BITMAP
08
08
08
18
18
14
22
43
81
ENDCHAR
STARTCHAR 4EC0
ENCODING 20160
SWIDTH 900 0
DWIDTH 10 0
BBX 9 10 1 -1
BITMAP
4400
C400
C400
7F80
4400
4400
4400
4400
4400
4400
ENDCHAR
STARTCHAR 4EC1
ENCODING 20161
SWIDTH 900 0
DWIDTH 10 0
BBX 9 10 1 -1
BITMAP
4000
4000
5F00
4000
C000
4000
4000
4000
7F80
4000
ENDCHAR
STARTCHAR 4EC4
ENCODING 20164
SWIDTH 900 0
DWIDTH 10 0
BBX 9 9 1 -1
BITMAP
7F80
8800
8800
8800
8800
8C00
9200
A300
E100
ENDCHAR
STARTCHAR 4EC7
ENCODING 20167
SWIDTH 900 0
DWIDTH 10 0
BBX 9 10 1 -1
BITMAP
5000
5000
5000
BE00
9200
9200
5200
5280
6280
6300
ENDCHAR
STARTCHAR 4ECA
ENCODING 20170
SWIDTH 900 0
DWIDTH 10 0
BBX 9 10 1 -1
BITMAP
1800
2400
4300
BD80
0000
7F00
0200
0200
0400
0800
ENDCHAR
STARTCHAR 4ECB
ENCODING 20171
SWIDTH 900 0
DWIDTH 10 0
BBX 9 10 1 -1
BITMAP
1800
1800
2400
4300
A580
2400
2400
2400
4400
8400
ENDCHAR
STARTCHAR 4ECD
ENCODING 20173
SWIDTH 900 0
DWIDTH 10 0
BBX 8 10 1 -1
BITMAP
20
5E
52
92
93
91
51
51
61
63
ENDCHAR
STARTCHAR 4ED4
ENCODING 20180
SWIDTH 900 0
DWIDTH 10 0
BBX 9 10 1 -1
BITMAP
2000
5F00
4200
4400
C400
FF80
4400
4400
4400
5C00
ENDCHAR
STARTCHAR 4ED5
ENCODING 20181
SWIDTH 900 0
DWIDTH 10 0
BBX 9 10 1 -1
BITMAP
2400
4400
4400
7F80
C400
C400
4400
4400
4400
5F00
ENDCHAR
STARTCHAR 4ED6
ENCODING 20182
SWIDTH 900 0
DWIDTH 10 0
BBX 9 10 1 -1
BITMAP
2400
5400
5500
5F00
F500
D500
5700
5400
5080
5F00
ENDCHAR
STARTCHAR 4ED7
ENCODING 20183
SWIDTH 900 0
DWIDTH 10 0
BBX 9 10 1 -1
BITMAP
2400
4400
7F80
4400
D400
CC00
4C00
4C00
5B00
6180
ENDCHAR
STARTCHAR 4ED8
ENCODING 20184
SWIDTH 900 0
DWIDTH 10 0
BBX 9 10 1 -1
BITMAP
2200
4200
5F80
4200
D200
4A00
4A00
4200
4200
4600
ENDCHAR
STARTCHAR 4ED9
ENCODING 20185
SWIDTH 900 0
DWIDTH 10 0
BBX 8 10 1 -1
BITMAP
44
44
55
D5
D5
D5
55
55
5F
51
ENDCHAR
STARTCHAR 4EDD
ENCODING 20189
SWIDTH 900 0
DWIDTH 10 0
BBX 8 9 1 -1
BITMAP
18
14
24
43
81
7E
08
08
FF
ENDCHAR
STARTCHAR 4EDF
ENCODING 20191
SWIDTH 900 0
DWIDTH 10 0
BBX 9 10 1 -1
BITMAP
2300
5C00
4400
4400
FF80
C400
4400
4400
4400
4400
ENDCHAR
STARTCHAR 4EE3
ENCODING 20195
SWIDTH 900 0
DWIDTH 10 0
BBX 9 9 1 -1
BITMAP
2A00
4900
4800
FF00
C800
4400
4400
4280
4300
ENDCHAR
STARTCHAR 4EE4
ENCODING 20196
SWIDTH 900 0
DWIDTH 10 0
BBX 9 9 1 -1
BITMAP
1800
2400
4300
BD80
0000
7E00
1100
1200
1000
ENDCHAR
STARTCHAR 4EE5
ENCODING 20197
SWIDTH 900 0
DWIDTH 10 0
BBX 9 9 1 -1
BITMAP
4200
5200
4A00
4200
4200
4A00
7600
8D00
1080
ENDCHAR
STARTCHAR 4EF0
ENCODING 20208
SWIDTH 900 0
DWIDTH 10 0
BBX 8 10 1 -1
BITMAP
48
77
65
A5
A5
A5
AD
B5
84
84
ENDCHAR
STARTCHAR 4EF2
ENCODING 20210
SWIDTH 900 0
DWIDTH 10 0
BBX 8 10 1 -1
BITMAP
24
44
5F
65
E5
E5
5F
44
44
44
ENDCHAR
STARTCHAR 4EF6
ENCODING 20214
SWIDTH 900 0
DWIDTH 10 0
BBX 9 10 1 -1
BITMAP
5400
5400
5F00
E400
E400
7F80
4400
4400
4400
4400
ENDCHAR
STARTCHAR 4EF7
ENCODING 20215
SWIDTH 900 0
DWIDTH 10 0
BBX 9 10 1 -1
BITMAP
2400
4A00
5100
6080
D200
D200
5200
5200
7200
6200
ENDCHAR
STARTCHAR 4EFB
ENCODING 20219
SWIDTH 900 0
DWIDTH 10 0
BBX 9 10 1 -1
BITMAP
2300
5C00
4400
4400
FF80
C400
4400
4400
7F80
4000
ENDCHAR
STARTCHAR 4F01
ENCODING 20225
SWIDTH 900 0
DWIDTH 10 0
BBX 9 9 1 -1
BITMAP
1800
1C00
2600
CB00
C880
4F00
4800
4800
FF80
ENDCHAR
STARTCHAR 4F09
ENCODING 20233
SWIDTH 900 0
DWIDTH 10 0
BBX 9 10 1 -1
BITMAP
4400
7F80
4000
DE00
D200
D200
5200
5280
7280
6300
ENDCHAR
STARTCHAR 4F0A
ENCODING 20234
SWIDTH 900 0
DWIDTH 10 0
BBX 9 10 1 -1
BITMAP
2000
5F00
4500
7F80
C500
DF00
4900
4800
5800
6000
ENDCHAR
STARTCHAR 4F0B
ENCODING 20235
SWIDTH 900 0
DWIDTH 10 0
BBX 9 10 1 -1
BITMAP
2000
5E00
5200
4A00
DB00
D500
5600
5600
6D00
7080
ENDCHAR
STARTCHAR 4F0D
ENCODING 20237
SWIDTH 900 0
DWIDTH 10 0
BBX 9 10 1 -1
BITMAP
4000
7F00
4800
8800
BF00
8900
4900
4900
4900
7F80
ENDCHAR
STARTCHAR 4F0E
ENCODING 20238
SWIDTH 900 0
DWIDTH 10 0
BBX 9 10 1 -1
BITMAP
4400
4400
7F80
C400
DF00
5100
4A00
4400
5B00
6180
ENDCHAR
STARTCHAR 4F0F
ENCODING 20239
SWIDTH 900 0
DWIDTH 10 0
BBX 9 10 1 -1
BITMAP
2600
4500
4400
7F80
C400
CC00
4A00
5200
7100
6080
ENDCHAR
STARTCHAR 4F10
ENCODING 20240
SWIDTH 900 0
DWIDTH 10 0
BBX 9 10 1 -1
BITMAP
2A00
4A00
4F00
7800
C900
C600
4400
4400
5A80
7100
ENDCHAR
STARTCHAR 4F11
ENCODING 20241
SWIDTH 900 0
DWIDTH 10 0
BBX 9 10 1 -1
BITMAP
2400
4400
7F80
4C00
CC00
CE00
5500
6500
6480
4400
ENDCHAR
STARTCHAR 4F2F
ENCODING 20271
SWIDTH 900 0
DWIDTH 10 0
BBX 8 10 1 -1
BITMAP
24
44
5F
91
91
9F
51
51
5F
51
ENDCHAR
STARTCHAR 4F34
ENCODING 20276
SWIDTH 900 0
DWIDTH 10 0
BBX 9 10 1 -1
BITMAP
4400
5600
5500
A480
9F00
4400
7F80
4400
4400
4400
ENDCHAR
STARTCHAR 4F36
ENCODING 20278
SWIDTH 900 0
DWIDTH 10 0
BBX 9 10 1 -1
BITMAP
4400
4A00
5300
BE80
8000
BF00
8900
8900
8B00
8800
ENDCHAR
STARTCHAR 4F38
ENCODING 20280
SWIDTH 900 0
DWIDTH 10 0
BBX 8 10 1 -1
BITMAP
24
44
5F
55
DF
D5
5F
55
44
44
ENDCHAR
STARTCHAR 4F3A
ENCODING 20282
SWIDTH 900 0
DWIDTH 10 0
BBX 8 10 1 -1
BITMAP
7F
41
5F
81
9D
95
5D
55
41
43
ENDCHAR
STARTCHAR 4F3C
ENCODING 20284
SWIDTH 900 0
DWIDTH 10 0
BBX 9 10 1 -1
BITMAP
4100
5900
5500
9500
9100
9200
9200
9F00
B500
8480
ENDCHAR
STARTCHAR 4F3D
ENCODING 20285
SWIDTH 900 0
DWIDTH 10 0
BBX 8 10 1 -1
BITMAP
30
53
7B
5B
9B
9B
5B
6B
6B
5B
ENDCHAR
STARTCHAR 4F43
ENCODING 20291
SWIDTH 900 0
DWIDTH 10 0
BBX 8 10 1 -1
BITMAP
20
5F
55
55
DF
D5
55
55
5F
51
ENDCHAR
STARTCHAR 4F46
ENCODING 20294
SWIDTH 900 0
DWIDTH 10 0
BBX 9 10 1 -1
BITMAP
2000
5F00
5100
5100
DF00
D100
5F00
4000
4000
7F80
ENDCHAR
STARTCHAR 4F47
ENCODING 20295
SWIDTH 900 0
DWIDTH 10 0
BBX 9 10 1 -1
BITMAP
2400
5F00
6080
6080
FF80
C400
4400
4400
4400
4C00
ENDCHAR
STARTCHAR 4F48
ENCODING 20296
SWIDTH 900 0
DWIDTH 10 0
BBX 9 10 1 -1
BITMAP
4800
4800
7F80
9400
9F00
7500
7500
5500
5500
4400
ENDCHAR
STARTCHAR 4F4D
ENCODING 20301
SWIDTH 900 0
DWIDTH 10 0
BBX 9 10 1 -1
BITMAP
4400
4400
7F00
9100
9200
9200
4A00
4A00
4200
7F80
ENDCHAR
STARTCHAR 4F4E
ENCODING 20302
SWIDTH 900 0
DWIDTH 10 0
BBX 9 10 1 -1
BITMAP
2300
5C00
5400
5400
DF00
D200
5E00
7280
4100
7E00
ENDCHAR
STARTCHAR 4F4F
ENCODING 20303
SWIDTH 900 0
DWIDTH 10 0
BBX 9 10 1 -1
BITMAP
2800
4400
7F00
4400
C400
DF00
4400
4400
4400
7F80
ENDCHAR
STARTCHAR 4F50
ENCODING 20304
SWIDTH 900 0
DWIDTH 10 0
BBX 9 10 1 -1
BITMAP
2800
4800
7F80
4800
D000
DF00
6400
6400
4400
7F80
ENDCHAR
STARTCHAR 4F51
ENCODING 20305
SWIDTH 900 0
DWIDTH 10 0
BBX 9 10 1 -1
BITMAP
2800
4800
7F80
4800
D000
DF00
7100
7100
5F00
5100
ENDCHAR
STARTCHAR 4F55
ENCODING 20309
SWIDTH 900 0
DWIDTH 10 0
BBX 9 10 1 -1
BITMAP
2000
5F80
4100
DD00
D500
D500
5D00
5500
4100
4300
ENDCHAR
STARTCHAR 4F59
ENCODING 20313
SWIDTH 900 0
DWIDTH 10 0
BBX 8 9 1 -1
BITMAP
18
34
43
FF
08
FF
2C
CB
B1
ENDCHAR
STARTCHAR 4F5A
ENCODING 20314
SWIDTH 900 0
DWIDTH 10 0
BBX 9 10 1 -1
BITMAP
3400
5400
5F00
5400
E400
FF80
4400
4A00
5100
6080
ENDCHAR
STARTCHAR 4F5B
ENCODING 20315
SWIDTH 900 0
DWIDTH 10 0
BBX 8 10 1 -1
BITMAP
4C
7F
4D
BF
AC
AC
7F
55
55
64
ENDCHAR
STARTCHAR 4F5C
ENCODING 20316
SWIDTH 900 0
DWIDTH 10 0
BBX 9 10 1 -1
BITMAP
2800
5000
5F80
7400
E700
C400
4700
4400
4400
4400
ENDCHAR
STARTCHAR 4F69
ENCODING 20329
SWIDTH 900 0
DWIDTH 10 0
BBX 9 10 1 -1
BITMAP
7F00
6100
7D00
A900
BD00
BB00
BB00
B500
A980
C980
ENDCHAR
STARTCHAR 4F6F
ENCODING 20335
SWIDTH 900 0
DWIDTH 10 0
BBX 9 10 1 -1
BITMAP
3100
4A00
7F80
4400
DF00
C400
7F80
4400
4400
4400
ENDCHAR
STARTCHAR 4F70
ENCODING 20336
SWIDTH 900 0
DWIDTH 10 0
BBX 9 10 1 -1
BITMAP
4000
5F80
4400
9F00
9100
9100
5F00
5100
5F00
5100
ENDCHAR
STARTCHAR 4F73
ENCODING 20339
SWIDTH 900 0
DWIDTH 10 0
BBX 9 10 1 -1
BITMAP
2400
5F00
4400
4400
FF80
C400
7F00
4400
4400
7F80
ENDCHAR
STARTCHAR 4F76
ENCODING 20342
SWIDTH 900 0
DWIDTH 10 0
BBX 9 10 1 -1
BITMAP
2400
4400
7F80
8400
9F00
4000
5F00
5100
5F00
5100
ENDCHAR
STARTCHAR 4F7A
ENCODING 20346
SWIDTH 900 0
DWIDTH 10 0
BBX 9 10 1 -1
BITMAP
3C00
4C00
4A00
5100
FF80
4400
5E00
4400
4400
7F00
ENDCHAR
STARTCHAR 4F7E
ENCODING 20350
SWIDTH 900 0
DWIDTH 10 0
BBX 9 10 1 -1
BITMAP
2E00
5200
5100
7F80
F100
DF00
5100
5F00
5100
6300
ENDCHAR
STARTCHAR 4F7F
ENCODING 20351
SWIDTH 900 0
DWIDTH 10 0
BBX 9 10 1 -1
BITMAP
4400
7F80
4400
9F00
9500
9F00
5400
4800
5600
6180
ENDCHAR
STARTCHAR 4F81
ENCODING 20353
SWIDTH 900 0
DWIDTH 10 0
BBX 9 10 1 -1
BITMAP
2400
5400
5F00
5400
E400
FF80
4A00
4A00
5280
6300
ENDCHAR
STARTCHAR 4F83
ENCODING 20355
SWIDTH 900 0
DWIDTH 10 0
BBX 10 10 0 -1
BITMAP
2F80
3080
3080
4F80
4000
AD00
2D00
2D00
3540
35C0
ENDCHAR
STARTCHAR 4F84
ENCODING 20356
SWIDTH 900 0
DWIDTH 10 0
BBX 9 10 1 -1
BITMAP
4000
5F00
4900
8B00
BC80
8400
5F00
4400
4400
7F80
ENDCHAR
STARTCHAR 4F86
ENCODING 20358
SWIDTH 900 0
DWIDTH 10 0
BBX 8 10 1 -1
BITMAP
08
FF
2A
4A
6B
BD
2C
4B
89
08
ENDCHAR
STARTCHAR 4F88
ENCODING 20360
SWIDTH 900 0
DWIDTH 10 0
BBX 9 10 1 -1
BITMAP
2800
4F00
5200
AC00
9A00
7780
5900
7600
4C00
7000
ENDCHAR
STARTCHAR 4F8A
ENCODING 20362
SWIDTH 900 0
DWIDTH 10 0
BBX 9 10 1 -1
BITMAP
4400
6500
5500
9600
BF00
4A00
4A00
5200
5280
6300
ENDCHAR
STARTCHAR 4F8B
ENCODING 20363
SWIDTH 900 0
DWIDTH 10 0
BBX 8 10 1 -1
BITMAP
41
79
53
9B
AB
BB
8B
93
91
A3
ENDCHAR
STARTCHAR 4F8D
ENCODING 20365
SWIDTH 900 0
DWIDTH 10 0
BBX 9 10 1 -1
BITMAP
2400
5F00
4400
BF80
8200
BF80
5200
4A00
4200
4600
ENDCHAR
STARTCHAR 4F8F
ENCODING 20367
SWIDTH 900 0
DWIDTH 10 0
BBX 9 10 1 -1
BITMAP
3400
5400
5F00
6400
BF80
8C00
4E00
5500
6480
4400
ENDCHAR
STARTCHAR 4F91
ENCODING 20369
SWIDTH 900 0
DWIDTH 10 0
BBX 9 10 1 -1
BITMAP
2800
7F80
4800
9F00
B100
BF00
5100
5F00
5100
5300
ENDCHAR
STARTCHAR 4F96
ENCODING 20374
SWIDTH 900 0
DWIDTH 10 0
BBX 9 10 1 -1
BITMAP
1800
2400
3F00
C080
8000
7F00
5500
7F00
5500
5700
ENDCHAR
STARTCHAR 4F98
ENCODING 20376
SWIDTH 900 0
DWIDTH 10 0
BBX 9 10 1 -1
BITMAP
4400
7F80
6280
CC00
D800
DF80
6800
4800
4880
4700
ENDCHAR
STARTCHAR 4F9B
ENCODING 20379
SWIDTH 900 0
DWIDTH 10 0
BBX 9 10 1 -1
BITMAP
5200
5200
5200
BF00
9200
7F80
4000
5200
7100
6080
ENDCHAR
STARTCHAR 4F9D
ENCODING 20381
SWIDTH 900 0
DWIDTH 10 0
BBX 9 10 1 -1
BITMAP
4400
4400
7F80
4C00
CD00
D200
7200
5100
5500
7880
ENDCHAR
STARTCHAR 4FAE
ENCODING 20398
SWIDTH 900 0
DWIDTH 10 0
BBX 9 10 1 -1
BITMAP
5000
5F00
B000
BF00
9500
7F80
5900
5F00
6100
4600
ENDCHAR
STARTCHAR 4FAF
ENCODING 20399
SWIDTH 900 0
DWIDTH 10 0
BBX 9 10 1 -1
BITMAP
5E00
4200
7F80
9000
9F00
A400
BF80
8C00
9200
A180
ENDCHAR
STARTCHAR 4FB5
ENCODING 20405
SWIDTH 900 0
DWIDTH 10 0
BBX 10 10 0 -1
BITMAP
2F80
2080
3FC0
6F80
7F80
B040
3F80
2500
2700
38C0
ENDCHAR
STARTCHAR 4FB6
ENCODING 20406
SWIDTH 900 0
DWIDTH 10 0
BBX 8 10 1 -1
BITMAP
40
5F
51
9F
84
48
5F
61
5F
61
ENDCHAR
STARTCHAR 4FBF
ENCODING 20415
SWIDTH 900 0
DWIDTH 10 0
BBX 9 10 1 -1
BITMAP
4000
7F80
5F00
9500
9F00
9F00
5400
4C00
5600
6180
ENDCHAR
STARTCHAR 4FC2
ENCODING 20418
SWIDTH 900 0
DWIDTH 10 0
BBX 9 10 1 -1
BITMAP
4300
7C00
5A00
DC00
C900
7F00
4400
5700
6480
4400
ENDCHAR
STARTCHAR 4FC3
ENCODING 20419
SWIDTH 900 0
DWIDTH 10 0
BBX 9 10 1 -1
BITMAP
3F00
5100
5100
DF00
C400
D400
5780
5400
6C00
6780
ENDCHAR
STARTCHAR 4FC4
ENCODING 20420
SWIDTH 900 0
DWIDTH 10 0
BBX 9 10 1 -1
BITMAP
4C00
7500
5300
BF80
9200
5500
7B00
5200
5680
7500
ENDCHAR
STARTCHAR 4FC9
ENCODING 20425
SWIDTH 900 0
DWIDTH 10 0
BBX 9 10 1 -1
BITMAP
7F00
4800
5F00
8900
BF80
8000
5F00
5100
5F00
5100
ENDCHAR
STARTCHAR 4FCA
ENCODING 20426
SWIDTH 900 0
DWIDTH 10 0
BBX 9 10 1 -1
BITMAP
2800
4900
5F00
CC80
FB00
4800
5F00
6A00
4E00
7180
ENDCHAR
STARTCHAR 4FCE
ENCODING 20430
SWIDTH 900 0
DWIDTH 10 0
BBX 9 9 1 -1
BITMAP
4F00
4900
6900
AF00
4900
4900
6F00
9900
9F80
ENDCHAR
STARTCHAR 4FD1
ENCODING 20433
SWIDTH 900 0
DWIDTH 10 0
BBX 8 10 1 -1
BITMAP
5F
4A
44
9F
A5
9F
65
5F
65
65
ENDCHAR
STARTCHAR 4FD3
ENCODING 20435
SWIDTH 900 0
DWIDTH 10 0
BBX 9 10 1 -1
BITMAP
3F00
5500
5500
EA00
D500
5500
5F00
4400
4400
7F80
ENDCHAR
STARTCHAR 4FD4
ENCODING 20436
SWIDTH 900 0
DWIDTH 10 0
BBX 9 10 1 -1
BITMAP
3F00
5100
5F00
D100
DF00
5100
5F00
4A00
5280
6300
ENDCHAR
STARTCHAR 4FD7
ENCODING 20439
SWIDTH 900 0
DWIDTH 10 0
BBX 8 10 1 -1
BITMAP
4A
53
65
8C
92
B1
7F
52
5E
52
ENDCHAR
STARTCHAR 4FDA
ENCODING 20442
SWIDTH 900 0
DWIDTH 10 0
BBX 9 10 1 -1
BITMAP
5F00
5500
5500
9F00
9500
5F00
5F00
4400
4400
7F80
ENDCHAR
STARTCHAR 4FDD
ENCODING 20445
SWIDTH 900 0
DWIDTH 10 0
BBX 9 9 1 -1
BITMAP
5F00
5100
5100
CE00
FF80
4E00
4D00
5480
6400
ENDCHAR
STARTCHAR 4FDF
ENCODING 20447
SWIDTH 900 0
DWIDTH 10 0
BBX 9 10 1 -1
BITMAP
4800
4900
7F00
9080
9F00
A400
7F80
4C00
5B00
6180
ENDCHAR
STARTCHAR 4FE0
ENCODING 20448
SWIDTH 900 0
DWIDTH 10 0
BBX 9 10 1 -1
BITMAP
2400
4400
7F80
5500
D500
F700
6E80
4A00
5100
6080
ENDCHAR
STARTCHAR 4FE1
ENCODING 20449
SWIDTH 900 0
DWIDTH 10 0
BBX 9 10 1 -1
BITMAP
3F00
4000
7F80
DF00
C000
5F00
5F00
5100
5F00
5100
ENDCHAR
STARTCHAR 4FEE
ENCODING 20462
SWIDTH 900 0
DWIDTH 10 0
BBX 9 10 1 -1
BITMAP
4800
4F00
7900
B600
BF80
A600
BA00
AD80
A600
9800
ENDCHAR
STARTCHAR 4FEF
ENCODING 20463
SWIDTH 900 0
DWIDTH 10 0
BBX 9 10 1 -1
BITMAP
4400
7F80
6500
AF80
A900
BD00
AB00
A900
A900
AB00
ENDCHAR
STARTCHAR 4FF1
ENCODING 20465
SWIDTH 900 0
DWIDTH 10 0
BBX 9 10 1 -1
BITMAP
3F00
5100
5F00
D100
DF00
5F00
7F80
4000
5A00
6180
ENDCHAR
STARTCHAR 4FF3
ENCODING 20467
SWIDTH 900 0
DWIDTH 10 0
BBX 9 10 1 -1
BITMAP
2A00
4A00
7B80
8A00
BB80
8A00
5B80
6A00
5200
6200
ENDCHAR
STARTCHAR 4FF5
ENCODING 20469
SWIDTH 900 0
DWIDTH 10 0
BBX 9 10 1 -1
BITMAP
4400
7F00
4400
9F00
BF80
4D00
5200
7200
5D00
7080
ENDCHAR
STARTCHAR 4FF8
ENCODING 20472
SWIDTH 900 0
DWIDTH 10 0
BBX 9 10 1 -1
BITMAP
4000
7F00
4800
9F00
BF00
9500
7E80
7F00
4400
4400
ENDCHAR
STARTCHAR 4FFA
ENCODING 20474
SWIDTH 900 0
DWIDTH 10 0
BBX 9 10 1 -1
BITMAP
2800
7F00
4A00
D500
FF80
D500
5F00
5F00
4480
4700
ENDCHAR
STARTCHAR 5002
ENCODING 20482
SWIDTH 900 0
DWIDTH 10 0
BBX 9 10 1 -1
BITMAP
5100
5200
7F80
9200
9200
9F80
7200
5200
5200
6200
ENDCHAR
STARTCHAR 5006
ENCODING 20486
SWIDTH 900 0
DWIDTH 10 0
BBX 9 10 1 -1
BITMAP
4000
7F80
8400
BF00
B700
AF00
BF00
BD00
A500
A500
ENDCHAR
STARTCHAR 5009
ENCODING 20489
SWIDTH 900 0
DWIDTH 10 0
BBX 9 10 1 -1
BITMAP
1800
3400
7F00
FF80
7E00
4200
7E00
7E00
A100
BE00
ENDCHAR
STARTCHAR 500B
ENCODING 20491
SWIDTH 900 0
DWIDTH 10 0
BBX 8 10 1 -1
BITMAP
5F
65
65
EF
E5
EF
6B
6F
5F
61
ENDCHAR
STARTCHAR 500D
ENCODING 20493
SWIDTH 900 0
DWIDTH 10 0
BBX 9 10 1 -1
BITMAP
4400
7F80
5200
8A00
BF80
8000
5F00
5100
5F00
5100
ENDCHAR
STARTCHAR 5011
ENCODING 20497
SWIDTH 900 0
DWIDTH 10 0
BBX 8 10 1 -1
BITMAP
7B
6B
7B
AB
BB
A1
A1
A1
A1
A3
ENDCHAR
STARTCHAR 5012
ENCODING 20498
SWIDTH 900 0
DWIDTH 10 0
BBX 8 10 1 -1
BITMAP
41
7F
9B
BF
87
93
BF
93
BD
83
ENDCHAR
STARTCHAR 5016
ENCODING 20502
SWIDTH 900 0
DWIDTH 10 0
BBX 9 10 1 -1
BITMAP
4400
5F00
4400
7F80
CA00
FF80
4400
5F00
4400
4400
ENDCHAR
STARTCHAR 5019
ENCODING 20505
SWIDTH 900 0
DWIDTH 10 0
BBX 9 10 1 -1
BITMAP
4F00
4100
7F80
A800
AF00
B400
BF80
A600
8900
9080
ENDCHAR
STARTCHAR 501A
ENCODING 20506
SWIDTH 900 0
DWIDTH 10 0
BBX 9 10 1 -1
BITMAP
2400
3F00
4A00
5100
FF80
C100
5D00
5D00
5500
4300
ENDCHAR
STARTCHAR 501C
ENCODING 20508
SWIDTH 900 0
DWIDTH 10 0
BBX 8 10 1 -1
BITMAP
5F
55
5F
DF
D5
51
5F
6F
69
63
ENDCHAR
STARTCHAR 501E
ENCODING 20510
SWIDTH 900 0
DWIDTH 10 0
BBX 9 10 1 -1
BITMAP
4400
7F80
4000
DF00
D100
5F00
4400
5500
6480
4C00
ENDCHAR
STARTCHAR 501F
ENCODING 20511
SWIDTH 900 0
DWIDTH 10 0
BBX 9 10 1 -1
BITMAP
4A00
7F00
4A00
BF80
8000
5F00
5100
5F00
5F00
5100
ENDCHAR
STARTCHAR 5021
ENCODING 20513
SWIDTH 900 0
DWIDTH 10 0
BBX 8 10 1 -1
BITMAP
3F
51
5F
5F
C0
5F
61
5F
5F
61
ENDCHAR
STARTCHAR 5023
ENCODING 20515
SWIDTH 900 0
DWIDTH 10 0
BBX 9 10 1 -1
BITMAP
5200
5200
7B80
A500
9D00
AB00
A900
AB00
AF00
D480
ENDCHAR
STARTCHAR 5024
ENCODING 20516
SWIDTH 900 0
DWIDTH 10 0
BBX 9 10 1 -1
BITMAP
4400
7F80
4400
8F00
AF00
A900
6F00
6F00
7F80
6000
ENDCHAR
STARTCHAR 5026
ENCODING 20518
SWIDTH 900 0
DWIDTH 10 0
BBX 9 10 1 -1
BITMAP
5A00
6900
BF00
8C00
BF80
9F00
B280
9600
9100
9F00
ENDCHAR
STARTCHAR 5027
ENCODING 20519
SWIDTH 900 0
DWIDTH 10 0
BBX 9 10 1 -1
BITMAP
2400
7F00
6080
5F00
C000
FF80
5500
5500
6480
4C00
ENDCHAR
STARTCHAR 5028
ENCODING 20520
SWIDTH 900 0
DWIDTH 10 0
BBX 9 10 1 -1
BITMAP
5F00
6100
6100
9F00
9F80
A400
AF00
A880
AF00
C880
ENDCHAR
STARTCHAR 502A
ENCODING 20522
SWIDTH 900 0
DWIDTH 10 0
BBX 9 10 1 -1
BITMAP
4800
5300
6100
9B00
A100
9F00
4A00
5200
5280
6300
ENDCHAR
STARTCHAR 502B
ENCODING 20523
SWIDTH 900 0
DWIDTH 10 0
BBX 9 10 1 -1
BITMAP
4C00
5300
5E80
A000
BF00
6B00
6B00
7F00
6B00
6B00
ENDCHAR
STARTCHAR 502C
ENCODING 20524
SWIDTH 900 0
DWIDTH 10 0
BBX 9 10 1 -1
BITMAP
2400
4700
4400
DF00
DF00
D100
5F00
7F80
4400
4400
ENDCHAR
STARTCHAR 502D
ENCODING 20525
SWIDTH 900 0
DWIDTH 10 0
BBX 9 10 1 -1
BITMAP
4300
5C00
7F00
8E00
B580
8800
7F80
5A00
4600
7900
ENDCHAR
STARTCHAR 503B
ENCODING 20539
SWIDTH 900 0
DWIDTH 10 0
BBX 9 10 1 -1
BITMAP
7B80
6B00
6B00
BB00
AB00
BA80
AA80
BB00
8A00
8A00
ENDCHAR
STARTCHAR 5043
ENCODING 20547
SWIDTH 900 0
DWIDTH 10 0
BBX 9 10 1 -1
BITMAP
7F00
6000
6F00
AF00
AF00
BF80
AA00
A700
A800
BF80
ENDCHAR
STARTCHAR 5047
ENCODING 20551
SWIDTH 900 0
DWIDTH 10 0
BBX 10 10 0 -1
BITMAP
1D80
3480
3480
5D80
5000
BF80
5280
5D00
5180
5240
ENDCHAR
STARTCHAR 5048
ENCODING 20552
SWIDTH 900 0
DWIDTH 10 0
BBX 8 10 1 -1
BITMAP
5F
51
5F
9F
90
7F
65
6B
5F
43
ENDCHAR
STARTCHAR 5049
ENCODING 20553
SWIDTH 900 0
DWIDTH 10 0
BBX 9 10 1 -1
BITMAP
4800
5F00
7F80
8000
9F00
9F00
4400
5F00
7F80
4400
ENDCHAR
STARTCHAR 504F
ENCODING 20559
SWIDTH 900 0
DWIDTH 10 0
BBX 8 10 1 -1
BITMAP
43
7C
7F
A1
BF
BF
B7
BF
B7
57
ENDCHAR
STARTCHAR 5055
ENCODING 20565
SWIDTH 900 0
DWIDTH 10 0
BBX 9 10 1 -1
BITMAP
5400
5D00
5780
9B00
B400
9F00
5100
5F00
5100
5F00
ENDCHAR
STARTCHAR 505A
ENCODING 20570
SWIDTH 900 0
DWIDTH 10 0
BBX 9 10 1 -1
BITMAP
5200
5200
7B80
9500
9500
BB00
AA00
AA00
BD00
8480
ENDCHAR
STARTCHAR 505C
ENCODING 20572
SWIDTH 900 0
DWIDTH 10 0
BBX 9 10 1 -1
BITMAP
4400
7F80
5F00
9F00
8000
7F00
7F00
4400
4400
4C00
ENDCHAR
STARTCHAR 5065
ENCODING 20581
SWIDTH 900 0
DWIDTH 10 0
BBX 9 10 1 -1
BITMAP
4200
7F00
5F80
A300
BF00
9F00
B200
BF00
9200
AF80
ENDCHAR
STARTCHAR 5074
ENCODING 20596
SWIDTH 900 0
DWIDTH 10 0
BBX 8 10 1 -1
BITMAP
79
6B
AB
BB
AB
BB
BB
81
A9
A7
ENDCHAR
STARTCHAR 5075
ENCODING 20597
SWIDTH 900 0
DWIDTH 10 0
BBX 9 10 1 -1
BITMAP
4400
4780
5F00
D100
DF00
D100
5F00
5F00
5A00
6180
ENDCHAR
STARTCHAR 5076
ENCODING 20598
SWIDTH 900 0
DWIDTH 10 0
BBX 8 10 1 -1
BITMAP
3F
55
5F
55
DF
C4
7F
67
79
63
ENDCHAR
STARTCHAR 5078
ENCODING 20600
SWIDTH 900 0
DWIDTH 10 0
BBX 9 10 1 -1
BITMAP
5C00
4A00
5F00
A080
BB00
BB00
6500
7B00
6B00
6A80
ENDCHAR
STARTCHAR 5080
ENCODING 20608
SWIDTH 900 0
DWIDTH 10 0
BBX 9 10 1 -1
BITMAP
4800
5F00
6500
9F00
A500
5F00
4F00
5780
5480
6700
ENDCHAR
STARTCHAR 5085
ENCODING 20613
SWIDTH 900 0
DWIDTH 10 0
BBX 9 10 1 -1
BITMAP
4500
7F80
5F00
D500
DF00
DF00
4100
7F80
4900
4200
ENDCHAR
STARTCHAR 508D
ENCODING 20621
SWIDTH 900 0
DWIDTH 10 0
BBX 8 10 1 -1
BITMAP
44
7F
52
BF
A5
BF
88
9F
91
A6
ENDCHAR
STARTCHAR 5091
ENCODING 20625
SWIDTH 900 0
DWIDTH 10 0
BBX 9 10 1 -1
BITMAP
5100
5F00
6D00
9780
B100
A500
BF00
8C00
9700
A500
ENDCHAR
STARTCHAR 5098
ENCODING 20632
SWIDTH 900 0
DWIDTH 10 0
BBX 9 10 1 -1
BITMAP
1800
3400
6B00
AB80
6D00
2A00
6D00
FF80
0800
0800
ENDCHAR
STARTCHAR 5099
ENCODING 20633
SWIDTH 900 0
DWIDTH 10 0
BBX 9 10 1 -1
BITMAP
4A00
7F00
4A00
BF80
AF00
B500
AF00
AF00
B500
D500
ENDCHAR
STARTCHAR 50AC
ENCODING 20652
SWIDTH 900 0
DWIDTH 10 0
BBX 9 10 1 -1
BITMAP
5480
5480
5F00
9400
9F80
B400
5F00
5F00
5F80
5000
ENDCHAR
STARTCHAR 50AD
ENCODING 20653
SWIDTH 900 0
DWIDTH 10 0
BBX 9 10 1 -1
BITMAP
4400
7F80
6F00
BF80
BF00
A400
7F00
7F00
7F00
5500
ENDCHAR
STARTCHAR 50B2
ENCODING 20658
SWIDTH 900 0
DWIDTH 10 0
BBX 9 10 1 -1
BITMAP
5200
7A00
5380
BD00
9500
BB00
9B00
AB00
AB00
DC80
ENDCHAR
STARTCHAR 50B3
ENCODING 20659
SWIDTH 900 0
DWIDTH 10 0
BBX 9 10 1 -1
BITMAP
4400
7F00
7F00
BF00
BF00
8500
BF00
BF80
9200
8600
ENDCHAR
STARTCHAR 50B5
ENCODING 20661
SWIDTH 900 0
DWIDTH 10 0
BBX 9 10 1 -1
BITMAP
4400
7F00
5F00
BF80
9F00
9F00
5100
5F00
5A00
6180
ENDCHAR
STARTCHAR 50B7
ENCODING 20663
SWIDTH 900 0
DWIDTH 10 0
BBX 9 10 1 -1
BITMAP
5000
5F00
7F00
BF00
9F00
BF80
9F00
AB00
9500
8B00
ENDCHAR
STARTCHAR 50BE
ENCODING 20670
SWIDTH 900 0
DWIDTH 10 0
BBX 9 10 1 -1
BITMAP
4F80
6200
7F00
B900
AF00
AF00
A900
BF00
8D00
9080
ENDCHAR
STARTCHAR 50C5
ENCODING 20677
SWIDTH 900 0
DWIDTH 10 0
BBX 9 10 1 -1
BITMAP
5200
7F00
9E00
BF00
A500
BF00
BF00
9F00
8400
BF80
ENDCHAR
STARTCHAR 50C9
ENCODING 20681
SWIDTH 900 0
DWIDTH 10 0
BBX 9 10 1 -1
BITMAP
1800
2400
7E00
8180
7F00
7F00
0000
2400
6600
9900
ENDCHAR
STARTCHAR 50CA
ENCODING 20682
SWIDTH 900 0
DWIDTH 10 0
BBX 9 10 1 -1
BITMAP
3F80
4A00
5F00
DF00
C800
FF80
5F00
7680
5100
5F00
ENDCHAR
STARTCHAR 50CF
ENCODING 20687
SWIDTH 900 0
DWIDTH 10 0
BBX 9 10 1 -1
BITMAP
5000
5E00
7F00
B500
9F00
9B00
6E00
7500
5C80
6C00
ENDCHAR
STARTCHAR 50D1
ENCODING 20689
SWIDTH 900 0
DWIDTH 10 0
BBX 9 10 1 -1
BITMAP
4300
5C00
7F80
9F00
BE80
BF00
A100
AF00
AF00
A100
ENDCHAR
STARTCHAR 50D5
ENCODING 20693
SWIDTH 900 0
DWIDTH 10 0
BBX 9 10 1 -1
BITMAP
5B00
5B00
7F80
8A00
BF00
5F00
7F80
4C00
5A00
6180
ENDCHAR
STARTCHAR 50D6
ENCODING 20694
SWIDTH 900 0
DWIDTH 10 0
BBX 9 10 1 -1
BITMAP
4400
7F00
7F00
9F00
A100
9E00
BF80
BF00
BF00
A100
ENDCHAR
STARTCHAR 50DA
ENCODING 20698
SWIDTH 900 0
DWIDTH 10 0
BBX 9 10 1 -1
BITMAP
4800
7F80
6D00
BF00
A180
9E00
9E00
9600
A500
A880
ENDCHAR
STARTCHAR 50DE
ENCODING 20702
SWIDTH 900 0
DWIDTH 10 0
BBX 9 10 1 -1
BITMAP
4300
5D00
6500
BE00
9F00
9100
5F80
7680
7500
6300
ENDCHAR
STARTCHAR 50E5
ENCODING 20709
SWIDTH 900 0
DWIDTH 10 0
BBX 9 10 1 -1
BITMAP
2400
5F00
7F00
9200
BF00
B780
7F80
4C00
5480
6300
ENDCHAR
STARTCHAR 50E7
ENCODING 20711
SWIDTH 900 0
DWIDTH 10 0
BBX 9 10 1 -1
BITMAP
4E00
5100
7F00
B780
9F00
8000
5F00
5F00
5100
5F00
ENDCHAR
STARTCHAR 50ED
ENCODING 20717
SWIDTH 900 0
DWIDTH 10 0
BBX 9 10 1 -1
BITMAP
7F00
7300
BF80
9280
BD80
8000
BF00
BF00
BF00
A100
ENDCHAR
STARTCHAR 50F9
ENCODING 20729
SWIDTH 900 0
DWIDTH 10 0
BBX 9 10 1 -1
BITMAP
7F80
4A00
7F80
BF00
9F00
5F00
6100
5F00
5200
6100
ENDCHAR
STARTCHAR 50FB
ENCODING 20731
SWIDTH 900 0
DWIDTH 10 0
BBX 9 10 1 -1
BITMAP
7A00
6F80
AD00
BB00
A780
A200
BA00
EF80
9A00
AA00
ENDCHAR
STARTCHAR 50FF
ENCODING 20735
SWIDTH 900 0
DWIDTH 10 0
BBX 9 10 1 -1
BITMAP
4400
7F00
4A00
BF00
9F00
BF80
9500
BF80
8400
BF80
ENDCHAR
STARTCHAR 5100
ENCODING 20736
SWIDTH 900 0
DWIDTH 10 0
BBX 9 10 1 -1
BITMAP
5200
7F00
5F00
BF80
8000
7D00
7F80
7B00
5200
7580
ENDCHAR
STARTCHAR 5101
ENCODING 20737
SWIDTH 900 0
DWIDTH 10 0
BBX 8 10 1 -1
BITMAP
34
5F
74
BF
9C
9F
5B
6B
6F
61
ENDCHAR
STARTCHAR 5104
ENCODING 20740
SWIDTH 900 0
DWIDTH 10 0
BBX 9 10 1 -1
BITMAP
4400
7F00
7F80
8000
9F00
9F00
9F00
AD00
AB00
AE80
ENDCHAR
STARTCHAR 5106
ENCODING 20742
SWIDTH 900 0
DWIDTH 10 0
BBX 9 10 1 -1
BITMAP
6A00
7E00
6B80
A300
BB00
B700
7500
B900
8B00
9C80
ENDCHAR
STARTCHAR 5109
ENCODING 20745
SWIDTH 900 0
DWIDTH 10 0
BBX 9 10 1 -1
BITMAP
4C00
5300
6F80
A000
BB00
7B00
4000
5200
7300
6D00
ENDCHAR
STARTCHAR 5112
ENCODING 20754
SWIDTH 900 0
DWIDTH 10 0
BBX 9 10 1 -1
BITMAP
5F00
4400
7F80
A480
8400
BF80
BF00
AA80
AA80
AB00
ENDCHAR
STARTCHAR 511F
ENCODING 20767
SWIDTH 900 0
DWIDTH 10 0
BBX 9 10 1 -1
BITMAP
5500
7F80
6080
9F00
8000
9F00
9F00
9F00
8200
B180
ENDCHAR
STARTCHAR 5121
ENCODING 20769
SWIDTH 900 0
DWIDTH 10 0
BBX 8 10 1 -1
BITMAP
5F
55
5F
9F
80
BF
BF
BF
BF
AD
ENDCHAR
STARTCHAR 512A
ENCODING 20778
SWIDTH 900 0
DWIDTH 10 0
BBX 9 10 1 -1
BITMAP
3F00
5F00
5F00
9F00
BF80
BF80
6F00
5F00
6A00
7F80
ENDCHAR
STARTCHAR 5132
ENCODING 20786
SWIDTH 900 0
DWIDTH 10 0
BBX 9 10 1 -1
BITMAP
7200
4700
7B00
B780
8300
B700
BD00
AF00
B700
AD00
ENDCHAR
STARTCHAR 5137
ENCODING 20791
SWIDTH 900 0
DWIDTH 10 0
BBX 9 10 1 -1
BITMAP
7F80
7F00
BE80
8400
BF80
BF00
BF00
B300
BE80
D300
ENDCHAR
STARTCHAR 513A
ENCODING 20794
SWIDTH 900 0
DWIDTH 10 0
BBX 9 10 1 -1
BITMAP
6B00
7D00
BF80
BD00
BB80
BD00
BB80
FD00
B380
CC00
ENDCHAR
STARTCHAR 513C
ENCODING 20796
SWIDTH 900 0
DWIDTH 10 0
BBX 9 10 1 -1
BITMAP
7B00
7B00
4000
BF80
BE00
BF80
BB00
BB00
B500
4A80
ENDCHAR
STARTCHAR 5140
ENCODING 20800
SWIDTH 900 0
DWIDTH 10 0
BBX 9 9 1 -1
BITMAP
FF00
2400
2400
2400
2400
2400
2400
4480
8700
ENDCHAR
STARTCHAR 5141
ENCODING 20801
SWIDTH 900 0
DWIDTH 10 0
BBX 9 10 1 -1
BITMAP
1000
2400
2200
FF00
2400
2400
2400
2400
4480
8700
ENDCHAR
STARTCHAR 5143
ENCODING 20803
SWIDTH 900 0
DWIDTH 10 0
BBX 9 9 1 -1
BITMAP
7E00
0000
0000
FF00
2400
2400
2400
4480
8700
ENDCHAR
STARTCHAR 5144
ENCODING 20804
SWIDTH 900 0
DWIDTH 10 0
BBX 9 9 1 -1
BITMAP
7E00
4100
4100
4100
7E00
2400
2400
4480
8700
ENDCHAR
STARTCHAR 5145
ENCODING 20805
SWIDTH 900 0
DWIDTH 10 0
BBX 9 10 1 -1
BITMAP
0800
FF00
2000
2200
FF00
2500
2400
2400
4480
8700
ENDCHAR
STARTCHAR 5146
ENCODING 20806
SWIDTH 900 0
DWIDTH 10 0
BBX 9 10 1 -1
BITMAP
1800
1900
9A00
5A00
1800
6A00
A900
2800
4880
8700
ENDCHAR
STARTCHAR 5147
ENCODING 20807
SWIDTH 900 0
DWIDTH 10 0
BBX 9 9 1 -1
BITMAP
4500
7900
5D00
6500
7E00
1800
2800
4880
8700
ENDCHAR
ENDFONT
